/* XPM */
static const char *angel[] = {
/* columns rows colors chars-per-pixel */
"64 64 246 2 ",
"   c #0D0D0B",
".  c #0A0806",
"X  c #13130D",
"o  c #191B0F",
"O  c #16180E",
"+  c #0E0E11",
"@  c #141412",
"#  c #171812",
"$  c #1B1C13",
"%  c #1C1C1C",
"&  c #171617",
"*  c #10100C",
"=  c #241D1A",
"-  c #301F1F",
";  c #1D220E",
":  c #1E2213",
">  c #1E231A",
",  c #1F2811",
"<  c #222515",
"1  c #252A15",
"2  c #2A2D17",
"3  c #23241B",
"4  c #252B1C",
"5  c #2A2D1B",
"6  c #29261B",
"7  c #2D321C",
"8  c #2C3217",
"9  c #32351C",
"0  c #35391C",
"q  c #3A3C1D",
"w  c #333819",
"e  c #302F1D",
"r  c #1C1D23",
"t  c #1B1E26",
"y  c #1F2125",
"u  c #1D222B",
"i  c #212226",
"p  c #2C2C22",
"a  c #23252B",
"s  c #26292E",
"d  c #2B2C2C",
"f  c #282821",
"g  c #372A27",
"h  c #2B3323",
"j  c #2E3928",
"k  c #333523",
"l  c #343B25",
"z  c #3A3C23",
"x  c #343C2B",
"c  c #3A3C2B",
"v  c #36342A",
"b  c #262B32",
"n  c #2A2D32",
"m  c #2D3036",
"M  c #2E3238",
"N  c #373736",
"B  c #46362C",
"V  c #453936",
"C  c #4A302B",
"Z  c #713A2B",
"A  c #7E341F",
"S  c #3B411A",
"D  c #3C4224",
"F  c #35422C",
"G  c #3B442B",
"H  c #3D4A2C",
"J  c #3B4433",
"K  c #3C4B34",
"L  c #394836",
"P  c #3F5236",
"I  c #474C1D",
"U  c #424623",
"Y  c #43452B",
"T  c #474B29",
"R  c #4A5228",
"E  c #555828",
"W  c #424433",
"Q  c #424C34",
"!  c #43433C",
"~  c #494B39",
"^  c #544939",
"/  c #445234",
"(  c #4B5335",
")  c #44543B",
"_  c #4C5C3B",
"`  c #4A573A",
"'  c #515C3C",
"]  c #555538",
"[  c #794539",
"{  c #54623C",
"}  c #4F603C",
"|  c #686A2E",
" . c #393B40",
".. c #403F46",
"X. c #494844",
"o. c #554C46",
"O. c #4C5C43",
"+. c #495543",
"@. c #535E42",
"#. c #5A5C44",
"$. c #54534C",
"%. c #595849",
"&. c #545453",
"*. c #545B5B",
"=. c #5B5A57",
"-. c #4D5455",
";. c #664D47",
":. c #63584B",
">. c #665955",
",. c #785858",
"<. c #77564C",
"1. c #546343",
"2. c #596543",
"3. c #5A6849",
"4. c #5D6356",
"5. c #526749",
"6. c #64635B",
"7. c #666755",
"8. c #696D53",
"9. c #5D6365",
"0. c #646A6D",
"q. c #6B6C6C",
"w. c #676864",
"e. c #756B68",
"r. c #767469",
"t. c #6B6D71",
"y. c #666E70",
"u. c #6D7174",
"i. c #6F7478",
"p. c #737475",
"a. c #7C7B75",
"s. c #7B7B7C",
"d. c #767678",
"f. c #707068",
"g. c #695F61",
"h. c #863D27",
"j. c #8E4935",
"k. c #AF5337",
"l. c #C45E3F",
"z. c #915748",
"x. c #88695D",
"c. c #825D61",
"v. c #817E7C",
"b. c #847875",
"n. c #8C7667",
"m. c #A67B6E",
"M. c #AE7D70",
"N. c #DB704E",
"B. c #83817D",
"V. c #878578",
"C. c #AF8677",
"Z. c #7B7C82",
"A. c #63728F",
"S. c #5972AA",
"D. c #4473CB",
"F. c #3C6AC0",
"G. c #7F8081",
"H. c #7A8190",
"J. c #848383",
"K. c #8A8A86",
"L. c #8C8B8A",
"P. c #888587",
"I. c #928E8C",
"U. c #938A86",
"Y. c #94928D",
"T. c #99958D",
"R. c #928E94",
"E. c #9A9593",
"W. c #93939C",
"Q. c #9C969B",
"!. c #9E9A9C",
"~. c #989694",
"^. c #8C8C92",
"/. c #A39C9D",
"(. c #A39B98",
"). c #BB9888",
"_. c #9595A2",
"`. c #9C9BA6",
"'. c #9D9CAB",
"]. c #9798A5",
"[. c #9D9EB1",
"{. c #A29DA3",
"}. c #A29FA7",
"|. c #A29FB1",
" X c #9FA1AD",
".X c #9FA1B2",
"XX c #A4A1A4",
"oX c #ABA4A4",
"OX c #A3A2AC",
"+X c #AAA5AC",
"@X c #ADA9AC",
"#X c #B3ACAC",
"$X c #B6ACA8",
"%X c #BBB2AE",
"&X c #A3A4B4",
"*X c #A6A9B6",
"=X c #ACAAB4",
"-X c #A5A6BA",
";X c #A6A9BB",
":X c #AAACBC",
">X c #A8A7B5",
",X c #B3AEB2",
"<X c #B0AFB8",
"1X c #AFB1BD",
"2X c #B5B1B5",
"3X c #B3B2BD",
"4X c #BCB6B7",
"5X c #ADB0AE",
"6X c #A7A19C",
"7X c #C69A8A",
"8X c #D79D89",
"9X c #D4978E",
"0X c #CAA895",
"qX c #D7A696",
"wX c #CFA28E",
"eX c #E3A996",
"rX c #E8AF97",
"tX c #C4BBB7",
"yX c #D0B4A7",
"uX c #E7BAA6",
"iX c #EEB9AB",
"pX c #E59795",
"aX c #CEC2BC",
"sX c #E4C1AD",
"dX c #EDC6B5",
"fX c #ABADC1",
"gX c #AEB1C4",
"hX c #B2B5C5",
"jX c #B6B8C5",
"kX c #BABBC5",
"lX c #B1B3C8",
"zX c #B2B5C8",
"xX c #BBBCCA",
"cX c #B6B9C9",
"vX c #C0BFC8",
"bX c #C3C2CA",
"nX c #CCCACE",
"mX c #CAC6C8",
"MX c #D3CBC6",
"NX c #CECCD0",
"BX c #D7D3D3",
"VX c #D6D0CD",
"CX c #E2DCD9",
"ZX c #EDD9CA",
"AX c #EAE3DC",
"SX c #EDE7E3",
/* pixels */
"d =.r.N B.$.>.=.w.X.~ J.p.! ~ ! P.cXW.hXxXxXxXzXzXxXxXxXxXxXcXcXzXzXhXzXhXzXlXlXzXlXlXlXlXlXlXzXzXzXlXhXhXhXhXgXgXhXhXfXfXgX:X-X",
"X.! >.I.w.d V X.N o.c ~ ! w.Z.Z.].W.Z.].gXgXhXgXgXxXxXxXxXxXcXcXcXzXzXzXzXhXlXlXlXlXlXzXlXlXlXzXlXhXhXhXgXgXgXfXfXfXgXfXfXfX:X*X",
"6.N $.w.w.&.V N N &.v 6 N &.J.p.^.].].W.-X-X:XgX:XjXjXxXxXxXcXcXzXzXzXzXhXhXhXhXzXzXlXlXlXlXlXlXlXhXgXgXgXfXfXfXfXfXfX:X:X:X:X;X",
"h v X.q.d.Y.! X.p ! v ! X.$._.t.W.:X.X[.&X;X-X:X:XjXkXkXxXxXxXxXcXjXjXjXhXhXzXzXzXhXhXlXlXlXlXhXgXgXgXgXfXfXfXfXfXfX:X:X:X:X:X&X",
"c h ! oXtX6X! ! N 6.X.N 4.=.'.p.].'.].[..X:XhX:X;XxXbXxXxXxXxXkXjXjXjXjXjXhXzXzXzXzXhXhXhXlXgXgXgXfXfXfXfXfXfXfXfX:X:X:X:X-X-X-X",
"% f X.R.tXB.v J q.`.&.=.$.X.q.$.s.^._..X.X-XgX3XhXbXbXbXbXbXxXkXkXjXjXjXhXhXhXhXhXhXhXgXgXhXhXgXfXfXfXfXfXfXfX:X:X:X;X-X-X-X-X-X",
"@ 3 $.tXv.X.X.o.=.6.h ! p.6.~ =.W._..X'..X-X*X:X1XbXnXnXnXbXbXxXkXjXjXjXhXhXhXhXhXgXgXgXgXhXhXfXfXfXfXfXfXfX:X:X:X;X-X-X*X*X&X&X",
"$ p N f.P.! &.v.U.=.=.w.$.W.w.].&X&X'.'.'. X&X&X&XkXnXnXnXnXbXbXxXkXjXjXjXjXhXjXjXgXgXgXgXgXgXfXfXfXfXfXfX:X:X:X-X-X-X-X-X*X*X-X",
"3 % d =.d.=.w.E.a.P.L.p.p.R._.'.'.'.'.'.OX=X=X=X=X3XnXNXNXNXnXbXbXxXkXjXjXjXjX1X:X:X:X:X:XfXfXfXfXfXfXfX:X:X;X;X-X;X-X-X-X*X&X{.",
"3 % N =.&.w.I.%X!.=.q.XXs.a.P.}.3X&X&X&X=XnXBXBXNXnXBXNXNXnXnXbXbXxXkXjXjX3X:X*X-X;X:X:X:X:X:X:XfXfXfXfX:X;X;X;X;X;X;X-X*X-X{.b.",
"@ 3 N &.J c w.!.r.W %.6.P.J.a.`.=X3XbXnXNXBXCXCXCXBXBXNXNXnXbXbXvXxXkXjXjX*X&X.X&X:X:X:X:X:X:X:X;X:X:X;X;X;X;X;X;X;X;X-XW.].K.e.",
"X 3 V v c k $.X.W G c ~ J.s.v.v.J.L.`.3XBXAXSXAXCXCXBXBXNXnXnXbXvXxXkXjX3X*X&X&X:X:X:X:X:X:X;X;X;X;X;X;X;X;X;X;X;X-X-X-Xb.7.a.L.",
"# # 3 $ 4 h k c $.%.l ~ I.L.v.s.d.a.a.a.J.XXmXCXSXMXAXCXBXNXnXbXbXxXkXhXhX1X:X=X:X:X:X:X;X*X;X;X-X-X-X-X-X-X-X-X-X-X-X'.J.R.`.R.",
"% = N =.v p v v ~ r.r.6.(.T.Y.L.P.B.s.s.p.p.p.J.Q.s.!.#XBXBXnXbXbXxXkXhXhX3X1X:X:X:X:X;X;X*X*X;X-X-X-X-X-X-X-X-X-X-X&X&X-X;X].v.",
"@ $ $.=.X.$.I.W G ~ %.b.T.V.E.Y.I.L.K.P.s.a.p.u.t.i.p.t.!.4XnXNXnXvXkXhXhX3X1X=X:X:X*X*X*X*X*X*X-X-X-X-X-X-X-X&X&X-X&X&X&X&X&XJ.",
"  3 k 5 h ] r.W 6.k +.8.r.(.(.E.Y.L.K.K.P.H.J.v.s.p.t.t.0.t.Z.^.2XbXkXhXhX3X3X=X:X:X*X*X*X*X*X*X-X-X&X&X&X.X.X.X&X.X.X&X&X&X&X{.",
"v 3 2 5 < 5 l %.K.w.6.%.] E.E.T.E.I.L.K.J.F.D.S.s.s.s.i.u.t.t.9.R.bXjXhX3X3X3X=X=X:X;X*X*X-X-X&X&X&X&X.X.X.X.X[.[.[.[.|.'.|.R.r.",
"v $ $ 3 p 3 1 Y w.J.%.Q ( L.~.T.E.T.L.K.J.i.F.A.L.Z.p.p.u.i.i.t.J.kX3X3X3X=X=X=X:X:X*X*X&X&X&X&X.X.X.X[.[.[.[.[.[.[.'.'.}.`.w.r.",
"d # 6 6 c X.W +.7.w.J.w.G f.Y.I.E.T.Y.L.K.Z.D.f.W.2X@X{.G.p.t.0.L.3X3X<X=X=X=X=X=X*X*X&X&X&X&X.X X X'.'.'.[.'.'.[.'.'.'.'.`.].'.",
"v : 5 6.p.f.a.K.r.2.4.r.U f.P.L.Y.L.Y.I.I.G.A.s.u.Z.~. X5X@X~.q.J.4X2X,X=X=X=X>X&X&X&X&XOX XOX&X&X X X X'.'.'.'.'.'.'.`.`.`.P.W.",
"X.= B.r.6.~ r.!.r.T #.] R B.K.L.Y.K.J.K.L.J.v.B.s.q.0.0.0.s.L.0.P.4X2X2X,X=X=X>X&X&XOXOXOXOXOX'.].].].'.'.'.'.'.'.'.'.`.`.P.v.v.",
"6 p %.7.7.W 7.r.7.9 D ( #.B.L.K.Y.J.a.K.P.K.P.J.J.s.a.p.t.q.0.t.K.tX4X2X,X,X=X=X+XOXOXOXOXOX'.]._.].].].].'.'.`.'.'.'.'.`.P.W.].",
"< 9 W ~ !.r.%.U S 7 w T 7.K.a.a.P.8.3.J.J.J.J.B.B.s.s.a.p.p.p.t.P.4X2X2X,X,X,X=X=X+XOXOXOX'.].'.'.'.'.'.'.].'.'.'.'.'.'.'.}.R.v.",
"x 8 c 6.7.%.] R w 9 z ( ( r.8.7.r.w.T r.J.G.Z.s.s.a.s.a.p.p.p.t.I.4X2X2X,X,X,X,X@X+X+XOXOX]._._.].`.`.'.'.'.'.'.'.'.'.'.`.`.b.:.",
"p ! %.%X6.#.U R S 7 9 U E E E #.#.#.Y ] s.G.s.s.s.a.p.a.p.i.u.p.P.tX4X%X2X#X#X,X=X+X+XOXXX`.].`.`.`.`.'.'.'.'.`.`.`.`.`.W.W.W.d.",
"6 ~ b.a.$.U I E R w 0 R R R R ( T T 0 0 7.d.s.a.a.p.a.p.p.p.p.0.~.mXtXtX4X%X#X#X=X+X+XXXXXXX}.{.XXXXXX}.'.`.`.`.`.].].].`.L.J.8.",
"f R E ~ a.R I E R 7 I R U R q q T D 2 9 Y q.u.d.i.p.p.p.u.t.q.q.I.MXaXaXtXtXtX4X,X#X+X+XoX+XXXXXXXXXXXXX}.}.`.'.`.`.].].].W.R.R.",
"f c E | V.E 0 q S S E U D T q q D 9 5 1 l ~ 6.s.i.p.u.u.q.t.t.0.~.CXVXMXmXmXtXtXmX4X4XtX4X%X,X#X@X@XoXXX{.XXXX}.`.`.].].]._._.^.",
"z U { E 8.I U 9 8 I | S 9 9 0 S 8 1 1 1 5 w 6.d.p.u.p.t.q.u.u.0./.AXAXVXMXMXMX%Xb.a.b.r.(.tXtX%X%X%X#X@X+X+XoX{.{.{.{.`.`.`.R.r.",
"2 q q U ( I E 1 w E I S : < < 1 < < : 1 1 8 %.i.u.u.t.y.0.0.0.0.L.MXVXZXZXZX$X;.= $ # . f b.%XtXtXtXtX%X%X#X#X+XoXoX{.{.{.{.Q.I.",
"1 0 q z U R q @ 7 q < 0 < 1 < O $ 1 : # < 1 ~ q.i.u.i.y.y.0.t.0.~.tXtXaXMXtX;.g % f = & + = >.tXtXtXtXtX%X#X%X#XoXoXoX{.{.{.Q.`.",
"k 0 0 U S T D 9 9 q 9 9 5 8 1 X $ 1 1 : : < 9 =.i.0.t.0.0.0.0.t.K.4X4X4XtXP.f = v f g g @ = V U.tX%X%X%X$X$X#XoXoXoX{.{.{.{.Q.Q.",
"k 7 w S q q q D 0 9 q 7 q 0 2 o < 2 2 p $ < J w.t.0.0.0.0.9.9.0.L.@X@X@X#Xo.g B V g <.;.- B V w.%XoXoXoXoXoXoXoXoX/././././.Q.Q.",
"z 9 9 w 0 7 5 q 7 < 5 7 9 < 8 < : 1 < 5 # 3 W w.u.y.y.0.0.0.0.0.K.oXXX@XI.V V o.<.,.m.c.;.n.V X.oXoXoXoXoXoX/./././././.!.Q.Q.Q.",
"1 Y z 9 U k 7 1 : 5 $ < 1 2 2 1 o X $ 5 < 7 +.y.y.9.9.0.0.0.0.0.P.oXXX#Xe.= V <.M.m.C.m.m.).B V /./././././.!.!.Q.Q.!./.Q.Q.~.E.",
"5 ~ W w U z 3 5 $ 3 9 < $ < 1 < 1 X < 5 5 9 Y =.0.*.*.9.9.9.*.*.K.XX/.oXe.= <.n.7XdXiXwX7XC.C :.oX/././././.{.{.{.{.~.L.{.Q.(.E.",
"+.#.T T E U # 3 9 5 5 < X X X X X X < 5 1 9 k X.*.&.*.-.-.*.*.=.P.oX{.oXK.= <.qXqXuXuXqXiXyX^ =.a.B.d.q.I.p.&.&.q.=.V f w.R.p.K.",
"( R E R U U $ $ 5 9 9 # < 1 X o O # $ $ 1 9 J $.*.*.*.-.-.-.-.*.p.s.J.B.$.= x.C.).qXqXwXyXuX<.;.c < p # % % @   X X @ # o ~ ~ N ",
"( U U U 9 z 3   < q 7 7 5 q :   X $ # # < 9 Y Q 4.*.*.*.*.*.*.9.=.X 3 # X g x.8XqX9X8XrXiXqX7XM.3 # # = $ % % % # %   X # 6 q 7 ",
"( R U z q 9 9 $ 9 9 5 0 3 c o   X X : < < < 5 9 H ~ &.*.*.-.-.9.&.$ 6 3 3 ;.C.eX8X9XqXeXiXqX8Xx.$ = < 1 = 6 f 3 3 f e 6 v c z < ",
"R U 7 7 5 < 6 $ < 9 $ $ 3 W X @ # # 7 7 1 $ $ x J =.0.9.9.*.9.9.d 6 f X X 6 m.eXeX9XeXeXiXqX8X^ < < < $ : 5 3 # 9 B B T ~ z 5 o ",
"T q k 5 3 5 # 3 3 2 5 < @ p X # < < 7 9 1 J v 7 ~ $.=.0.0.w.w.0.! N d d c 3 x.eXqXeXiXqXuXeXx.k p 5 9 5 < 9 9 < 9 0 k 5 5 1 1 < ",
"( D z 5 $ # # 3 3 q q 5 X X o X # < 7 0 < 3 6 2 5 o $ f p p 3 p o.! N g Y z B wX8X9XiX9XiXwX^ k 5 1 8 8 1 2 7 2 2 1 1 < ; : o $ ",
"( D 9 < 3 $ # # $ 9 5 < X . X X # # 1 < 1 < $ < < 3 f v ;.o.p X $ o = < 0 q < x.uX9XpXrXdX7XW 1 o o ; ; 1 , , , ; 1 , 2 , ; < 1 ",
"T z 0 < 5 : # @ < X # 2 *   X X @ X < $ 5 c ;.<.<.,.,.e.,.,.;.3 c c %.( 2 B c ^ 7XdXdXdXqX).] 8 7 < : : 4 O X : : , : : 2 7 2 1 ",
"z k 9 6 k # X . # X < s X X X   X @ < k 5 z ,.c.c.c.,.e.,.,.,.,.w.w.7.( 8 G K ~ C.qXdXqXC.qX8.j H G G l G l 4 G c H H F G G c G ",
":.^ c k k k V N p = X m @ $ f   3 k p #.o.^ ,.,.,.,.,.>.>.%.:.%.` / H _ ) G F $.0X7X).).0XuXC.o.c 7 D G l F H l G Q Y l G D 9 l ",
"] Y v k v k ~ >.d f # 3 p # 3 c $.%.( #.%.7.%.o.:.' %.~ ' _ 1.O.) ` @.@.1.G m b.0XsXyXsXuXuX7X0X>.a x D l 4 l l G Y 7 l 7 D 3 : ",
"] ^ c ~ ~ W +.X.~ Y $ ~ ' c G _ { 2.3._ 3.8.8.3.3.{ 1.1.1.2.5._ ) Q / ` J i u &.0XdXdXsXsXsX0XyXe.u i a N l 4 h G Y H G G G Y c ",
":.] =.>.%.4.6.%.' 2.' 3.2.3.' ( R T / H H { 3.{ } { 1.5.{ 2._ / ) / x s t r i b e.dXZXdXsXuXuXyX..i i t t N H 4 4 l l l 4 h Q Q ",
"6.%.p.f.3.8.3.2.8.2.' 2._ 2.1.` / H H / D _ ` { 1.3.1.1.1._ ) O.Q j a i i i i n n w.aXZXZXdXuXg.a s u y r i c 7 4 k l 5 3 h h 3 ",
"6.B.f.#.' 8.8.3.2.{ 1.2.Q / 3.O.F 9 G / _ ` H _ } / K ) _ ) O.Q # s b s s s b s n M X.e.U.b.X.s n s y t t t i l l 5 7 3 k h X : ",
"f.f.3.' _ / / 1.1.{ { _ ' Q 2.Q F 4 Q _ _ _ { 1._ J F ) ) ) x > % M n s s b n n n M  .M M n n n b s i y r r t p l 1 > G k X @ $ ",
"1.2.' _ { T l D z / / ` _ ` ( ) 1.1.5.8.` l ' { @.G ) K K h h # a M M s s b n b n n m M N N n s s i i i i r r s j 7 Y c # # X X ",
"3.3.3._ @.3.( 2 1 F Q / ) _ 1.1.@.3.2._ 7 7 H l +.2.K K F h Q f m M M b a n n b M n s s s n s a a a i i i r % y c Y k # # # X X ",
"` 1.3.3.1.3.{ _ l l l _ 1._ G / _ ) ( Q 7 h / F H / J x > j J > M M M n s n n n n n n s b n s a a a i i i r % % l 5 # $ 3 X   X ",
"F H H _ 1.5.3.1./ _ : l ' _ F F Q k k 4 F F G ( H 4 h x x J Q y n n n n n n n M n n n s C b s a a i i i u r & & f 5 # X X   @ # ",
"H / H / Q O.5.1._ ) l $ 4 7 F ) ) c 4 4 F ` ` H h $ f j +.@.K d n s s a s M n M n M b B k.C u b s i i y y r & @ % 1 5 X * X   @ ",
"H _ P h J ) ) O.5.1.5.F @ @ # p _ l 4 h F K c h 4 > 3 $ J 3.F s n s a i n M M M M M m z.l.j.a s u t i i t t & + & @ 5 c 5 X .   ",
"K G j # f K ) +.+.O.O.5.F > f G _ / F x j h x F h > $ > j K 4 b b s y r b M M M M N N.N.z.j.[ Z g g i y t r & + + > l k k * : @ ",
"K F h F K ) ) ) P ) O.5.5.J ) ` Q ) j h h : h K K > f L ) x > b s s a % a n M M M b z.N.[ [ j.C j.C C y r % & + + & 3 5 5 l 5 $ ",
"h F L x h f j F x h F x +.O.) / c L F h > 4 3 3 L P +.O.P F > b b s a r a b n M M n n l.j.Z l.k.Z Z Z C r % &   + + $ 7 k l h h ",
"4 4 h h 3 : 3 > # j +.j h F O.F h K h L 4 3 > 3 +.O.x Q +.h & b b s a r y s b m M n u C k.d j.k.g h.h.t r & @       > c p h 3 * ",
"f > h $ $ 3 # : > h +.L j J ) ) L J x ~ h 4 x L ) L +.P x f r b b s i % r a s b n m [ a Z g r Z Z & A - % @         + 5 3 $ X   "
};
