/* XPM */
static const char *BrickOv[] = {
/* columns rows colors chars-per-pixel */
"64 64 127 2 ",
"   c #555555",
".  c #5C5C5C",
"X  c #646464",
"o  c #696769",
"O  c #6C6C6C",
"+  c #71716F",
"@  c #6F6F70",
"#  c #706F70",
"$  c #6F7070",
"%  c #747474",
"&  c #787877",
"*  c #777778",
"=  c #787778",
"-  c #777878",
";  c #7C7C7C",
":  c #817F7F",
">  c #7F807F",
",  c #81817F",
"<  c #7F8181",
"1  c #838383",
"2  c #888787",
"3  c #878887",
"4  c #888887",
"5  c #878788",
"6  c #888788",
"7  c #878888",
"8  c #8D8D8D",
"9  c #8E8E8D",
"0  c #8F8F8D",
"q  c #8E8D8E",
"w  c #8F8D8F",
"e  c #8D8E8E",
"r  c #8E8E8E",
"t  c #8F8F8E",
"y  c #8E8E8F",
"u  c gray56",
"i  c #8A8A8A",
"p  c #8F908D",
"a  c #8F908F",
"s  c #90908F",
"d  c #90908D",
"f  c #908E90",
"g  c #8F9090",
"h  c #909090",
"j  c #919190",
"k  c gray57",
"l  c #929290",
"z  c #919192",
"x  c #909292",
"c  c #919292",
"v  c #929292",
"b  c #929392",
"n  c #939392",
"m  c #939293",
"M  c #939393",
"N  c #939394",
"B  c gray58",
"V  c #959494",
"C  c #969694",
"Z  c #959596",
"A  c #969496",
"S  c #969596",
"D  c #949696",
"F  c gray59",
"G  c #979696",
"H  c #979797",
"J  c #939393",
"K  c #989896",
"L  c #999997",
"P  c #989898",
"I  c #999899",
"U  c gray60",
"Y  c #9A9999",
"T  c #999A99",
"R  c #9A9A9A",
"E  c #9B9B9B",
"W  c #9C9B9B",
"Q  c gray61",
"!  c #9C9C9D",
"~  c #9D9D9D",
"^  c #9E9D9D",
"/  c #9D9E9D",
"(  c #9D9F9D",
")  c #9E9E9C",
"_  c #9D9E9E",
"`  c #9F9F9E",
"'  c #9E9F9F",
"]  c #9F9F9F",
"[  c #9B9B9B",
"{  c #A09F9F",
"}  c #A0A19F",
"|  c #9E9EA0",
" . c #A09EA0",
".. c #A09FA0",
"X. c #A0A0A0",
"o. c #A1A2A1",
"O. c #A2A2A0",
"+. c #A0A0A2",
"@. c #A0A3A2",
"#. c #A2A2A2",
"$. c #A3A2A3",
"%. c #A5A3A3",
"&. c #A3A4A3",
"*. c #A3A4A4",
"=. c #A4A4A4",
"-. c #A4A5A4",
";. c #A5A5A4",
":. c gray65",
">. c #A6A7A7",
",. c #A3A3A4",
"<. c gray66",
"1. c #A9AAA9",
"2. c #AAA9AA",
"3. c #ABABAA",
"4. c #ACACAC",
"5. c #AEACAC",
"6. c #A9A9A9",
"7. c #B2B2B2",
"8. c #B4B5B4",
"9. c gray71",
"0. c #B8B8B7",
"q. c #BBB9B9",
"w. c #BDBBBB",
"e. c #BCBCBC",
"r. c #C1C0C0",
"t. c None",
"y. c black",
/* pixels */
"P 1 ; ! 3.! 1 ; ! 8 7 O 8 v 8 1 7 S 8 v 1 1 P o.3.3.7 8 S S W ! S S o.! 1 v 9.v 1 ; 7 1 7 1 v 1 S =.7.N *.o.S 4.9.8 ! &.S ! q.; ",
"o.t.t.t.t.t.t.t.t.t.t.t.t.t.t.8 S t.t.t.t.t.t.t.t.t.t.t.t.t.t.7 2 t.t.t.t.t.t.t.t.t.t.t.t.t.t.; 1 t.t.t.t.t.t.t.t.t.t.t.t.t.t.% ",
"3.t.t.t.t.t.t.t.t.t.t.t.t.t.t.S 7 t.t.t.t.t.t.t.t.t.t.t.t.t.t.% % t.t.t.t.t.t.t.t.t.t.t.t.t.t.% % t.t.t.t.t.t.t.t.t.t.t.t.t.t.X ",
"0.t.t.t.t.t.t.t.t.t.t.t.t.t.t.v ; t.t.t.t.t.t.t.t.t.t.t.t.t.t.; 1 t.t.t.t.t.t.t.t.t.t.t.t.t.t.1 ; t.t.t.t.t.t.t.t.t.t.t.t.t.t.. ",
"P t.t.t.t.t.t.t.t.t.t.t.t.t.t.% X t.t.t.t.t.t.t.t.t.t.t.t.t.t.v ! t.t.t.t.t.t.t.t.t.t.t.t.t.t.% ; t.t.t.t.t.t.t.t.t.t.t.t.t.t.X ",
"; t.t.t.t.t.t.t.t.t.t.t.t.t.t.% O t.t.t.t.t.t.t.t.t.t.t.t.t.t.8 7 t.t.t.t.t.t.t.t.t.t.t.t.t.t.O % t.t.t.t.t.t.t.t.t.t.t.t.t.t.% ",
"O t.t.t.t.t.t.t.t.t.t.t.t.t.t.1 O t.t.t.t.t.t.t.t.t.t.t.t.t.t.1 1 t.t.t.t.t.t.t.t.t.t.t.t.t.t.% % t.t.t.t.t.t.t.t.t.t.t.t.t.t.O ",
"< O ; 7 P i ; ; ; 1 8 1 6 1 % % % % 1 1 ; 8 % % % ; % 1 1 7 1 1 1 ; 1 1 ; O % % % ; v 7 7 1 1 % % % 1 8 % % 1 1 1  .P ; ; ; 7 1 ",
"; % 1 ! P 7 1 % % 7 8 1 1 1 % ; < 1 % 7 1 S 7 ; X % X ; 1 1 X . X 1 ; ; ; ; % O % 7 v v 1 1 1 1 ; ; 1 ! 1 % O O =  .v 1 1 O ; ! ",
"t.t.t.t.t.t.t.% ; t.t.t.t.t.t.t.t.t.t.t.t.t.t.O ; t.t.t.t.t.t.t.t.t.t.t.t.t.t.% ; t.t.t.t.t.t.t.t.t.t.t.t.t.t.1 % t.t.t.t.t.t.t.",
"t.t.t.t.t.t.t.X 1 t.t.t.t.t.t.t.t.t.t.t.t.t.t.% 1 t.t.t.t.t.t.t.t.t.t.t.t.t.t.8 3 t.t.t.t.t.t.t.t.t.t.t.t.t.t.1 . t.t.t.t.t.t.t.",
"t.t.t.t.t.t.t.; 1 t.t.t.t.t.t.t.t.t.t.t.t.t.t.  O t.t.t.t.t.t.t.t.t.t.t.t.t.t., 8 t.t.t.t.t.t.t.t.t.t.t.t.t.t.% X t.t.t.t.t.t.t.",
"t.t.t.t.t.t.t.1 ; t.t.t.t.t.t.t.t.t.t.t.t.t.t.. X t.t.t.t.t.t.t.t.t.t.t.t.t.t.1 7 t.t.t.t.t.t.t.t.t.t.t.t.t.t.O % t.t.t.t.t.t.t.",
"t.t.t.t.t.t.t.7 v t.t.t.t.t.t.t.t.t.t.t.t.t.t.O 4 t.t.t.t.t.t.t.t.t.t.t.t.t.t.; O t.t.t.t.t.t.t.t.t.t.t.t.t.t.v ; t.t.t.t.t.t.t.",
"t.t.t.t.t.t.t.% 7 t.t.t.t.t.t.t.t.t.t.t.t.t.t.; 1 t.t.t.t.t.t.t.t.t.t.t.t.t.t.p O t.t.t.t.t.t.t.t.t.t.t.t.t.t.1 1 t.t.t.t.t.t.t.",
"S 7 i P 8 8 8 1 ; % 7 1 : X . O % O . % O ; % O ; 7 ; % % % O $ g v o.! 8 1 8 7 7 ; ; 1 ; ; % % . < 7 1 ; 7 1 1 8 7 7 ; . % 8 p ",
"v > 8 7 7 ; 1 v v v ! v 1 1 1 % O O   O 8 1 ; ; ; 1 ; ; 8 v 7 ; ; 1 v 1 ; 1 7 7 1 % 1 1 1 1 1 7 ; ; 1 P S 1 % O ; ; ; * % % P 1 ",
"S t.t.t.t.t.t.t.t.t.t.t.t.t.t.1 X t.t.t.t.t.t.t.t.t.t.t.t.t.t.> O t.t.t.t.t.t.t.t.t.t.t.t.t.t.1 % t.t.t.t.t.t.t.t.t.t.t.t.t.t.# ",
"4.t.t.t.t.t.t.t.t.t.t.t.t.t.t.8 ; t.t.t.t.t.t.t.t.t.t.t.t.t.t.O O t.t.t.t.t.t.t.t.t.t.t.t.t.t.% 1 t.t.t.t.t.t.t.t.t.t.t.t.t.t.O ",
"o.t.t.t.t.t.t.t.t.t.t.t.t.t.t.O . t.t.t.t.t.t.t.t.t.t.t.t.t.t.% ; t.t.t.t.t.t.t.t.t.t.t.t.t.t.; 1 t.t.t.t.t.t.t.t.t.t.t.t.t.t.; ",
"r.t.t.t.t.t.t.t.t.t.t.t.t.t.t.X X t.t.t.t.t.t.t.t.t.t.t.t.t.t.; ; t.t.t.t.t.t.t.t.t.t.t.t.t.t.v ; t.t.t.t.t.t.t.t.t.t.t.t.t.t.1 ",
"w.t.t.t.t.t.t.t.t.t.t.t.t.t.t.; ; t.t.t.t.t.t.t.t.t.t.t.t.t.t.P ; t.t.t.t.t.t.t.t.t.t.t.t.t.t.! 1 t.t.t.t.t.t.t.t.t.t.t.t.t.t.+ ",
"%.t.t.t.t.t.t.t.t.t.t.t.t.t.t.% 1 t.t.t.t.t.t.t.t.t.t.t.t.t.t.8 O t.t.t.t.t.t.t.t.t.t.t.t.t.t.1 O t.t.t.t.t.t.t.t.t.t.t.t.t.t.% ",
"v 1 1 1 ; 7 =.7 ; % O % % 7 7 7 ; ; X 1 1 ; 1 1 ; ; 8 7 ; % ; 1 X X 1 1 ; < X 1 ; 7 ; 7 1 O O X X @ S 1 ; K S % % 1 ; ; ; 7 8 1 ",
"o.8 1 1 ; ; s 1 % O ; ; ; 7 7 1 7 4 7 v 7 7 % 1 v 1 1 > ; % ; 1 X X ; ; 1 ; X 1 ; 8 v ; ; 1 8 ; O O O % 1 i % ; % 1 1 1 % 1 S % ",
"t.t.t.t.t.t.t.=.7 t.t.t.t.t.t.t.t.t.t.t.t.t.t.1 ! t.t.t.t.t.t.t.t.t.t.t.t.t.t.; ; t.t.t.t.t.t.t.t.t.t.t.t.t.t.7 1 t.t.t.t.t.t.t.",
"t.t.t.t.t.t.t.8 ; t.t.t.t.t.t.t.t.t.t.t.t.t.t.; ; t.t.t.t.t.t.t.t.t.t.t.t.t.t.7 % t.t.t.t.t.t.t.t.t.t.t.t.t.t.=.=.t.t.t.t.t.t.t.",
"t.t.t.t.t.t.t.% % t.t.t.t.t.t.t.t.t.t.t.t.t.t.O 7 t.t.t.t.t.t.t.t.t.t.t.t.t.t.v ; t.t.t.t.t.t.t.t.t.t.t.t.t.t.v 8 t.t.t.t.t.t.t.",
"t.t.t.t.t.t.t.8 ; t.t.t.t.t.t.t.t.t.t.t.t.t.t.% P t.t.t.t.t.t.t.t.t.t.t.t.t.t.P % t.t.t.t.t.t.t.t.t.t.t.t.t.t.; 7 t.t.t.t.t.t.t.",
"t.t.t.t.t.t.t.8 % t.t.t.t.t.t.t.t.t.t.t.t.t.t.% ; t.t.t.t.t.t.t.t.t.t.t.t.t.t.v ; t.t.t.t.t.t.t.t.t.t.t.t.t.t.X 8 t.t.t.t.t.t.t.",
"t.t.t.t.t.t.t.; % t.t.t.t.t.t.t.t.t.t.t.t.t.t.% ; t.t.t.t.t.t.t.t.t.t.t.t.t.t.! v t.t.t.t.t.t.t.t.t.t.t.t.t.t.. % t.t.t.t.t.t.t.",
"; % ; 8 ; % 1 % O % O X ; { 7 4 7 < % 1 O 1 % % O % 1 1 4 1 1 O ; ; 7 1 % % % % 1 O 1 i 1 v 3.; O 1 ; X % ; % .   O 7 8 S f 7 8 ",
"W 1 ; 1 8 8 8 ; ; 1 ; % ; v ! 8 1 % 1 7 ; ; 1 ; X X % & 1 1 1 X % 8 7 f 1 1 ; + ; - % . O 7 S % ; v ; % % 1 < ; 1 1 8 8 . O 1 8 ",
"S t.t.t.t.t.t.t.t.t.t.t.t.t.t.8 7 t.t.t.t.t.t.t.t.t.t.t.t.t.t.= ; t.t.t.t.t.t.t.t.t.t.t.t.t.t.; : t.t.t.t.t.t.t.t.t.t.t.t.t.t.8 ",
"o.t.t.t.t.t.t.t.t.t.t.t.t.t.t.8 1 t.t.t.t.t.t.t.t.t.t.t.t.t.t.; 8 t.t.t.t.t.t.t.t.t.t.t.t.t.t.! =.t.t.t.t.t.t.t.t.t.t.t.t.t.t.; ",
"S t.t.t.t.t.t.t.t.t.t.t.t.t.t.1 O t.t.t.t.t.t.t.t.t.t.t.t.t.t.; 1 t.t.t.t.t.t.t.t.t.t.t.t.t.t.i v t.t.t.t.t.t.t.t.t.t.t.t.t.t.% ",
"e.t.t.t.t.t.t.t.t.t.t.t.t.t.t.; X t.t.t.t.t.t.t.t.t.t.t.t.t.t.; ; t.t.t.t.t.t.t.t.t.t.t.t.t.t.% 1 t.t.t.t.t.t.t.t.t.t.t.t.t.t.8 ",
"=.t.t.t.t.t.t.t.t.t.t.t.t.t.t.% O t.t.t.t.t.t.t.t.t.t.t.t.t.t.% ; t.t.t.t.t.t.t.t.t.t.t.t.t.t.1 ; t.t.t.t.t.t.t.t.t.t.t.t.t.t.% ",
"=.t.t.t.t.t.t.t.t.t.t.t.t.t.t.O % t.t.t.t.t.t.t.t.t.t.t.t.t.t.X % t.t.t.t.t.t.t.t.t.t.t.t.t.t.v 1 t.t.t.t.t.t.t.t.t.t.t.t.t.t.; ",
"! 1 1 1 % ; ; ; % . ; ; % 8 1 ; 1 ; ; S ; % 1 P v 7 1 % ; 1 ; ; O % ; 7 % O X % 1 ; 1 v ; 1 1 1 1 v 8 7 ; 1 ; ; 8 =.P 7 1 P | ; ",
"q.8 8 7 1 5 7 1 ; ; % X ; 1 % ; ; ; 8 8 % X ; 1 1 1 7 ; ; ; O % O ; X ; ; 1 % ; ; 1 S ! ; % ; O 7 ; 1 7 % % O X O P P 8 1 % P ; ",
"t.t.t.t.t.t.t.% ; t.t.t.t.t.t.t.t.t.t.t.t.t.t.; 1 t.t.t.t.t.t.t.t.t.t.t.t.t.t.S ; t.t.t.t.t.t.t.t.t.t.t.t.t.t.. % t.t.t.t.t.t.t.",
"t.t.t.t.t.t.t.; J t.t.t.t.t.t.t.t.t.t.t.t.t.t.1 O t.t.t.t.t.t.t.t.t.t.t.t.t.t.7 7 t.t.t.t.t.t.t.t.t.t.t.t.t.t.= 7 t.t.t.t.t.t.t.",
"t.t.t.t.t.t.t.1 % t.t.t.t.t.t.t.t.t.t.t.t.t.t.% ; t.t.t.t.t.t.t.t.t.t.t.t.t.t.1 7 t.t.t.t.t.t.t.t.t.t.t.t.t.t.! 8 t.t.t.t.t.t.t.",
"t.t.t.t.t.t.t.; O t.t.t.t.t.t.t.t.t.t.t.t.t.t.8 1 t.t.t.t.t.t.t.t.t.t.t.t.t.t.8 % t.t.t.t.t.t.t.t.t.t.t.t.t.t.8 8 t.t.t.t.t.t.t.",
"t.t.t.t.t.t.t.1 1 t.t.t.t.t.t.t.t.t.t.t.t.t.t.% % t.t.t.t.t.t.t.t.t.t.t.t.t.t.* ; t.t.t.t.t.t.t.t.t.t.t.t.t.t.% 7 t.t.t.t.t.t.t.",
"t.t.t.t.t.t.t.7 S t.t.t.t.t.t.t.t.t.t.t.t.t.t.X % t.t.t.t.t.t.t.t.t.t.t.t.t.t.; X t.t.t.t.t.t.t.t.t.t.t.t.t.t.% ; t.t.t.t.t.t.t.",
"o.8 P 7 ; 1 % ; % 8 7 i W 2 % v P P v v 7 7 1 O % O O X 7 ; O O ; 1 v 1 S P 1 % O 1 ; ; ; ; ; % ; . 1 % ; ; 1 % ; N 6 ; % ; ; . ",
"! 7 6 v ; 1 O 1 ; 1 s 7 8 8 ; ; 1 S ; O 1 1 ; O X X X X % ; % 1 1 % % ; K ; ; X O % v ; O % 1 % ; O 7 ; % % % X % % O % ; v 7 1 ",
"} t.t.t.t.t.t.t.t.t.t.t.t.t.t.v 7 t.t.t.t.t.t.t.t.t.t.t.t.t.t.1 S t.t.t.t.t.t.t.t.t.t.t.t.t.t.8 1 t.t.t.t.t.t.t.t.t.t.t.t.t.t.o.",
"P t.t.t.t.t.t.t.t.t.t.t.t.t.t.; ; t.t.t.t.t.t.t.t.t.t.t.t.t.t.% P t.t.t.t.t.t.t.t.t.t.t.t.t.t.S v t.t.t.t.t.t.t.t.t.t.t.t.t.t.P ",
"e.t.t.t.t.t.t.t.t.t.t.t.t.t.t.1 ; t.t.t.t.t.t.t.t.t.t.t.t.t.t.; % t.t.t.t.t.t.t.t.t.t.t.t.t.t.v v t.t.t.t.t.t.t.t.t.t.t.t.t.t.O ",
"=.t.t.t.t.t.t.t.t.t.t.t.t.t.t.7 1 t.t.t.t.t.t.t.t.t.t.t.t.t.t.% % t.t.t.t.t.t.t.t.t.t.t.t.t.t.% ; t.t.t.t.t.t.t.t.t.t.t.t.t.t.1 ",
"S t.t.t.t.t.t.t.t.t.t.t.t.t.t.% O t.t.t.t.t.t.t.t.t.t.t.t.t.t.1 7 t.t.t.t.t.t.t.t.t.t.t.t.t.t.O O t.t.t.t.t.t.t.t.t.t.t.t.t.t.; ",
"! t.t.t.t.t.t.t.t.t.t.t.t.t.t.O ; t.t.t.t.t.t.t.t.t.t.t.t.t.t.1 v t.t.t.t.t.t.t.t.t.t.t.t.t.t.; 1 t.t.t.t.t.t.t.t.t.t.t.t.t.t.7 ",
"7 ; - O O % % % % ; 8 v 1 % O X 1 S 1 ; 1 % X % 7 8 1 o 1 1 ; 1 1 ; 7 v % % % ; ; O 1 1 1 X X O O O % O % ; ; P 1 % 1 1 1 % 1 P ",
"q.o.3.8 & 1 7 1 ; % % S ! v % ; 1 ; ; O 1 ; O % 1 7 O O 1 % ; 1 ; % 8 1 1 ; O % O % 1 v 1 % X ; ; ; % X % ; ; 1 % % % ; 7 7 f P ",
"t.t.t.t.t.t.t.1 ; t.t.t.t.t.t.t.t.t.t.t.t.t.t.% ; t.t.t.t.t.t.t.t.t.t.t.t.t.t.; O t.t.t.t.t.t.t.t.t.t.t.t.t.t.O 1 t.t.t.t.t.t.t.",
"t.t.t.t.t.t.t.% % t.t.t.t.t.t.t.t.t.t.t.t.t.t.% ; t.t.t.t.t.t.t.t.t.t.t.t.t.t.1 ; t.t.t.t.t.t.t.t.t.t.t.t.t.t.; 7 t.t.t.t.t.t.t.",
"t.t.t.t.t.t.t.1 8 t.t.t.t.t.t.t.t.t.t.t.t.t.t.v 1 t.t.t.t.t.t.t.t.t.t.t.t.t.t.8 ; t.t.t.t.t.t.t.t.t.t.t.t.t.t.; ; t.t.t.t.t.t.t.",
"t.t.t.t.t.t.t.8 1 t.t.t.t.t.t.t.t.t.t.t.t.t.t.B ; t.t.t.t.t.t.t.t.t.t.t.t.t.t.7 7 t.t.t.t.t.t.t.t.t.t.t.t.t.t.; ; t.t.t.t.t.t.t.",
"t.t.t.t.t.t.t.; % t.t.t.t.t.t.t.t.t.t.t.t.t.t.; & t.t.t.t.t.t.t.t.t.t.t.t.t.t.% X t.t.t.t.t.t.t.t.t.t.t.t.t.t.; % t.t.t.t.t.t.t.",
"t.t.t.t.t.t.t.8 v t.t.t.t.t.t.t.t.t.t.t.t.t.t.7 % t.t.t.t.t.t.t.t.t.t.t.t.t.t.1 $ t.t.t.t.t.t.t.t.t.t.t.t.t.t.1 % t.t.t.t.t.t.t.",
"8 . O 1 X . 7 v 7 ; % ; 7 ; 7 P 3 1 1 O ; ! 1 7 X % 7 7 ; . % ; $ X ; S 1 % 7 * 1 1 o.o.! 1 % ; 7 % ; ; % . o ; 7 1 S 7 % X ; X "
};
