/* XPM */
static char *coffee_3[] = {
	"48 48 7 1",
	"  c none",
	"g c #CCCCCC",
	"0 c #3d3d3d",
	"B c #83b7e9",
	"b c #c3d6ea",
	"C c #8d6043",
	"c c #d1c7bd",
	"                                                ",
	"                                                ",
	"                                                ",
	"                                                ",
	"                        gg    gg                ",
	"                        gg    gg                ",
	"                        gg    gg                ",
	"                        gg    gg                ",
	"                       gg    gg                 ",
	"                       gg    gg                 ",
	"                       gg    gg                 ",
	"                       gg    gg                 ",
	"                      gg    gg                  ",
	"                                                ",
	"                                                ",
	"                  000000000000                  ",
	"              0000BBBBBBBBBBBB0000              ",
	"            00BBBB000000000000BBBB00            ",
	"           0BBB000CCCCCCCCCCCC000BBB0           ",
	"          0BB00CCCCcccccccccCCCCC00BB0          ",
	"         0BB0CCCCCCCcCCCCCCCCCCCCCC0BB0         ",
	"         0B0CCCCCCCcCCCCccccccccCCCC0B0 00000   ",
	"         0B0CCCCCCCcCCCcCCCCCCCCcCCC0B00BBBBB0  ",
	"         0BB0CCCCCCcCCCCccccCCCCcCC0BB0BBBBBBB0 ",
	"          0BB00CCCCCccCCCCCCCCccC00BB0BBB00BBB0 ",
	"          0BBBB000CCccccccccCC000BBBB0B00  0BB0 ",
	"          0BBBBBBB000000000000BBBBBBB00    0bB0 ",
	"          0BbbBBBBBBBBBBBBBBBBBBBBbbB0     0bb0 ",
	"        000bbbBBBBBBBBBBBBBBBBBBBBbbb000  0bbb0 ",
	"      00bb0bbbbBBBBBBBBBBBBBBBBBBbbbb0bb0 0bb0  ",
	"    00bbbbb0bbbbBBBbbBBBBBBbbBBBbbbb0bbbb0bbb0  ",
	"   0bbbbbbb0bbbbbbbbbbBBBBbbbbbbbbbb0b000bbb0   ",
	"  0bbbbbbbb0bbbbbbbbbbbbbbbbbbbbbbbb00bbbb00b0  ",
	" 0bbbbbbbbbb0bbbbbbbbbbbbbbbbbbbbbb0bbbb00bbbb0 ",
	" 0bbbbbbbb000bbbbbbbbbbbbbbbbbbbbbb00000bbbbbb0 ",
	"0bbbbbbbb0CcC0bbbbbbbbbbbbbbbbbbbb0CC0bbbbbbbbb0",
	"0bbbbbbb0C0CC0bbbbbbbbbbbbbbbbbbbb0CCC0bbbbbbbb0",
	"0bbbbbbb0cC00C0bbbbbbbbbbbbbbbbbb0C0cC0bbbbbbbb0",
	" 0bbbbbb0C0CcCC0bbbbbbbbbbbbbbbb0CcC00bbbbbbbb0 ",
	" 0bbbbbbb0c0C00C00bbbbbbbbbbbb00C0C0C0bbbbbbbb0 ",
	"  0bbbbbb0CC0CcCcC000bbbbbb000C0Cc0CC00bbbbbb0  ",
	"   0bbbbbb000CCC000CC000000C0CCC0CC00bbbbbbb0   ",
	"    0bbbbbbbb000cC0cC0CCcC0CC0cCC00bbbbbbbb0    ",
	"     00bbbbbbbb0CC0CC0cC00CcCC000bbbbbbbb00     ",
	"       00bbbbbbb00b00b00bb0000bbbbbbbbb00       ",
	"         00bbbbbbbbbbbbbbbbbbbbbbbbbb00         ",
	"           0000bbbbbbbbbbbbbbbbbb0000           ",
	"               000000000000000000               "
};
