/* XPM */
static const char *colom[] = {
/* columns rows colors chars-per-pixel */
"64 64 216 2 ",
"   c #030203",
".  c #0C0907",
"X  c #120202",
"o  c #1B0303",
"O  c #110E06",
"+  c #140E0A",
"@  c #1C0D08",
"#  c #16080B",
"$  c #16120B",
"%  c #050613",
"&  c #080B13",
"*  c #070914",
"=  c #130B14",
"-  c #150D1E",
";  c #151318",
":  c #1C151B",
">  c #1A1613",
",  c #220C06",
"<  c #210D0A",
"1  c #2A0807",
"2  c #29170D",
"3  c #33190D",
"4  c #241C11",
"5  c #291C1A",
"6  c #2A1C15",
"7  c #351916",
"8  c #300E0B",
"9  c #2B2419",
"0  c #2B2517",
"q  c #332319",
"w  c #31291B",
"e  c #151522",
"r  c #151726",
"t  c #0D1024",
"y  c #241E28",
"u  c #2F2B24",
"i  c #332821",
"p  c #343435",
"a  c #383737",
"s  c #383837",
"d  c #38332C",
"f  c #780203",
"g  c #6B0502",
"h  c #423525",
"j  c #493A25",
"k  c #554325",
"l  c #514229",
"z  c #765624",
"x  c #424343",
"c  c #484A4B",
"v  c #5C4E4A",
"b  c #5E504E",
"n  c #4F5555",
"m  c #535454",
"M  c #595A5A",
"N  c #565659",
"B  c #4F4F50",
"V  c #645B50",
"C  c #71706F",
"Z  c #717070",
"A  c #7C7977",
"S  c #726F70",
"D  c #870204",
"F  c #940000",
"G  c #990102",
"H  c #9A1213",
"J  c #961514",
"K  c #811414",
"L  c #AB0405",
"P  c #B30303",
"I  c #BA0608",
"U  c #B30911",
"Y  c #BC1413",
"T  c #AA1F1E",
"R  c #9B221D",
"E  c #982526",
"W  c #96393B",
"Q  c #882629",
"!  c #BF2728",
"~  c #A03A3A",
"^  c #C20303",
"/  c #CC0303",
"(  c #CE0B0B",
")  c #D60000",
"_  c #DA0000",
"`  c #D20A0B",
"'  c #D80F0F",
"]  c #C60711",
"[  c #C90711",
"{  c #D80F10",
"}  c #C81718",
"|  c #D71010",
" . c #C0100E",
".. c #E10101",
"X. c #D01F22",
"o. c #C42626",
"O. c #8E5F17",
"+. c #9A6219",
"@. c #A5691C",
"#. c #AD721B",
"$. c #B3771C",
"%. c #9A6A2B",
"&. c #AE7222",
"*. c #B17624",
"=. c #BB7B23",
"-. c #A46C27",
";. c #C07F22",
":. c #8A7A78",
">. c #857977",
",. c #907F7F",
"<. c #BC8525",
"1. c #B99628",
"2. c #C69D1E",
"3. c #CD851C",
"4. c #DCAF1E",
"5. c #DCB11D",
"6. c #D6B21F",
"7. c #EBBC1D",
"8. c #E4B91E",
"9. c #F1BF1D",
"0. c #C38E3F",
"q. c #CC943F",
"w. c #D99A3D",
"e. c #D3983F",
"r. c #CC9025",
"t. c #CCA624",
"y. c #C9A628",
"u. c #D7AE24",
"i. c #D9AC24",
"p. c #D0A729",
"a. c #DCB122",
"s. c #DCB52E",
"d. c #D9B627",
"f. c #CCA732",
"g. c #D2AB33",
"h. c #E2B92E",
"j. c #E7B922",
"k. c #E2B730",
"l. c #EFC11D",
"z. c #F1C01D",
"x. c #F8C41E",
"c. c #F1C320",
"v. c #BC8B41",
"b. c #BC8658",
"n. c #8D847E",
"m. c #C58E42",
"M. c #CC9442",
"N. c #C79142",
"B. c #D19642",
"V. c #D49A42",
"C. c #D99B44",
"Z. c #DD9D4B",
"A. c #D29648",
"S. c #C98F58",
"D. c #CA9157",
"F. c #DC9D5B",
"G. c #D89C57",
"H. c #DFA15C",
"J. c #0C2E89",
"K. c #193786",
"L. c #103393",
"P. c #223D92",
"I. c #143BA1",
"U. c #344D98",
"Y. c #1D49A9",
"T. c #1F4AB4",
"R. c #1E4CBC",
"E. c #1946B0",
"W. c #1E50B8",
"Q. c #2249AA",
"!. c #2A49AA",
"~. c #3353AB",
"^. c #224DB5",
"/. c #214CBB",
"(. c #344DBA",
"). c #324DB6",
"_. c #2A53B6",
"`. c #345ABA",
"'. c #3359BA",
"]. c #304DA8",
"[. c #3961BC",
"{. c #7D7F89",
"}. c #1F4DC0",
"|. c #254EC5",
" X c #2553C6",
".X c #2453CB",
"XX c #2954C9",
"oX c #2354D2",
"OX c #2456D0",
"+X c #3357C0",
"@X c #917F81",
"#X c #7F828A",
"$X c #838383",
"%X c #8C8281",
"&X c #8C8F97",
"*X c #8D929B",
"=X c #948181",
"-X c #A89E9C",
";X c #B19C9D",
":X c #A1A19C",
">X c #8D94A2",
",X c #9898A5",
"<X c #A2A0A2",
"1X c #DCB3AE",
"2X c #CEB9B9",
"3X c #D9B8B7",
"4X c #DCBCC0",
"5X c #D6CFD1",
"6X c #D8D8D9",
"7X c #E7EAEA",
"8X c #EDEDED",
"9X c #E7E7E8",
"0X c #F6E5E5",
"qX c #FAE5E5",
"wX c #FAF9F6",
"eX c #FBFAF9",
/* pixels */
"  O O O O O O O O O O O O O O O O O O O O O O O O O O O O O O O O O O O O O O O O O O O O O O O O O O O O O O O O O O O O O O   ",
"O y.a.i.i.i.i.u.u.i.i.i.i.i.i.i.i.i.i.i.i.i.i.i.i.i.i.i.i.i.i.i.i.i.i.i.i.i.i.i.i.i.i.i.i.i.i.i.i.i.i.i.i.i.i.i.i.i.i.i.i.a.y.O ",
"O a.x.9.9.9.l.z.z.9.z.l.l.l.l.z.z.9.l.l.l.l.l.z.z.9.l.l.l.l.l.z.z.9.z.l.l.l.l.z.z.9.l.l.l.l.l.z.z.9.l.l.l.l.l.z.z.9.l.l.l.x.a.O ",
"O i.z.7.7.7.7.7.7.7.7.7.7.7.7.7.7.7.7.7.7.7.7.7.7.7.7.7.7.7.7.7.7.7.7.7.7.7.7.7.7.7.7.7.7.7.7.7.7.7.7.7.7.7.7.7.7.7.7.7.8.l.i.O ",
"O i.z.7.7.7.7.7.7.7.7.7.7.7.7.7.7.7.7.7.7.7.7.7.7.7.7.7.7.7.7.7.7.7.7.7.7.7.7.7.7.7.7.7.7.7.7.7.7.7.7.7.7.7.7.7.7.7.7.7.7.l.u.O ",
"O i.z.7.7.7.7.7.7.7.7.7.7.7.7.7.7.7.7.7.7.7.7.7.7.7.7.7.7.7.7.7.7.7.7.7.7.7.7.7.7.7.7.7.7.7.7.7.7.7.7.7.7.7.7.7.7.7.7.7.7.l.u.O ",
"O i.z.7.7.7.7.7.7.7.7.7.7.7.7.7.7.7.7.7.7.7.7.7.7.7.7.7.7.7.7.7.7.7.7.7.7.7.7.7.7.7.7.7.7.7.7.7.7.7.7.7.7.7.7.7.7.7.7.7.7.l.i.O ",
"O u.9.7.7.7.7.7.7.7.7.7.7.7.7.7.7.7.7.7.7.7.7.7.7.7.7.7.7.7.7.7.7.7.7.7.7.7.7.7.7.7.7.7.7.7.7.7.7.7.7.7.7.7.7.7.7.7.7.7.7.l.u.O ",
"O u.9.7.7.7.7.7.7.7.7.7.7.7.7.7.7.7.7.7.7.7.7.7.7.7.7.7.7.7.7.7.7.7.7.7.7.7.7.7.7.7.7.7.7.7.7.7.7.7.7.7.7.7.7.7.7.7.7.7.7.l.u.O ",
"O i.9.7.7.7.7.7.7.7.7.7.7.7.7.7.7.7.7.7.7.7.7.7.7.7.7.7.7.7.7.7.7.7.7.7.7.7.7.7.7.7.7.7.7.7.7.7.7.7.7.7.7.7.7.7.7.7.7.7.7.l.i.O ",
"O i.z.7.7.7.7.7.7.7.7.7.7.7.7.7.7.7.7.7.7.7.7.7.7.7.7.7.7.7.7.7.7.7.7.7.7.7.7.7.7.7.7.7.7.7.7.7.7.7.7.7.7.7.7.7.7.7.7.7.7.l.u.O ",
"O i.z.7.7.7.7.7.7.7.7.7.7.7.7.7.7.7.7.7.7.7.7.7.7.7.7.7.7.7.7.7.7.7.7.7.7.7.7.7.7.7.7.7.7.7.7.7.7.7.7.7.7.7.7.7.7.7.7.7.7.z.u.O ",
"O i.z.7.7.7.7.7.7.7.7.7.7.7.7.7.7.7.7.7.7.7.7.7.7.7.7.7.7.7.7.7.7.7.7.7.7.7.7.7.7.7.7.7.7.7.7.7.7.7.7.7.7.7.7.7.7.7.7.7.7.z.u.O ",
"O i.9.7.7.7.7.7.7.7.7.7.7.7.7.7.7.7.7.7.7.7.7.7.7.7.7.7.7.7.7.7.7.7.7.7.7.7.7.7.7.7.7.7.7.7.7.7.7.7.7.7.7.7.7.7.7.7.7.7.7.9.u.O ",
"O i.l.7.7.7.7.7.7.7.7.7.7.7.7.7.7.7.7.7.7.7.7.7.7.7.7.7.7.7.7.7.7.7.7.7.7.7.7.7.7.7.7.7.7.7.7.7.7.7.7.7.7.7.7.7.7.7.7.7.7.l.u.O ",
"O i.z.7.7.7.7.7.7.7.7.7.7.7.7.7.7.7.7.7.7.7.7.7.7.7.7.7.7.7.7.7.7.7.7.7.7.7.7.7.7.7.7.7.7.7.7.7.7.7.7.7.7.7.7.7.7.7.7.7.7.l.u.O ",
"O i.z.7.7.7.7.7.7.7.7.7.7.7.7.7.7.7.7.7.7.7.7.7.7.7.7.7.7.7.7.7.7.7.7.7.7.7.7.7.7.7.7.7.7.7.7.7.7.7.7.7.7.7.7.7.7.7.7.7.7.l.u.O ",
"O i.z.7.7.7.7.7.7.7.7.7.7.7.7.7.7.7.7.7.7.7.7.7.7.9.9.9.9.7.7.7.7.7.7.7.7.7.7.7.7.7.9.9.9.9.7.7.7.7.7.7.7.7.7.7.7.7.7.7.7.l.u.O ",
"O i.l.7.7.7.7.7.7.7.7.7.7.7.7.7.7.7.7.7.7.7.l.z.9.6.u.u.5.7.l.7.7.7.7.7.7.7.7.7.z.7.a.u.u.a.7.7.7.7.7.7.7.7.7.7.7.7.7.7.7.l.i.O ",
"O i.z.7.7.7.7.7.7.7.7.7.7.7.7.7.7.7.7.7.7.u.u.a.t.3 , , 3 y.5.7.7.7.7.7.7.7.7.7.5.t.3 , , 3 t.z.7.7.7.7.7.7.7.7.7.7.7.7.7.l.u.O ",
"O i.z.7.7.7.7.7.7.7.7.7.7.7.7.7.7.7.7.7.t.4 + $ 2 L ^ ^ I 1 9 t.z.7.7.7.7.7.z.p.9 1 I ^ ^ P 3 t.7.7.7.7.7.7.7.7.7.7.7.7.7.l.u.O ",
"O i.9.7.7.7.7.7.7.7.7.7.7.7.7.7.7.7.7.u.4 x p p c 1 / .._ o.5Xw 2.z.7.7.7.z.2.i 5X! _ _ _ ) D 2 a.9.7.7.7.7.7.7.7.7.7.7.7.l.i.O ",
"O i.l.7.7.7.7.7.7.7.7.7.7.7.7.7.7.7.7.u.$ p a a p # ^ _ X.qX8Xm w y.7.7.7.p.w B 8XqXo._ ) P G @ u.9.7.7.7.7.7.7.7.7.7.7.7.l.u.O ",
"O i.z.7.7.7.7.7.7.7.7.7.7.7.7.7.7.7.z.u.$ c a a B # I X.0X7XC 8X6X0 4.x.u.q 6X8XS 7XqX} / L G @ u.9.7.7.7.7.7.7.7.7.7.7.7.z.u.O ",
"O i.z.7.7.7.7.7.7.7.7.7.7.7.7.7.7.7.7.a.4 p s p p o R qX7XZ 9XeX*X; y.z.y.: *XeX9XZ 7X0XT L D 2 a.7.7.7.7.7.7.7.7.7.7.7.7.z.u.O ",
"O i.9.7.7.7.7.7.7.7.7.7.7.7.7.7.7.7.7.7.t.$ x p X E 0X7XZ 7XwX>X'.Q.5 t.9 Y.+X>XwX9XZ 7X0XE , t.7.7.7.7.7.7.7.7.7.7.7.7.7.z.u.O ",
"O i.l.7.7.7.7.7.7.7.7.7.7.7.7.7.7.7.7.z.a.$ m x = 5X8XC 9XwX>X'.OX/.> 2.: /.OX'.>XwX9XZ 8X5Xq 5.z.7.7.7.7.7.7.7.7.7.7.7.7.l.u.O ",
"O i.z.7.7.7.7.7.7.7.7.7.7.7.7.7.7.7.7.9.i.$ n a   : m 8XeX>X_.|.OXR.> t.: R.XX X_.*XeX8Xm i p.l.7.7.7.7.7.7.7.7.7.7.7.7.7.l.u.O ",
"O i.z.7.7.7.7.7.7.7.7.7.7.7.7.7.7.7.7.9.u.$ x p $ 1.w 6X&XP.I.I..X!.4 1.5 !.XXI.L.K.&X6Xi 2.z.7.7.7.7.7.7.7.7.7.7.7.7.7.7.l.u.O ",
"O i.9.7.7.7.7.7.7.7.7.7.7.7.7.7.7.7.7.7.u.$ m x $ j.p.9 ; J.J.J.K.%.#.q #.%.K.J.J.J.; 9 p.c.j.j.7.7.7.7.7.7.7.7.7.7.7.7.8.l.u.O ",
"O i.z.7.7.7.7.7.7.7.7.7.7.7.7.7.7.7.7.z.4.$ m p O a.x.5.t.4 + $ > +.3.=.#.O.4 $ $ 4 t.8.z.l.7.7.7.7.7.7.7.7.7.7.7.7.7.7.7.z.i.O ",
"O f.h.s.s.s.s.s.s.s.s.s.s.s.s.s.s.s.s.h.f.$ x p O f.k.h.d.f.f.g.1.6 @.3.$.0 1.g.f.f.k.k.s.s.s.s.s.s.s.s.s.s.s.s.s.s.s.s.s.h.f.O ",
"% ~.`.'.'.'.'.'.'.'.'.'.'.'.'.'.'.'.'.`.~.& m x & ~.`.'.'.`.[.U.q &.#.+.3.$.q U.`.`.`.`.`.'.`.`.`.`.`.`.'.'.'.'.'.'.'.'.'.`.~.% ",
"% /.oX.X.X.X.X.X.X.X.X.X.X.X.X.X.X.XoXoXE.& x p & |.oXoXoX|.E.t %.@.O.6 +.3.-.r /. X XXX XXXR.R.}.oX.X.X.X.X.X.X.X.X.X.X.XoXR.% ",
"% ^..XXXXXXX.X.X X X.XXXXXXX X X X X/.Q.e . m x & Q./.|.^.- # X < o 2 A b n.V >.N #XN #XN {.: # - !. X X X X X X.X.X.X.X X.X^.% ",
"% ^..XXX.XXX.X.X.X.X.X.XXXXX.X.X.XQ.e 5 b.> B s   = = % # f D D I ^  .;XM ,XM <XM :XM -XM ;X .^ P - /..XXXXX XXX.X.X.X.XXX.X^.% ",
"% ^..XXXXX.X.X.X.X.XXXXX.X.X.X.XY.y S.H.F.4 x p > v.*.@ g J F G ) _ ' @Xm $Xm $Xm $Xm $Xm =X` _ } = T..XXXXX.X.X.X.XXXXX.X.X^.% ",
"% ^..XXX.X.X.X.X.XXXXXXX.X.X.XR.e S.Z.C.C.v.V v v.V.r.&.6 2XE F / _ ` @Xm $Xm $Xm $Xm $Xm ,.( | 3Xe T..XXX.X.X.X.X.XXXXX.X.X^.% ",
"% ^..X XXXXXXX.X.X.XXXXX.X.X.XT.; F.C.V.V.C.M.M.e.V.w.=.# W 3XH / _ ( ,.m $Xm $Xm $Xm $Xm ,.` _ ! = T..XXXXX.X.X.XXXXXXX.X.X^.% ",
"% ^..X.XXXXX.X.X.X.XXXXXXX.X.XT.; F.C.V.V.M.M.q.V.V.C.=.> 2X~ G ) _ ( ,.m $Xm $Xm $Xm $Xm ,.( ' 1Xe T..X.X.X.X.X.X.XXXXX.X.X^.% ",
"% ^..X.X.X.X.X.X.X.X.X.X.X.X.XR.e D.Z.V.0.k j k m.e.V.*., W 3XH / _ ( ,.m $Xm $Xm $Xm $Xm ,.` _ o.= ^..XXXXX.X.X.X.X.X.X.X.X^.% ",
"% ^..XXX.XXX.X.X.X.X.XXX.X.X.X XY.: G.A.k h h h l B.<., K 3XW G ) _ ( ,.m $Xm $Xm $Xm $Xm ,.` { 1Xe T..XXXXX.X.X.X.X.X.XXX.X^.% ",
"% ^..XXX.X.X.X.X.X.X.XXXXXXX.X.XY.: G.A.l d h h l M.<.< f ~ 3XH / _ ( @Xm $Xm $Xm $Xm $Xm ,.` _ o.= /.OXXXXXXX.X.X.XXX.XXX.X^.% ",
"% ^..X XXX.X.X.X.X.XXXXXXX.X.XQ.y D.Z.V.0.k j k m.V.V.*.q 2XW F ) _ ( ,.m $Xm $Xm $Xm $Xm ,.` { 1Xe T.OXXXXX.X.X.X.XXXXXXX.X^.% ",
"% ^..XXX.X.X.X.X.X.X.XXXXX.XR.r S.Z.V.V.C.M.M.M.C.V.V.w.&.u 2XH / _ ( :.m $Xm $Xm $Xm $Xm ,.( _ ! = R.OX.X.X.X.X.XXXXXXXXX.X^.% ",
"% ^..X X.X.XXXXXXXXXXXXXXX.XT.; F.C.V.V.M.M.q.q.q.M.V.V.;.@ Q G ) _ ( :.m $Xm $Xm $Xm $Xm ,.( { 3Xe T..XXXXXXX.XXXXXXXXXXX.X^.% ",
"% /.OX.X.X.X.X.X.X.X.X.X.XoXR.r S.Z.V.M.z z z z z z M.w.#.5 2XH / ) ( @Xm $Xm $Xm $Xm $Xm ,.( _ Y = R.oX.X.X.X.X.X.X.X.X.XoXW.% ",
"% ].(.).(.(.(.(.(.(.(.(.(.(.(.U.7 S.Z.C.B.B.q.B.M.q.w.&.< D J G ) _ ` @Xm $Xm $Xm $Xm $Xm ,.' ..^ # !.(.(.(.(.(.(.(.(.(.(.(.].% ",
"X U [ ] ] ] ] ] ] ] ] ] ] ] ] [ L 7 D.F.F.G.N.m.m.<.*.2 X f D D I ^ Y %Xn $Xm $Xm $Xm $Xn %XY ^ L 1 U [ ] ] ] ] ] ] ] ] ] [ U X ",
"X ^ _ ) _ _ _ _ _ _ _ _ _ _ _ _ _ P 8 < < < < < < @ 1 I I 1 o o 1 , 8 >.b :.b :.b :.b :.b >.8 o 1 I _ _ _ _ _ _ _ _ _ _ _ _ ^ X ",
"X ^ _ ) ) ) ) ) ) ) ) ) ) ) ) ) ) _ ^ ^ ^ ^ ^ ^ ^ ^ ^ _ _ ^ ^ ^ ^ ^ ^ ( / ( / ( / ( / ( / ( ^ ^ ^ _ ) ) ) ) ) ) ) ) ) ) ) _ ^ X ",
"X ^ _ ) ) ) ) ) ) ) ) ) ) ) ) ) ) ) _ _ _ _ _ _ _ _ _ ) ) _ _ _ _ _ _ _ _ _ _ _ _ _ _ _ _ _ _ _ _ ) ) ) ) ) ) ) ) ) ) ) ) _ ^ X ",
"X ^ _ ) ) ) ) ) ) ) ) ) ) ) ) ) ) ) ) ) ) ) ) ) ) ) ) ) ) ) ) ) ) ) ) ) ) ) ) ) ) ) ) ) ) ) ) ) ) ) ) ) ) ) ) ) ) ) ) ) ) _ ^ X ",
"X ^ _ ) ) ) ) ) ) ) ) ) ) ) ) ) ) ) ) ) ) ) ) ) ) ) ) ) ) ) ) ) ) ) ) ) ) ) ) ) ) ) ) ) ) ) ) ) ) ) ) ) ) ) ) ) ) ) ) ) ) _ ^ X ",
"X ^ _ ) ) ) ) ) ) ) ) ) ) ) ) ) ) ) ) ) ) ) ) ) ) ) ) ) ) ) ) ) ) ) ) ) ) ) ) ) ) ) ) ) ) ) ) ) ) ) ) ) ) ) ) ) ) ) ) ) ) _ ^ X ",
"X ^ _ ) ) ) ) ) ) ) ) ) ) ) ) ) ) ) ) ) ) ) ) ) ) ) ) ) ) ) ) ) ) ) ) ) ) ) ) ) ) ) ) ) ) ) ) ) ) ) ) ) ) ) ) ) ) ) ) ) ) _ ^ X ",
"X ^ _ ) ) ) ) ) ) ) ) ) ) ) ) ) ) ) ) ) ) ) ) ) ) ) ) ) ) ) ) ) ) ) ) ) ) ) ) ) ) ) ) ) ) ) ) ) ) ) ) ) ) ) ) ) ) ) ) ) ) _ ^ X ",
"X ^ _ ) ) ) ) ) ) ) ) ) ) ) ) ) ) ) ) ) ) ) ) ) ) ) ) ) ) ) ) ) ) ) ) ) ) ) ) ) ) ) ) ) ) ) ) ) ) ) ) ) ) ) ) ) ) ) ) ) ) _ ^ X ",
"X ^ _ ) ) ) ) ) ) ) ) ) ) ) ) ) ) ) ) ) ) ) ) ) ) ) ) ) ) ) ) ) ) ) ) ) ) ) ) ) ) ) ) ) ) ) ) ) ) ) ) ) ) ) ) ) ) ) ) ) ) _ ^ X ",
"X ^ _ ) ) ) ) ) ) ) ) ) ) ) ) ) ) ) ) ) ) ) ) ) ) ) ) ) ) ) ) ) ) ) ) ) ) ) ) ) ) ) ) ) ) ) ) ) ) ) ) ) ) ) ) ) ) ) ) ) ) _ ^ X ",
"X ^ _ ) ) ) ) ) ) ) ) ) ) ) ) ) ) ) ) ) ) ) ) ) ) ) ) ) ) ) ) ) ) ) ) ) ) ) ) ) ) ) ) ) ) ) ) ) ) ) ) ) ) ) ) ) ) ) ) ) ) _ ^ X ",
"X ^ _ _ _ _ _ _ _ _ _ _ _ _ _ _ _ _ _ _ _ _ _ _ _ _ _ _ _ _ _ _ _ _ _ _ _ _ _ _ _ _ _ _ _ _ _ _ _ _ _ _ _ _ _ _ _ _ _ _ _ ..^ X ",
"X L / ^ ^ ^ ^ ^ ^ ^ ^ ^ ^ ^ ^ ^ ^ ^ ^ ^ ^ ^ ^ ^ ^ ^ ^ ^ ^ ^ ^ ^ ^ ^ ^ ^ ^ ^ ^ ^ ^ ^ ^ ^ ^ ^ ^ ^ ^ ^ ^ ^ ^ ^ ^ ^ ^ ^ ^ ^ ^ ^ L X ",
"  X X X X X X X X X X X X X X X X X X X X X X X X X X X X X X X X X X X X X X X X X X X X X X X X X X X X X X X X X X X X X X   "
};
