/* XPM */
static const char *cool[] = {
/* columns rows colors chars-per-pixel */
"64 64 256 2 ",
"   c #1B1E24",
".  c #0F1C28",
"X  c #2F1E22",
"o  c #1D2629",
"O  c #1D2A2C",
"+  c #182526",
"@  c #1A3627",
"#  c #162636",
"$  c #1E2B31",
"%  c #1A2838",
"&  c #153535",
"*  c #232B2C",
"=  c #282527",
"-  c #372428",
";  c #25362C",
":  c #212D32",
">  c #242B35",
",  c #233234",
"<  c #26343C",
"1  c #29353D",
"2  c #29363B",
"3  c #373435",
"4  c #34362D",
"5  c #491B1D",
"6  c #501F1F",
"7  c #4F211E",
"8  c #4E1E21",
"9  c #461E23",
"0  c #501F21",
"q  c #492123",
"w  c #522222",
"e  c #562B25",
"r  c #493A2E",
"t  c #5A3E33",
"y  c #4E3630",
"u  c #6B3627",
"i  c #6C372C",
"p  c #194729",
"a  c #19582B",
"s  c #195630",
"d  c #29582D",
"f  c #36552D",
"g  c #285A32",
"h  c #395A35",
"j  c #314931",
"k  c #18682A",
"l  c #1B752C",
"z  c #1A7C2D",
"x  c #15772A",
"c  c #1A6A33",
"v  c #1C7332",
"b  c #1C7C32",
"n  c #1A7B33",
"m  c #08782D",
"M  c #25672D",
"N  c #23772C",
"B  c #276734",
"V  c #376738",
"C  c #257835",
"Z  c #377332",
"A  c #46492E",
"S  c #484832",
"D  c #594538",
"F  c #475738",
"G  c #565335",
"H  c #674639",
"J  c #754E37",
"K  c #45653A",
"L  c #507139",
"P  c #65653D",
"I  c #6F6F37",
"U  c #1A3045",
"Y  c #283742",
"T  c #2D3255",
"R  c #1B3B70",
"E  c #35754A",
"W  c #1B4777",
"Q  c #2E716F",
"!  c #2E5A56",
"~  c #5A4C43",
"^  c #495941",
"/  c #575944",
"(  c #595359",
")  c #4E4C50",
"_  c #674C42",
"`  c #695646",
"'  c #765746",
"]  c #675756",
"[  c #73524C",
"{  c #486A44",
"}  c #566546",
"|  c #4E754A",
" . c #696547",
".. c #746C4E",
"X. c #4D5570",
"o. c #506C78",
"O. c #797979",
"+. c #736F6B",
"@. c #734076",
"#. c #6B3751",
"$. c #9E3432",
"%. c #D02B31",
"&. c #E21D25",
"*. c #8F513A",
"=. c #B54C3C",
"-. c #937238",
";. c #A6783C",
":. c #D45E3B",
">. c #AD3554",
",. c #8F3B5B",
"<. c #CF3C4A",
"1. c #8A5447",
"2. c #AD4D4C",
"3. c #89644B",
"4. c #8F6C50",
"5. c #88706F",
"6. c #A96148",
"7. c #CD564E",
"8. c #1C832C",
"9. c #19872C",
"0. c #1D8633",
"q. c #198D31",
"w. c #228434",
"e. c #268937",
"r. c #358739",
"t. c #249338",
"y. c #2A8B2E",
"u. c #4D8C32",
"i. c #6C8F33",
"p. c #6DA62A",
"a. c #289943",
"s. c #348946",
"d. c #1F8C5A",
"f. c #4D8850",
"g. c #79904D",
"h. c #778575",
"j. c #69A059",
"k. c #8E8F31",
"l. c #B18D36",
"z. c #B0AD30",
"x. c #98AF27",
"c. c #C79632",
"v. c #D1B12E",
"b. c #EBB935",
"n. c #E8B32D",
"m. c #E9A62A",
"M. c #F1D31B",
"N. c #FBEC1A",
"B. c #D5CC2B",
"V. c #E8C727",
"C. c #EAD525",
"Z. c #EBC935",
"A. c #F0D12F",
"S. c #F8EB2A",
"D. c #FEF429",
"F. c #EBE337",
"G. c #F6E936",
"H. c #FEF838",
"J. c #CBC61F",
"K. c #918B4F",
"L. c #B3AD50",
"P. c #8E9078",
"I. c #A2AA60",
"U. c #D1B649",
"Y. c #D6A558",
"T. c #B7C86A",
"R. c #D5CC53",
"E. c #EBD24C",
"W. c #ECE445",
"Q. c #F1EA44",
"!. c #F8EF4A",
"~. c #DBC76C",
"^. c #F0E071",
"/. c #B3C51E",
"(. c #0B3D98",
"). c #053DAB",
"_. c #243B88",
"`. c #13459C",
"'. c #17499B",
"]. c #114A8E",
"[. c #2E5195",
"{. c #336994",
"}. c #0A42A4",
"|. c #1348A6",
" X c #0A48B6",
".X c #124CB5",
"XX c #124DB8",
"oX c #1455BE",
"OX c #1957B9",
"+X c #1354B3",
"@X c #2757A9",
"#X c #2258B4",
"$X c #384CA5",
"%X c #1A6CBD",
"&X c #1668BA",
"*X c #1867B3",
"=X c #2E6FB1",
"-X c #1A6F96",
";X c #465885",
":X c #4F7291",
">X c #4D75AE",
",X c #6B7E8D",
"<X c #0D55C4",
"1X c #1355C2",
"2X c #185BC3",
"3X c #0A4CC1",
"4X c #0D6AC6",
"5X c #186CC7",
"6X c #1A72C3",
"7X c #1672CA",
"8X c #1973CA",
"9X c #1875CB",
"0X c #1977D4",
"qX c #2678C6",
"wX c #2374D1",
"eX c #817D81",
"rX c #238DAA",
"tX c #598896",
"yX c #7B8984",
"uX c #5A83AE",
"iX c #7497B4",
"pX c #1B89DB",
"aX c #0D94DD",
"sX c #1293DD",
"dX c #169CD9",
"fX c #128DC9",
"gX c #2E87CA",
"hX c #1194E0",
"jX c #0992E2",
"kX c #27A4D9",
"lX c #4E8ECB",
"zX c #6EA5D4",
"xX c #62AAD4",
"cX c #858888",
"vX c #8E908F",
"bX c #96A6A6",
"nX c #DCB196",
"mX c #F8E58C",
"MX c #F9F1B0",
"NX c #E1D59C",
"BX c #8DB4CE",
"VX c #A9BAC9",
"CX c #B7C9CE",
"ZX c #B5D5EB",
"AX c #97DCE7",
"SX c #CACBC9",
"DX c #D8D9D4",
"FX c #D4D1CB",
"GX c #F2F2D2",
"HX c #D6EBF6",
"JX c #D3E5EE",
"KX c #E7F3F7",
"LX c #FCFEFD",
"PX c #F4FAF9",
"IX c #EBEFEB",
"UX c #D6D9DD",
/* pixels */
"+ # # # # # # # # # # # # # # # # # # # # # # # # # # # # # # # # # # # # # # # # # # # # # # # # # # % # # # # # # # # # # # + ",
"W 6X%X6X%X%X%X%X6X6X6X%X%X%X%X%X%X%X&X&X%X%X%X%X%X%X%X%X%X%X6X%X%X%X%X%X%X%X6X%X%X6X%X&X&X%X%X&X&X%X%X%X%X%X%X%X%X%X%X%X%X%X&XU ",
"W 0X9X9X8X8X7X4X4X6X6X6X6X6X6X7X9X7X7X7X7X8X7X8X7X7X7X7X7X9X9X7X4X4X4X4X9X9X9X9X9X7X7X6X8X7X4X7X4X4X6X6X6X5X6X6X6X6X6X6X4X7X6XU ",
"W 9X9X8X8X4XqXgXlXZXHXJXJXJXJXlX4X8X7X7X7X8X7X7X7X7X7X7X7X8X7XqXlXlXlXlXqX7X9X9X8X8X5X8X5XqXlXZXzXqXZXHXZXzXHXHXHXHXHXHXzX6X6XU ",
"W 0X7X9X4XgXHXPXMXmXmXmXGXLXLXHXgX7X8X7X7X7X7X8X8X7X7X7X8X8X&XZXLXPXPXLXBX7X9X8X6X8X8X8X4XxXLXLXMX~.mXmXmXmXmXmXmXmXmXmXGXZX&XU ",
"W qXqX%XqXJXGX^.Z.V.C.C.E.MXPXLXlX4X8X7X7X7X8X8X8X7X7X8X8X4XBXPXPXPXPXPXJXqX6X6X7X5X7X5X&XxXPXUXE.M.V.V.V.V.n.n.V.V.n.V.^.PXzX# ",
",XKXJXJXHXNXE.V.Z.Z.A.A.C.F.GXLXxX4X6X6X7X7X7X8X8X8X8X4X5X=XCXIXPXPXPXPXPXJXHXBXqXqXqXqX%XzXPXGXE.A.Z.V.V.A.A.b.b.b.b.b.n.~.IX) ",
"cXLXLXPXNXm.n.b.Z.b.Z.Z.Z.F.W.GXJX=XqX8X7X7X7X8X8X8X4X=XBXSXSXIXPXPXPXPXPXLXLXPXKXKXKXKXKXKXDXnXl.l.c.Z.b.c.l.n.n.n.b.b.b.m.~.) ",
"..nXnXY.m.b.A.A.Z.V.A.Z.E.W.F.W.GXKXZX8X7X7X8X8X8X4XgXCXFXFXDXIXPXKXIXIXIXJXJXIXPXPXLXLXPXIX5.7 8 9 e J J w 7 *.c.c.c.-.J J u = ",
"J m.c.m.v.;.l.z.G.F.F.W.W.Q.Q.F.!.NXlX5X8X8X9X7X5X=XVXFXSXFXSXVXKXIXUXDXDXDXFXDXIXPXPXLXSXe e 0 w w 8 9 5 w 7 8 w e w 8 5 5 5 X ",
"I b.m.l.G < % , k.!.Q.W.Q.W.W.W.Q.W.tX6X4X4X4X6XiXSXFXSXSXDXBX(.uXJXIXiX>XiXDXDXIXPXLXbXt 5 0 0 0 0 w w 7 6 0 w w q - q w w w X ",
"J c.G : $ Y Y 1 < k.Z.!.W.W.W.Q.Q.Q.Q.T.yXT.bXCXFXFXSXSXFXbX[.'.(.{.BX#X).#X>X>XlXUXP.5 5 w 8 0 0 8 8 8 0 6 6 w - * * * - 8 q X ",
"4 3 O : , 1 Y Y Y % j z.H.G.W.Q.Q.H.H.H.R.:XuX>XbXCXSXSXFX>X(.'.'.(.(..XOX.X X X X[.9 6 w 8 8 8 w 8 8 w 8 8 8 q = O o o * - q = ",
"o $ , : : 1 1 Y Y Y % h z.G.!.G.Q.I.I.I.tX). X X|.'.VXDXDX>X(.`.`.`.`..XXX.XXX.X.X.X].T 8 8 0 8 7 7 w 0 0 0 q = * O o o o * - X ",
"* , : * : < 1 1 1 1 Y 1 % P z.!.yX X X X X.X.X.X.X|.>X>X>X[.`.`.`.`.`.|.XX.X.X.X.X.XXX|.T 8 6 w 6 0 8 8 - - - O O : * o o o =   ",
"o , : : * < 1 1 1 1 1 Y Y % < X.|..X.X.X.X.X.X.X.X|.(.(.(.`.`.`.`.`.`.|..XXX.X.X.X.X.X.X.X_.y 7 6 6 6 q * $ $ $ $ : $ O o o + + ",
"o : : : : 1 1 1 1 1 1 1 1 1 1 U T ].|..X.X.X.X.X.X|.'.'.'.`.`.`.`.`.`.`.|..XXX.X.XXXXXXXXXoX'.Y q 8 8 q * $ $ O $ : O o o o + + ",
"o : $ $ : < 1 1 1 1 1 1 1 1 1 1 2 Y T `.|.|..X|.|.|.`.`.`.`.`.`.`.`.`.`.`.|..X.XXXXXXX.XXX.X.XR > = = = O O O O O O * o o o + + ",
"o , : * : < 1 1 1 1 1 Y 1 1 1 1 1 2 1 Y Y R |.|.`.'.'.`.'.`.`.`.`.`.`.`.`.`.|..XXX.X.X.X.X.X|.R $ $ O O O o O $ O O * o o o o + ",
"o : * $ : < < 1 1 3 3 3 3 2 1 1 1 1 1 1 2 Y R ).).).).}.}.'.`.`.`.`.'.`.`.'.(.}..XXX X X X.XR $ : : $ O O O O $ : O O o o o o + ",
"o $ $ : : < < < < y u u u 3 < 2 1 1 1 1 1 2 Y o.o.o.o.o.{.}.|.'.`.).}.'.`.}.{.{.}. X[.:X'.R $ * O $ $ $ O O O $ : * $ O o o o + ",
"o : : : : < < < < 4 u i u u u r < 1 1 1 1 1 < I S.D.S.S.S.I.`.}.'.o.Q `.(.h.G.F.g.o.G.B.4 o O O O O $ $ $ $ O $ O O O O O o o + ",
"o : : : : < < < < , 3 u u u u u 3 < 1 1 1 1 1 % F z.D.S.S.D.I.[.L.D.D.h.o.D.S.S.D.S.k.4 + * O O O O O O $ $ O O O O O O o o o + ",
"o $ $ : : < < < < < < y u u u u y 3 2 1 1 1 1 1 % 2 z.S.S.S.G.G.S.S.S.S.S.S.S.D.F.i.. + o o O O O O O o O O O O O O O @ @ @ o + ",
"o : $ $ : < < < < < < 2 y u u u u u 3 < 1 1 1 1 1 1 % k.H.D.G.S.G.S.D.D.S.D.S.k.; + * o o o o O O O O O O o @ @ @ @ a k k p @ + ",
"o , @ @ ; ; 2 < < < < < 3 y e u u u r 3 3 < 1 1 1 1 1 > I v.G.F.F.F.k.G B.J.P + O : O O O O O O o O O O @ a x 8.8.8.8.0.8.z k @ ",
"o O p k l 8.k @ , , < < < < < 4 e e e e e 3 3 < 1 1 1 < % : F h h j + @ V p p p p p p p p p p @ @ @ @ p M t.q.q.q.w.w.w.8.8.l @ ",
"@ p a z 0.t.t.C s p , < < 1 1 , - q w w w e e < < 1 j j j j & s s s s c k c k l C C C C C C C C C C C w.t.t.t.0.0.0.0.8.z x k @ ",
"@ k k x z 0.t.t.t.0.g 2 , < < < < < - q q 8 q > : : s v v C w.t.t.t.0.l l l l z 8.8.0.w.w.w.0.0.0.0.0.0.0.0.q.0.8.8.8.8.l k k @ ",
"p k k x l z 0.t.t.t.w.B p , < < < 1 < 3 - q - - - - - p v v b 0.e.e.w.b l v v b b b 0.w.w.w.w.0.9.9.8.8.8.8.8.9.9.8.8.8.l k k @ ",
"p k k x l z 8.0.0.w.w.b k ; , , , , , < , , ; * = - - ; s s s c 0.w.b v c c c v n n z n 8.8.n n z 9.8.8.9.8.z z z l l l k k a @ ",
"@ k k x x z z 9.z C v v l a p p p s s p s k k a a a p , : @ @ s c C C c c c v v b b n n x z v v x z z 8.9.8.n n b l l x k k a @ ",
"@ k k x x x z 8.w.e.e.w.n k k k l l v l N N C C Z C C B g g h ^ ~ / / ^ V B v v v v v v v v v v B K { { { { { { { { { V M k a @ ",
"@ a k x x x z n 0.t.0.n v v k k c c v v B B { `  ./ / / / / / ` ` ` ] ] ~ ^ ^ V V V B B B B B B { +.+.+.+.+.+.+.+.+.5.+.G h g O ",
"; j a x x z 8.8.8.8.n v c c B h F ^ } L / ` ' ` / _ _ _ ] ] ( ( ( ( ] ] ] ..4.4.4.4... . .} ^ K } K.L.U.U.L.4.L.U.U.L...} / / * ",
"3 ~ d k z z 8.b b n l c V ^ ~ _ _ J ' ' ' ` ` ~ ~ ( X.X.'.+X#X#XOXOX#X@X@X{.I.R.R.R.U.L.K...} /  .V.S.S.S.C.c.V.N.N.N.z. .' G * ",
"j / / ^ ^ V b b b b h F ~ _ ` ' J J ` ( ] ] ] ` X.#X2X6XzXzXqX<X1X1X1X1X1X<XOXT.E.R.R.R.R.L. .} ' c.C.S.S.S.S.C.v.v.B.l.[ ` ~ = ",
"j  . .} G G F F F ^ ~ ~ _ ` ] ( ( ( ( X.@X@X@X@X#X2X4XgXPXLXxXfX2XoXoXoXoXoX<X@XI.E.E.E.R.g.s.| ] [ 4.v.F.Z.A.;.H 1.4.4.4.4.^ * ",
"D 4.4. .L G ~ _ ~ / K E E E E Q OXOXOXoX1X<X<X1X<X@.>.>.<.<.>.>.,.1XoXoX1XoXoXoXOXtXT.L.i.r.e.s.s.| _ [ ' ' [ H J *.J 1.4.g.C @ ",
"D 4.3. .` ` ` ` H F V V Z Z r.s.Q @X1XoXoXoXoXoX1X@X$X$X$X$X$X$X$XoXoX1X1X1XoXoX1X3X{.X.X.X.( / } } H i t J ' H 1.1.H H _ F B @ ",
"r ' J ' 3.3.3.3.3.' ` ] ] ] X.[.{.[.oXoXoXoXoXoX1X<X<X<X<X<X<X<X1XoXoXoX3X X XoXoXoX1X1X2X2X#X$Xo.+.+.+.O.O.yXcXcXcXcXO.{ B B O ",
"3 ( ) ] 5.5.5.5.5.5.:X#X#X#XoX1X1X1X1X1X1X1X1XoXoXoXoXoXoXoXoXoXoX3X3X3XuXbXiX=X<XoXOX1X2X2X*X-XQ +.yXyXvXvXvXvX5.5.vXcXf.C c @ ",
"Y {.{.{.{.{.{.{.{.{.=X*X*X*X@X@X@X*X*X*X*X*XOX1XoXoXoXoXoXoXoXoX1X:XP.I.^.MXMXSX=X<X2XOX-Xd.a.a.f.+.O.O.vXvXcX[ $.2.cXyX| C c @ ",
"4  . .s.a.a.a.a.a.a.a.a.a.a.a.a.a.a.a.a.a.a.Q -XOX1XoXoX1XoXoX1X#X~.E.E.E.^.MXMXCX=X{.f.f.f.f.f.O.O.eXcXvXvXO._ $.2.cXyX| C c @ ",
"j I 3.L V K K K K K F F K F K { { { { { { { { { [.1XoXoXoXoXoX1X#XU.E.U.b.E.^.GXGXL.K...3.3.4.4._ [ 1.+.cXvXcX[ $.=.vXcX| B c @ ",
"a I 7.;.| / ~ ~ ~ ~ H H H H H H H G ~ / { } { L X.oXoXoX1XoXoXoXoX,XZ.G.E.^.mXMX~.K.4.3.........J i i ] vXvX+.i $.1.cXcX| B g @ ",
"p N ' 2. .| P X.OX[.X.X.( ( ( ( ) ~ G ^ / / } X.@X5X2X2X2X2X2X2X2X<X:XR.E.^.~.L.g.` ` ^ E s.E { } / H ] O.,XO.5.5.P.P.O.{ c g O ",
"j L r.E / ' ' ] X.X.;X;X[.OX#X#XOX;XX.X.;XX.;X5X5X5X5X5X5X5X5X5X5X5X&Xh.~.~.nXf.V } / V C r.e.s.| f.{ +.,XcXO.cXyXO.O.+.i.u.v @ ",
"r *.L u.p.I P P P J *.=.1.@X5X5X5X5XwXwXwXwXwXwXwX0X0X0X0XwXwX0X0XwXbXCXFXnXFXbXs.s.K *.P C r.C C r.s.E h.h.K.+.| g.f. .m.B.r.@ ",
"p k Z z.M.x.C r.r.} 2.<.6.} o.=X0X0X0XpXpXpXpXpXpXpXpXpXpXpXpXpXgXI.mXKX7.%.&.nXT.|  .=.2.| i.3.L N e.w.L v.C.i.-.M.z.K =.c.f.; ",
"a w.z I :.-.r.r.q.V $.<.3.u. .o.=X=X=X=XgXsXsXsXsXsXsXsXsXsXsXjXgXV.MXZX2.%.%.nX^.u.L I -.f...<.P e.w.e.i.n.M.p.P m.x.Z u.L r.; ",
"a q.m C L r.q.t.8.l V V u.s.i.k...' 3.3.:XsXsXsXsXaXsXaXaXaXsXjXfXvXnXbX2.&.%.5.I.e.q.Z L Z u.1.1.v v e.u.c.z.r.q.L Z e.L L C @ ",
"p Z u.u.9.m u.z.J.u.m l 9.t.l.M.x.}  .o.pXsXsXsXsXsXsXaXaXsXaXaXaXfXo.iX2.&.>.Q F b m G %.*.e.Z K N C w.r.L u.C N N z C J %. .@ ",
"p I V.N.u.9.u.M.N.p.m l l N *.:.l.....+.>XsXsXsXsXsXsXsXaXaXaXaXsXrX! W >.&.>.Q M u.p.k.<.6.N B B L z.J.u.b V V h C 0.y.J <.I @ ",
"p J :.v.y.m y.B.v.u.x d k 9.G *.3.' -.5.uXsXsXsXsXsXhXhXhXsXsXhXfXd.! R #.>.X.E u.k.N.B.=.J M H *.k.C.N.u.k B g d v n 9.L 2.P @ ",
"p V *.*.l 9.N ;.k.Z z f M B N r.| o.+.tXhXsXsXsXsXaXsXsXhXsXsXsXd.e.E W '.R ].k.J.i.M.x.B Z N J :.m.M.C.p.Z Z u.L h h N h h g @ ",
"p x M A M N N V M F z N f B l N s.rXaXjXjXjXjXjXjXkXHXZXsXsXsXrXw.e.E W '.T ].x.C...l.i.N V z L %.=.l.B.N./.x.N.V.i.B f V F F @ ",
"p x 8.F S d d M N A f f C x x N } K.I.I.I.P.P.cXgXxXAXAXkXhXhXrXn 0.c W '.T ].j.z.K D M h B x K $.J K k.M./.k.M.B.u.z M h L { ; ",
"p M *.G f f f M N h d M M N x N / -.;.;.;.;.;.;...rXaXdXdXdXaXfXd.d.! W '.T ].Q G V M f h g M G F B v L v.i.K ;.-.C B Z G ` P 4 ",
"@ A i i y t t S M S A f f f k h t t t t t H H ` 1.3.tXuX+.+.+.+.] Q ) r y y y D D f A f k g d j S l v S G N M g g k A D D i S @ ",
"p g j j f f S r A t f f S A M A t t t t H H ' 3.4.4.4.3.3.3.3.3.H r r r r r D H D S A f j f d d d k f A c x v g f M B N G H h + ",
"p v S f k N S H H D D D H D G H H H H J ' 1.3.3.4.4.4.4.3.3.4.4.3.3.' ' ' ' ' _ H t t D t t t A A f k A f k l S D F K P ' ' ' = ",
"p g r r d d D t D D D D D D H H _ _ _ ` ' ' ' ' ' ' ' ' ' ' ' ' ' ' _ _ _ _ _ _ _ H D D D D D y y d d r r d d S t D _ [ ` [ ` = ",
"                                                                        o           +                               + +         "
};
