/* XPM */
static const char *CrackOver[] = {
/* columns rows colors chars-per-pixel */
"64 64 111 2 ",
"   c #000000",
".  c #0B0B0B",
"X  c #131313",
"o  c #181817",
"O  c #1C1C1C",
"+  c #201F1F",
"@  c #242424",
"#  c #282827",
"$  c #2C2C2C",
"%  c #30302F",
"&  c #302F30",
"*  c #333333",
"=  c #383837",
"-  c #373738",
";  c #383738",
":  c #3B3B3B",
">  c #444444",
",  c #484747",
"<  c #484748",
"1  c #4C4C4C",
"2  c #50504F",
"3  c #504F50",
"4  c #4F5050",
"5  c #535353",
"6  c #5B5C5C",
"7  c #616363",
"8  c #636262",
"9  c #626162",
"0  c #646464",
"q  c #656564",
"w  c #666664",
"e  c #666665",
"r  c #616161",
"t  c #6A6969",
"y  c #696B69",
"u  c #6B6B69",
"i  c gray42",
"p  c #6B6B6D",
"a  c #6D6D6D",
"s  c #6E6E6D",
"d  c #6F6D6F",
"f  c #6D6E6E",
"g  c gray43",
"h  c #696B69",
"j  c #707072",
"k  c #707272",
"l  c #727272",
"z  c gray45",
"x  c #757573",
"c  c #757375",
"v  c #747474",
"b  c #747475",
"n  c gray46",
"m  c #767576",
"M  c #777577",
"N  c #767676",
"B  c #767776",
"V  c #777677",
"C  c #777777",
"Z  c #777777",
"A  c #787877",
"S  c #777779",
"D  c #787778",
"F  c #787678",
"G  c gray47",
"H  c #797979",
"J  c #7A7878",
"K  c #7A7A78",
"L  c #79797B",
"P  c #7A787A",
"I  c #7A7C7A",
"U  c #7C7C7C",
"Y  c #7E807E",
"T  c #848383",
"R  c #838385",
"E  c #838483",
"W  c #898987",
"Q  c #8A8888",
"!  c #8A8989",
"~  c #8A8A88",
"^  c #8B898B",
"/  c #888A8A",
"(  c #919391",
")  c #959595",
"_  c #979797",
"`  c #9A9A98",
"'  c #9E9C9C",
"]  c gray62",
"[  c #9E9D9E",
"{  c #A0A0A0",
"}  c gray63",
"|  c #A2A1A1",
" . c #A1A2A2",
".. c #A2A2A2",
"X. c gray67",
"o. c #ACACAE",
"O. c #ADADAF",
"+. c #AFAFAE",
"@. c #AEB0B0",
"#. c #B0B2B2",
"$. c #B4B4B2",
"%. c #B5B7B5",
"&. c #B4B6B6",
"*. c #B4B4B4",
"=. c #BABABC",
"-. c gray75",
";. c #CDCDCB",
":. c gray80",
">. c #CDCDCD",
",. c None",
"<. c black",
/* pixels */
",.,.,.,.,.,.,.,.,.,.,.,.,.,.,.,.,.,.,.,.,.,.,.,.,.,.,.,.,.,.,.,.,.,.,.,.,.,.,.,.,.,.,.,.,.,.,.,.,.,.,.,.,.,.,.,.,.,.,.,.,.,.,.,.",
",.,.,.,.,.,.,.,.,.,.,.,.,.,.,.,.,.,.,.,.,.,.,.,.,.,.,.,.,.,.,.,.,.,.,.,.,.,.,.,.,.,.,.,.,.,.,.,.,.,.,.,.,.,.,.,.,.,.,.,.,.,.,.,.",
",.,.,.,.,.,.,.,.,.,.,.,.,.,.,.,.,.,.,.,.,.,.,.,.,.,.,.,.,.,.,.,.,.,.,.,.,.,.,.,.,.,.,.,.,.,.,.,.,.,.,.,.,.,.,.,.,.,.,.,.,.,.,.,.",
",.,.,.,.,.,.,.,.,.,.,.,.,.,.,.,.,.,.,.,.,.,.,.,.,.,.,.,.,.,.,.,.,.,.,.,.,.,.,.,.,.,.,.,.,.,.,.,.,.,.,.,.,.,.,.,.,.,.,.,.,.,.,.,.",
",.,.,.,.,.,.,.,.,.,.,.,.,.,.,.,.,.,.,.,.,.,.,.,.,.,.,.,.,.,.,.,.,.,.,.,.,.,.,.,.,.,.,.,.,.,.,.,.,.,.,.,.,.,.,.,.,.,.,.,.,.,.,.,.",
",.,.,.,.,.,.,.,.,.,.,.,.,.,.,.,.,.,.,.,.,.,.,.,.,.,.,.,.,.,.,.,.,.,.,.,.,.,.,.,.,.,.,.,.,.,.,.,.,.,.,.,.,.,.,.,.,.,.,.,.,.,.,.,.",
",.,.,.,.,.,.,.,.,.,.,.,.,.,.,.,.,.,.,.,.,.,.,.,.,.,.,.,.,.,.,.,.,.,.,.,.,.,.,.,.,.,.,.,.,.,.,.,.,.,.,.,.,.,.,.,.,.,.,.,.,.,.,.,.",
",.,.,.,.,.,.,.,.  ,.,.,.,.,.,.,.,.,.,.,.,.,.,.,.,.,.,.,.,.,.,.,.,.,.,.,.,.,.,.,.  ; > * O ,.,.,.,.,.,.,.,.,.,.,.,.,.,.,.,.,.,.,.",
",.,.,.,.,.,.,.  @ ; ,.,.,.,.,.,.,.,.,.,.,.,.,.,.,.,.,.,.,.,.,.,.,.,.,.,.,.,.,.,.> 1 : $ ; ) ,.,.,.,.,.,.,.,.,.,.,.,.,.,.,.,.,.,.",
",.,.,.,.,.,.,.,.; > * ,.,.,.,.,.,.,.,.,.,.,.,.,.,.,.,.,.,.,.,.,.,.,.,.,.,.,.,.,.,.,.# X * +.,.,.,.,.,.,.,.,.,.,.,.,.,.,.,.,.,.,.",
",.,.,.,.,.,.,.,.,.* * * ,.,.,.,.,.,.,.,.,.,.,.,.,.,.,.,.,.,.,.,.,.,.,.,.,.,.,.,.,.,.    @ ,.,.,.,.,.,.,.,.,.,.,.,.,.,.,.,.,.,.,.",
",.,.,.,.,.,.,.,.,.,.* * * ,.,.,.,.,.,.  ,.,.,.,.,.,.,.,.,.,.,.,.,.,.,.,.,.,.,.,.,.,.,.X - ^ ,.,.,.,.,.,.,.,.,.,.,.,.,.  ,.,.,.,.",
",.,.,.,.,.,.,.,.,.,.,.* * * ,.,.,.,.  :  .,.,.,.,.,.,.,.,.,.,.,.,.,.,.,.,.,.,.,.,.,.,.$ > 5 ,.,.,.,.,.,.,.,.,.,.,.,.  >  .,.,.,.",
",.,.,.,.,.,.,.,.,.,.,.,.* * # ,.,.  > L ,.,.,.,.,.,.,.,.,.,.,.,.,.,.,.,.,.,.,.,.,.,.,.1 5 ; * ,.,.,.,.,.,.,.,.,.,.  : I ,.,.,.,.",
",.,.,.,.,.,.,.,.,.,.,.,.,.$ $ * @ - b ,.,.,.,.,.,.,.,.,.,.,.,.,.,.,.,.,.,.,.,.,.,.,.,.,.,.* $ .     ,.,.,.,.,.    * L ,.,.,.,.,.",
",.,.,.,.,.,.,.,.,.,.,.,.,.,.X O . 1 ,.,.,.,.,.,.,.,.,.,.,.,.,.,.,.,.,.,.,.,.,.,.,.,.,.,.,.,.. # 5 u , & $ $ $ : * a ,.,.,.,.,.,.",
",.,.,.,.,.,.,.,.,.,.,.,.,.,.  > ; %.,.,.,.,.,.,.,.,.,.,.,.,.,.,.,.,.,.,.,.,.,.,.,.,.,.,.,.,.  2 < 5 1 < 1 5 2 6 z >.,.,.,.,.,.,.",
",.,.,.,.,.,.,.,.,.,.,.,.,.,.  q 5 L ,.,.,.,.,.,.,.,.,.,.,.,.,.,.,.,.,.,.,.,.,.,.,.,.,.,.,.,.  q 5 6 r ,.,.,.,.,.,.,.,.,.,.,.,.,.",
",.,.,.,.,.,.,.,.,.,.,.,.,.,.  < > $       ,.,.,.,.,.,.,.,.,.,.,.,.,.,.,.,.,.,.,.,.,.,.,.,.,.  ; * < ,.,.,.,.,.,.,.,.,.,.,.,.,.,.",
",.,.,.,.,.,.,.,.,.,.,.,.,.,.  6 - X   o > r ,.,.,.,.,.  ,.,.,.,.,.,.,.,.,.,.,.,.,.,.,.,.,.,.  5 : 5 ,.,.,.,.,.,.,.,.,.,.,.,.,.,.",
",.,.,.,.,.,.,.,.,.,.,.,.,.,.O 5 $ @ X $ > 6 ,.,.,.,.  :  .,.,.,.,.,.,.,.,.,.,.,.,.,.,.,.,.,.o < ; 5 ,.,.,.,.,.,.,.,.,.,.,.,.,.,.",
",.,.,.,.,.,.,.,.,.,.,.,.,.  < 6 6 ` ( ^ 6 : * ,.,.  > L ,.,.,.,.,.,.,.,.,.,.,.,.,.,.,.,.,.  < > : : ; ,.,.,.,.,.,.,.,.,.,.,.,.,.",
",.,.,.,.,.,.,.,.,.,.,.,.  * A ,.,.,.,.,.,.- $ * # - b ,.,.,.,.,.,.,.,.,.,.,.,.,.,.,.,.,.  < 6 ,.,.> % o   ,.,.,.,.,.,.,.,.,.,.,.",
",.,.,.,.,.,.,.,.,.,.,.  . u ,.,.,.,.,.,.,.,.. O . 1 ,.,.,.,.,.,.,.,.,.,.,.,.,.,.,.,.,.  < 6 ,.,.,.,.# o $ : $ * ; ,.,.,.,.,.,.,.",
",.,.,.,.,.,.,.,.,.,.,.  * @.,.,.,.,.,.,.,.,.  > ; %.,.,.,.,.,.,.,.,.,.,.,.,.,.,.,.,.  < 6 ,.,.,.,.,.,.. O 5 6 r b ,.,.,.,.,.,.,.",
",.,.,.,.,.,.,.,.,.,.,.O 5 ,.,.,.,.,.,.,.,.,.  q 5 L ,.,.,.,.,.,.,.,.,.,.,.,.,.,.,.  > 6 ,.,.,.,.,.,.,.,.T #.,.,.,.,.,.,.,.,.,.,.",
",.,.,.,.,.,.,.,.,.,.,.# 5 ,.,.,.,.,.,.,.,.,.,.1 > *   ,.,.,.,.,.,.,.,.,.,.,.,.    * b ,.,.,.,.,.,.,.,.,.,.,.,.,.,.,.,.,.,.,.,.,.",
",.,.,.,.,.,.,.,.,.,.  : 6 ,.,.,.,.,.,.,.,.,.,.- $ X   X $ 1 ,.,.,.,.,.    O # : * a ,.,.,.,.,.,.,.,.,.,.,.,.,.,.,.,.,.,.,.,.,.,.",
",.,.,.,.,.,.,.,.,.,.o 1 x ,.,.,.,.,.,.,.,.,.,.O ; * @ * > 5 ,.,.,.,.  # > 1 5 6 z ;.,.,.,.,.,.,.,.,.,.,.,.,.,.,.,.,.,.,.,.,.,.,.",
",.,.,.,.,.,.,.,.,.  1 6 L ,.,.,.,.,.,.,.,.,.,.,.) X.,.^ 5 ; # ,.,.  * b a ,.,.,.,.,.,.,.,.,.,.,.,.,.,.,.,.,.,.,.,.,.,.,.,.,.,.,.",
",.,.,.,.,.,.,.,.  > 6 ,.,.,.,.,.,.,.,.,.,.,.,.,.,.,.,.,.,.# @ - $ $ z ,.,.,.,.,.,.,.,.,.,.,.,.,.,.,.,.,.,.,.,.,.,.,.,.,.,.,.,.,.",
",.,.,.,.,.,.,.  > S ,.,.,.,.,.,.,.,.,.,.,.,.,.,.,.,.,.,.,.,.* : $ 1 ,.,.,.,.,.,.,.,.,.,.,.,.,.,.,.,.,.,.,.,.,.  ,.,.,.,.,.,.,.,.",
",.,.,.,.,.,.,.,.] ,.,.,.,.,.,.,.,.,.,.,.,.,.,.,.,.,.,.,.,.,.> ; @ < ,.,.,.,.,.,.,.,.,.,.,.,.,.,.,.,.,.,.,.,.  :  .,.,.,.,.,.,.,.",
",.,.,.,.,.,.,.,.,.,.,.,.,.,.,.,.,.,.,.,.,.,.,.,.,.,.,.,.,.  1 > - > 1 ,.,.,.,.,.,.,.,.,.,.,.,.,.,.,.,.,.,.  : U ,.,.,.,.,.,.,.,.",
",.,.,.,.,.,.,.,.,.,.,.,.,.,.,.,.,.,.,.,.,.,.,.,.,.,.,.,.  < 6 ,.,.< - # ,.,.,.,.,.,.,.,.,.,.,.,.,.,.,.    * L ,.,.,.,.,.,.,.,.,.",
",.,.,.,.,.,.,.,.,.,.,.,.,.,.,.,.,.,.,.,.,.,.,.,.,.,.,.  < 6 ,.,.,.,.# # @ ,.,.,.,.,.,.,.,.,.,.    O $ : * a ,.,.,.,.,.,.,.,.,.,.",
",.,.,.,.,.,.,.,.,.,.,.,.,.,.,.,.,.,.,.,.,.,.,.,.,.,.  < 6 ,.,.,.,.,.,.@ * > ,.,.,.,.,.,.,.,.  $ : 1 5 6 z >.,.,.,.,.,.,.,.,.,.,.",
",.,.,.,.,.,.,.,.,.,.,.,.,.,.,.,.,.,.,.,.,.,.,.,.,.  > 6 ,.,.,.,.,.,.,.,.> : ; ,.,.,.,.,.,.  > 6 r ,.,.,.,.,.,.,.,.,.,.,.,.,.,.,.",
",.,.,.,.,.,.,.,.,.,.,.,.,.,.,.,.,.,.,.,.,.,.    . * z ,.,.,.,.,.,.,.,.,.,.- $ .         . * z ,.,.,.,.,.,.,.,.,.,.,.,.,.,.,.,.,.",
",.,.,.,.  o # ; $ 1 ,.,.,.,.,.    + $ $ > < > < # 5 ,.,.,.,.,.,.,.,.,.,.,.,.* @ > q < 1 # 5 ,.,.,.,.,.,.,.,.,.,.,.,.,.,.,.,.,.,.",
",.,.,.,.$ > : < > 5 ,.,.,.,.  $ : 1 5 5 p 5 : $ O X.,.,.,.,.,.,.,.,.,.,.,.,.; * 1 5 > $ O X.,.,.,.,.,.,.,.,.,.,.,.,.,.,.,.,.,.,.",
",.,.,.,.,.,.,.^ 5 ; % ,.,.  > 6 r ,.,.,.,.q # X $ =.,.,.,.,.,.,.,.,.,.,.,.  < 5 a u * X $ =.,.,.,.,.,.,.,.,.,.,.,.,.,.,.,.,.,.,.",
",.,.,.,.,.,.,.,.,.* $ - @ - z ,.,.,.,.,.,.,.    ; ,.,.,.,.,.,.,.,.,.,.,.  * D ,.,.,.    @ ,.,.,.,.,.,.,.,.,.,.,.,.,.,.,.,.,.,.,.",
",.,.,.,.,.,.,.,.,.,.X @ . 3 ,.,.,.,.,.,.,.,.  X > ,.,.,.,.,.,.,.,.,.,.  . u ,.,.,.,.,.X * W ,.,.,.,.,.,.,.,.,.,.,.,.,.,.,.,.,.,.",
",.,.,.,.,.,.,.,.,.,.  * .  .,.,.,.,.,.,.,.,.o 1 b ,.,.,.,.,.,.,.,.,.,.  * +.,.,.,.,.,.$ > 5 ,.,.,.,.,.,.,.,.,.,.,.,.,.,.,.,.,.,.",
",.,.,.,.,.,.,.,.,.,.  1 < -.,.,.,.,.,.,.,.  1 6 L ,.,.,.,.,.,.,.,.,.,.O 5 ,.,.,.,.,.,.1 5 ; ; ,.,.,.,.,.,.,.,.,.,.,.,.,.,.,.,.,.",
",.,.,.,.,.,.,.,.,.,.,.- 5 ,.,.,.,.,.,.,.  < 6 ,.,.,.,.,.,.,.,.,.,.,.,.$ 5 ,.,.,.,.,.,.,.,.; $ # ,.,.,.,.,.,.,.,.,.,.,.,.,.,.,.,.",
",.,.,.,.,.,.,.,.,.,.  : 6 ,.,.,.,.,.,.  < 6 ,.,.,.,.,.,.,.,.,.,.,.,.  : 6 ,.,.,.,.,.,.,.,.,.o o . ,.,.,.,.,.,.,.,.,.,.,.,.,.,.,.",
",.,.,.,.,.,.,.,.,.,.o 1 c ,.,.,.,.,.  > 6 ,.,.,.,.,.,.,.,.,.,.,.,.,.  < b ,.,.,.,.,.,.,.,.,.  $ O R ,.,.,.,.,.,.,.,.,.,.,.,.,.,.",
",.,.,.,.,.,.,.,.,.  1 6 L ,.,.,.,.  * L ,.,.,.,.,.,.,.,.,.,.,.,.,.  * b Y ,.,.,.,.,.,.,.,.,.,.; 1 $.,.,.,.,.,.,.,.,.,.,.,.,.,.,.",
",.,.,.,.,.,.,.,.  > 6 ,.,.,.,.,.  $ b ,.,.,.,.,.,.,.,.,.,.,.,.,.  $ b ,.,.,.,.,.,.,.,.,.,.,.,.$ > ] ,.,.,.,.,.,.,.,.,.,.,.,.,.,.",
",.,.,.,.,.,.,.  > b ,.,.,.,.,.  o 6 ,.,.,.,.,.,.,.,.,.,.,.,.,.. $ 6 ,.,.,.,.,.,.,.,.,.,.,.,.,.; 1 ^ ,.,.,.,.,.,.,.,.,.,.,.,.,.,.",
",.,.,.,.,.,.,.,.] ,.,.,.,.,.,.  r 6 ,.,.,.,.,.,.,.,.,.,.,.,.  - - < ,.,.,.,.,.,.,.,.,.,.,.,.,.$ > 5 ,.,.,.,.,.,.,.,.,.,.,.,.,.,.",
",.,.,.,.,.,.,.,.,.,.,.,.,.,.,.,.> > = ,.,.,.,.,.,.,.,.,.,.  > < ; : : ,.,.,.,.,.,.,.,.,.,.,.,.1 5 : ; ,.,.,.,.,.,.,.,.,.,.,.,.,.",
",.,.,.,.,.,.,.,.,.,.,.,.,.,.,.,.,.* * $ ,.,.,.,.,.,.,.,.  * D ,.,.: * * ,.,.,.,.,.,.,.,.,.,.,.,.,.; * * ,.,.,.,.,.,.,.,.,.,.,.,.",
",.,.,.,.,.,.,.,.,.,.,.,.,.,.,.,.,.,.o o . ,.,.,.,.,.,.  . u ,.,.,.,.* @ @ ,.,.,.,.,.,.,.,.,.,.,.,.,.* @ @ ,.,.,.,.,.,.,.,.,.,.,.",
",.,.,.,.,.,.,.,.,.,.,.,.,.,.,.,.,.,.  # o E ,.,.,.,.,.  * +.,.,.,.,.,.# 6  .,.,.,.,.,.,.,.,.,.,.,.,.,.@ 6  .,.,.,.,.,.,.,.,.,.,.",
",.,.,.,.,.,.,.,.,.,.,.,.,.,.,.,.,.,.,.; 4 %.,.,.,.,.,.O 5 ,.,.,.,.,.,.,.] ,.,.,.,.,.,.,.,.,.,.,.,.,.,.,.] ,.,.,.,.,.,.,.,.,.,.,.",
",.,.,.,.,.,.,.,.,.,.,.,.,.,.,.,.,.,.,.$ 6 ,.,.,.,.,.,.$ 5 ,.,.,.,.,.,.,.,.,.,.,.,.,.,.,.,.,.,.,.,.,.,.,.,.,.,.,.,.,.,.,.,.,.,.,.",
",.,.,.,.,.,.,.,.,.,.,.,.,.,.,.,.,.,.,.* r ,.,.,.,.,.,.- r ,.,.,.,.,.,.,.,.,.,.,.,.,.,.,.,.,.,.,.,.,.,.,.,.,.,.,.,.,.,.,.,.,.,.,.",
",.,.,.,.,.,.,.,.,.,.,.,.,.,.,.,.,.,.,.; b ,.,.,.,.,.,.; b ,.,.,.,.,.,.,.,.,.,.,.,.,.,.,.,.,.,.,.,.,.,.,.,.,.,.,.,.,.,.,.,.,.,.,.",
",.,.,.,.,.,.,.,.,.,.,.,.,.,.,.,.,.,.,.,.,.,.,.,.,.,.,.,.,.,.,.,.,.,.,.,.,.,.,.,.,.,.,.,.,.,.,.,.,.,.,.,.,.,.,.,.,.,.,.,.,.,.,.,.",
",.,.,.,.,.,.,.,.,.,.,.,.,.,.,.,.,.,.,.,.,.,.,.,.,.,.,.,.,.,.,.,.,.,.,.,.,.,.,.,.,.,.,.,.,.,.,.,.,.,.,.,.,.,.,.,.,.,.,.,.,.,.,.,.",
",.,.,.,.,.,.,.,.,.,.,.,.,.,.,.,.,.,.,.,.,.,.,.,.,.,.,.,.,.,.,.,.,.,.,.,.,.,.,.,.,.,.,.,.,.,.,.,.,.,.,.,.,.,.,.,.,.,.,.,.,.,.,.,."
};
