/* XPM */
static const char *daniel[] = {
/* columns rows colors chars-per-pixel */
"64 64 252 2 ",
"   c #2A1F17",
".  c #2E221A",
"X  c #2D2116",
"o  c #33261C",
"O  c #372C27",
"+  c #3B322C",
"@  c #36312C",
"#  c #3C3532",
"$  c #3A3639",
"%  c #312A29",
"&  c #43342C",
"*  c #49392D",
"=  c #433A34",
"-  c #433C3B",
";  c #463737",
":  c #523E32",
">  c #533E2E",
",  c #49423B",
"<  c #54443B",
"1  c #5C493D",
"2  c #574337",
"3  c #54402F",
"4  c #6C4E3A",
"5  c #383B4B",
"6  c #473A44",
"7  c #3D404C",
"8  c #494748",
"9  c #5C4B43",
"0  c #554947",
"q  c #5B524A",
"w  c #4A4658",
"e  c #544A57",
"r  c #4C525C",
"t  c #595757",
"y  c #624E42",
"u  c #64544B",
"i  c #685449",
"p  c #695B56",
"a  c #725D52",
"s  c #765949",
"d  c #6D615C",
"f  c #78645A",
"g  c #4E4A63",
"h  c #555868",
"j  c #545570",
"k  c #635B68",
"l  c #5A677D",
"z  c #696868",
"x  c #776A65",
"c  c #79726D",
"v  c #6A727B",
"b  c #787879",
"n  c #6C6C74",
"m  c #86553E",
"M  c #895E45",
"N  c #985B44",
"B  c #96664A",
"V  c #876957",
"C  c #916A53",
"Z  c #A76B49",
"A  c #B57957",
"S  c #AE7251",
"D  c #836C63",
"F  c #897469",
"G  c #977966",
"H  c #887A75",
"J  c #947E74",
"K  c #AA7C68",
"L  c #C77D51",
"P  c #87817D",
"I  c #998579",
"U  c #9E836B",
"Y  c #A5876B",
"T  c #A68B79",
"R  c #AE9176",
"E  c #B59679",
"W  c #B7886F",
"Q  c #BA815B",
"!  c #C88359",
"~  c #D68959",
"^  c #DD905C",
"/  c #E8945B",
"(  c #E9945C",
")  c #C98965",
"_  c #DA9367",
"`  c #C99378",
"'  c #CF916F",
"]  c #E99764",
"[  c #E19D72",
"{  c #EBA37E",
"}  c #4E5B87",
"|  c #59678C",
" . c #6A7787",
".. c #797C85",
"X. c #63668B",
"o. c #5E658F",
"O. c #7A838B",
"+. c #75838A",
"@. c #798596",
"#. c #6F8397",
"$. c #768FAE",
"%. c #799CC7",
"&. c #8A8B8C",
"*. c #878586",
"=. c #9B8C84",
"-. c #948A88",
";. c #9B918C",
":. c #868C96",
">. c #8B9197",
",. c #989796",
"<. c #9B8E92",
"1. c #A58E83",
"2. c #A5938A",
"3. c #AC9A8C",
"4. c #A89487",
"5. c #B69B8A",
"6. c #A79C96",
"7. c #B39D92",
"8. c #BA9F92",
"9. c #A8A19C",
"0. c #B9A599",
"q. c #B8A08B",
"w. c #8997A8",
"e. c #979DA4",
"r. c #879BB5",
"t. c #939FBB",
"y. c #9AA3AB",
"u. c #8AA4BC",
"i. c #99A8B6",
"p. c #9FB0BC",
"a. c #A5A4A3",
"s. c #ABA6A3",
"d. c #ADA9A5",
"f. c #ADABAB",
"g. c #A5A8AB",
"h. c #B3AAA5",
"j. c #B3ADAA",
"k. c #BAAEAA",
"l. c #B9ABA3",
"z. c #BDB1AB",
"x. c #B6B1AB",
"c. c #A8ADB5",
"v. c #A8B3BC",
"b. c #BBB4B1",
"n. c #B5B6B7",
"m. c #A699A7",
"M. c #C59C84",
"N. c #C5A48D",
"B. c #C7A586",
"V. c #D4AB8A",
"C. c #D4B18E",
"Z. c #CCAA94",
"A. c #C3AA9D",
"S. c #C7A794",
"D. c #D4AC95",
"F. c #DAB592",
"G. c #D8B596",
"H. c #E4BA98",
"J. c #E6AF8A",
"K. c #C6ADA2",
"L. c #CCB3A5",
"P. c #C3B4AD",
"I. c #C9B6AD",
"U. c #C9B7AA",
"Y. c #D3BAAC",
"T. c #D6B7A6",
"R. c #CCBAB2",
"E. c #C5B9B4",
"W. c #D6BDB1",
"Q. c #E6BBA0",
"!. c #E6C29B",
"~. c #F1C09D",
"^. c #CBC2BA",
"/. c #DAC6B8",
"(. c #DEC3AE",
"). c #E7C4A9",
"_. c #E3CBBD",
"`. c #E6CAB7",
"'. c #EDD4B5",
"]. c #ECD3BC",
"[. c #E5D3BD",
"{. c #F4D6BA",
"}. c #F1C7A9",
"|. c #8BA7C6",
" X c #97AEC5",
".X c #99B2CA",
"XX c #99B7D6",
"oX c #A6B6C6",
"OX c #B3BCC5",
"+X c #A7BDD5",
"@X c #9EBDE3",
"#X c #A1BFE2",
"$X c #839FC4",
"%X c #B8C4CB",
"&X c #ACC3D7",
"*X c #B4C5D3",
"=X c #BAC6D2",
"-X c #BCCAD6",
";X c #B9CBD8",
":X c #B9CED7",
">X c #9BD2F1",
",X c #A2C2E5",
"<X c #A5C5EA",
"1X c #A6C9EC",
"2X c #A9CBED",
"3X c #AAC9E6",
"4X c #B2CEEB",
"5X c #B2CBE6",
"6X c #B5D3ED",
"7X c #B6D6E9",
"8X c #B8DAF4",
"9X c #AAD4F0",
"0X c #A8E7FE",
"qX c #B8E4F8",
"wX c #BDE3EE",
"eX c #9BE0FF",
"rX c #C8CACA",
"tX c #D4CCC5",
"yX c #DAD3C8",
"uX c #C3CBD3",
"iX c #C5CDD6",
"pX c #C5D2DB",
"aX c #CAD6DC",
"sX c #CBD4D7",
"dX c #D4D8D7",
"fX c #CFD0CE",
"gX c #EDDBCC",
"hX c #E8D5C6",
"jX c #F3DBC3",
"kX c #F7DCC7",
"lX c #EAD5CA",
"zX c #FDE5CC",
"xX c #FFE9CE",
"cX c #F6E2CA",
"vX c #FEECD2",
"bX c #F9E8D6",
"nX c #FFF3D4",
"mX c #FEF2DC",
"MX c #FFF9DE",
"NX c #EDE5D7",
"BX c #CADAE2",
"VX c #D4DDE1",
"CX c #C2DDF5",
"ZX c #DAE7EB",
"AX c #C7E9F8",
"SX c #D7F3FA",
"DX c #CFEDF3",
"FX c #FEF4E2",
"GX c #FDF8E7",
"HX c #E9F6F9",
"JX c #EDEDEA",
"KX c #C0B6C5",
/* pixels */
"k.z.l.P.P.P.P.k.z.P.P.P.z.h.h.h.P.z.P.P.k.0.tXJX0.0.P.I.P.I.P.P.I.I.R.I.P.P.R.R.W.R.I.I.R.R.P.P.I.R.P.l.l.h.l.h.l.k.k.k.P.P.P.z.",
"k.z.k.k.z.z.z.l.k.z.z.z.z.h.d.h.z.z.z.z.0.z.GX^.9.z.P.P.P.P.P.P.P.P.P.z.P.R.R.R.R.I.R.R.R.P.P.R.R.l.2.=.2.0.k.k.z.P.k.h.h.h.l.z.",
"h.h.k.h.z.z.z.k.h.z.k.z.j.s.s.k.z.z.z.k.s.NXNX9.k.b.z.b.k.z.P.P.P.z.k.P.E.R.I.P.E.R.R.P.P.R.I.0.=.I =.0.k.z.z.z.k.z.^.tXz.0.z.E.",
"s.j.9.9.s.s.d.s.s.d.d.d.s.s.s.h.h.h.h.s.h.b.j.h.k.k.z.k.k.z.z.z.j.k.P.E.E.P.P.P.P.P.P.P.P.0.=.I ;.9.k.z.z.b.k.E.tXyXtXE.b.E.E.b.",
"9.JXfX,.s.d.d.d.s.d.d.d.a.a.a.s.s.s.s.d.d.s.s.s.d.d.s.s.h.h.h.d.h.k.z.l.j.z.z.z.z.z.z.0.=.P =.9.j.k.z.z.z.z.tXfXrXE.k.b.b.b.b.n.",
"a.n.rXa.a.d.d.d.s.f.f.f.a.a.a.d.d.d.s.d.d.d.s.d.d.s.d.h.h.d.s.h.j.j.h.E.rXd.h.j.j.h.h.s.9.9.d.d.h.j.j.j.j.j.b.j.j.x.x.j.f.f.j.n.",
"&.-.-.;.,.,.,.,.,.,.,.,.,.,.9.9.a.a.a.a.a.a.s.s.s.s.d.d.d.a.d.j.j.d.n.fXn.j.j.j.j.j.d.d.s.d.f.d.j.j.j.j.j.j.j.j.j.f.f.f.f.f.c.n.",
"w.w.w.w.:...>.w.>.>.>.>.:.:.:.:.&.&.&.&.&.&.&.&.,.,.-.-.<.6.6.;.;.,.,.,.,.,.6.6.9.9.9.9.a.a.s.s.s.s.f.f.f.f.f.f.f.c.c.j.n.n.n.n.",
"<X<X,X<X|...XX<X<X<X<X<X1X<X1X<X<X<X,X,X+X+XXXXXXXw.z z z p.oX Xp.p.p.p.i.i.e.,.,.,.>.>.&.e.y.e.e.e.e.e.e.e.e.e.e.e.,.,.,.e.y.v.",
",X,X#X,X.XO..X,X,X,X,X<X<X<X1X2X2X2X2X2X2X2X2X2X1X|.n z z +X4X4X4X4X4X4X4X4X+XoXoXv.v.y.e.4X4X4X6X6X4X4X4X4X5X5X5X+Xw. . . .r.+X",
",X,X,X,XXXO.u.<X,X,X,X<X<X<X1X1X1X1X2X2X2X2X2X<X<X|.v z z .X2X5X4X5X5X5X5X5X+XoXoXoXv.i.y.4X6X4X6X6X6X6X6X6X6X6X6X&Xu.#.@.#..X3X",
"@X@X#X@XXX@.w.,X,X,X,X,X<X<X<X1X1X1X1X1X1X2X2X<X<XXX .z z .X4X3X4X4X4X4X4X4X&XoXoXoXoXi.y.7X6X6X6X6X6X6X6X6X6X6X6X&X|.#.$.$.wX0X",
"@X@X#X#X,Xw.:.,X,X,X@X,X,X,X<X<X<X<X1X<X1X<X1X<X<XXX .c b oX4X5X4X4X5X5X5X5X&XoXoXv.v.i.y.7X6X7X6X6X6X6X6X6X6X6X8X3X|.$.$.$XAX0X",
"<X<X1X<X1Xu.:.3X1X<X<X<X1X2X2X2X2X2X2X2X2X2X2X2X1X@X+.b -.oX8X6X6X8X6X7X6X6X&XoXoXoXoXi.y.8X8X8X8X8X8XCXCXCXCXCXCX5X|.$.r.|.SX0X",
"oXoXoXoX+Xi.&.oX+X.X.X X.X.X.X.X.X.X X X X X X X Xr. .*.-.c.*X*X*X-X*X*XOXoXv.y.y.y.y.e.>.oXoXoXoX%X*X-XpXpXpX-X*XoXr.$.t.|.7X>X",
"&.&.&.>.>.,.,.,.,.&.&.&.O.O.O.O.O.+.O.O.+.O.O...b v z *.-.,.g.d.f.f.f.g.a.y.,.&.&.&.*.>.e.e.e.y.g.c.c.f.n.b.n.n.n.c.:.@.$.|.1X>X",
"OXOX%X=X=X-XOXn.=X-X*X*X*X&X+X+X+X+X+X+X+X+X+Xi.w.w...*.P g.BXpXpXaXBXaXpXpXn.c.v.v.oX%X;X;X-XpXpXBXaXuXrXrXrXiXiXv. . .w.oXSXSX",
"*X*X-X-X-X-XpX=XpXpX:X;X;X;X*X*X&X&X&X&X&X&X&X&Xi.y.@.*.P y.aXpXsXaXVXVXaXaXpXpXpXpX:X-X-XpXpXaXaXVXVXsXuXuXiXiXsXc.l :.m.OXCXDX",
"-X-X-X-X-X-XiXpXpXpXpX-X-X-X*X*X*X*X*X*X*X*X*X*Xp.i.:.*.P ,.pXiXpXsXaXdXVXaXaXaXaXaXpXpXaXBXBXaXdXdXVXiXuXuXuXiXrXuXw. .:.e.t.%.",
"-X-X-X-X-X-X-XuXpXpXpXpX-X-X-X-X*X*X*X*X-X-X-X-XoXv.>.*.P ,.iXuXiXsXsXdXdXaXaXsXaXVXdXaXaXdXZXZXZXVXdXuX=X=XuXuXiXc.l j | m.n. X",
"=X=X-X-X-X-X-XuXpXpXpXpXpXpX=X%X=X-X=X=X=X=X=XuXOXv.>.O.P &.%XrXfXdXdXdXfXrXfXdXfXdXdXuXuXdXrXg.g.rXfXfXfXdXdXdXdX>.r h h ..:.#.",
"OXOX%X%X%X%X%X=XuX=XuX=X%X%XOXv.v.OXOXOXv.n.OX%XOXv.y.*.P *.n.%XfXfXrXsX>.&.n.b.x.n.fXrXrXfXO.5 r f.tXlXyXlXtX^.z.,.r r r h l l ",
"v.e.@.y.rXrXn.n.OXfXg.y.fXdX:X;X:X7XBX5X7X7X9X2X9XqX8Xy.P &.OX%XpXsX=XsX>.:.v.c.y.%XZXZXZXHX:.5 r g.n.s.<.b.d.9.6.-.8 w w w h h ",
"v.#. .p.SXZXy.,.g.ZXy.t.DXDXqXqXqXqX8XqXqX8X8XAXqXeX0Xi.*.>.ZXHX%X&.b z t t b :.>.*XqXqX3X+.r v @.n.n.g.a.9.6.6.6.6.r 8 8 8 t e ",
"XX$.$.u.qXqXw.:.w.*Xp.w.5XqX9XqXqXqXAXDXDXSXHXJXZXeXeX X*.:.dXl.d 8 8 8 8 8 , 8 t O.9X0X#.$ 7  .u.%Xb.^.6.-.<.;.;.z.b $ 8 8 q t ",
"7Xr.r.$.qXwXi.:.:.v.i.w.BXDXDXSXHXHXHXHXHXZXZXSXSX0X0X.X*.*.v t t q 0 8 , , , , 8 8 i.:Xv t ,.,.a.fXE.^.2.-.-.-.;.f.v $ 5 0 3.Y.",
"$.c.tXOX&XCX%X,.@.e.i.w.ZXZXHXHXSXSXAXqXqX$.o.$.8X0X0XXX*.z 8 8 0 8 , , , # @ @ % 8 s.,.d.*.;.b.b.^.^.E.l.9.6.6.6.g.H C K V.).A.",
"i.w.5X;X*XDXpXe...:.e.y.pX:XSX8X>X,X2X9XXX| | #.>XeXeXXX..h 8 $ $ @ @ @ + O @ @ % q ,.5 5 5 7 w 7 n ^./.K.3.A.L.U.Z.{ { W D F I ",
"*X@.i.i.*XsXdXc...O.>.n.^.dXZXZX8X8X8XAX$X} } |.>XeXeXXXO.H x a i M 4 * * * & + @ = c 8 $ $ $ $ $ 8 9./././.(.Y.(.T.J D x z p 0 ",
"oX .*.f.f.JXHXrXb ..O.E.OXn.tXJX6XXX.Xu.| j } $.XX Xu.u.*.5.` ) A S B 4 3 3 > 2 : O X # # @ @ @ # @ -.NXNXFXFXmXmXcX-.d d p u d ",
"f.rXb.g.a.6.&.s.b b ..<.,.b.gXGXn.:.g...r j h @.w.@...v z p K K Z Z Z Z M 4 m N N h g , @ % % % @ @ t ;.0./.hXcXbXbXbXNXgXgXgXcX",
"E.GXlXh.6.P -.I.*.n b R.yXtXFXFXNXw.c :.| e t e 8 8 - - $ @ s B s M Z S S B Z N m $ 6 t $ @ O % @ # = 0 , < d J 3.L._.gXbXmXmXmX",
"6.j.h.P.z.hXvXvX;.n *.[.hXP./.bXGXr.| o.o.w 8 - $ $ $ # # # M S B C S S Z B Z S M , z t # @ + + # ; - = + c , O ; < p F 2.A.W._.",
"_._./.hXcXbXbXFXl.c 9.NXhX/.P.yXmXj.| X.l e - - $ # + # @ % C A B A S B B M B Z Z < f T 2.F q 9 0 < - # @ , = O @ + + + = , u x ",
"mXmXbXbXmXmXmXGX^.c 2.yXhXbXhX/.bXhXt 8 b n - = # # # @ - I /.Y.C B B B M 4 M Z C < G T./.hX7.p q q ; & @ 0 # % % O O + & & & & ",
"zXkXjXjX{.].jXvX/.I 0.I.I.z.[.R.gXmXj.P v.:.= - = = @ 0 I.hX/.U.T B C s 4 4 M C q 9 0.L.Y./.R.3.p @.>.z < ;., . % o o o O O + & ",
"kXjX`.`.`.`.].vX_.3.l.6.;.;.0.Y.gXFXyXH *.:.- 8 - @ d k.W.K.K.I x 9 u x s s D k , I K.U./.hX/./.P.OX+X..; x =   o O . . . o o O ",
"zXjX'.].].(.].cX[./.U.6.l./.hXcXmXFXmXe.b >., 8 q I /.I.7.0.7.q & < * q 9 q t , a 0.K.P.W./.yXNXhX-.l X.X.j g $ . . .     . o o ",
"kX].].jX/.Y.].[.yXgX/._.cXbXvXbXmXFXGXn.c c q 6.hX_.K.7.1.3.2.q , , = , 9 * = f 7.0.K._.hXgXbXgXcXR.j j j j o.X.l $         . o ",
"kX_.(.U.T.`.vXnXmXbXbXmXmXmXbXvXmXFXGXyX,.6.I._.Y.0.7.3.J =.7.1.d u 1 , , = p 2.0.K.hXgXgXNXgXgXtXhX-.g g g g g j 6 .     X . o ",
"3.[.[.jXvXvX/.0.0.^.gX/.R.^.mXmXmXGXGXgXtXlXY.0.7.4.2.1.H J 0.A.2.I p 9 0 t I K.K.W.Y.hXhX_.hXgX_.W.I.h g g w w w $ . X X   X X ",
"_._.kXcX/.H q 9 0 9 d p p p K.mXFXzXH.{ J.D.0.1.T H F I D F 0.0.7.=.*.T b H 0.K.L.K.W./._.gXgX_./._._.H w g g w w - .   X . o o ",
"zXcX].H u 0 9 q u i f f a f =.bXH.[ _ _ ~ Q I D f f f a 9 f 0.0.8.6.*.2...2.A.K.0.Y._.hXhXtXW.W._._.`.2.w e e w w 6 1 1 3 > 3 2 ",
"kXzXzXf u u p f D I 0.U./._.H.' ! ! Q A S V a y 9 y 9 1 < i 3.0.7.;.H <.&.7.0.0.A./._.hX_._.lXlX_.L.L.0.e w e w w u G G C V s 4 ",
"zXzXxX0.T 0.T.`.cXGXzX{.~.' ! A A A W B.`.T 9 y 1 < 2 : : 9 I 4.A.;.F &.0.0.K.2.2.0.7.K.W.W.L.Y.Y.K.L.K.p w e e w V Y Y Y Y G V ",
"zXjX].cX{.cX{.}.J.` ) ~ L A ) K W D.{.vXMXhXf y y 1 < : 9 < F 4.7.2.H -.7.A.0.J 0././.L.0.0.7.2.0.L.`.Y.e w w w w U E R R Y Y Y ",
"zX].[.'.'.).V.' ) B.) ' K A ) B.{.xXvXvXmXmXI i i y 1 2 2 * y 3.I &.-.D A.L.1.I K.L.Y._._.L.K.A.4.I 5.=.6 6 8 w e Y R R Y Y U U ",
"zXkX`.[.{.'.Q.) ` V.L E W ) ` {.xXvXvXmXmXGXU.a i y 9 1 < < 2 D 4.:.H J A.K.T Y.jX`._.Y.W.`.`.W.Y.7.J q - 6 6 w t 5.R Y R R Y U ",
"zXzX`.`.'.'.H.` 5.Y ` M.' ` ).zXvXvXmXmXmXmXcXV i i 1 1 1 1 1 1 1.H 5.L.L.8.S._._.hX_._.W.(.W.S.0.0.p ; - - - 6 p C.G.C.E E R Y ",
"zXzXjX`.'.'.).T.T.T.).'.).zXmXvXmXmXmXmXmXmXmXT i i y 1 2 3 3 U 6.c T K.A.8.`._.Y.`.jXhX_.W.Y.S.T I 0 ; ; ; - 6 x H.C.G.F.B.E R ",
"zXzXzX'.'.{.'.'.].[.jX'.}.~.H.J.}.'.bXmXmXFXGX/.V 1 2 2 1 1 f I T G T E S.Y.Y.Y.W.L.L._.`.L.A.S.5.7.f @ ; ; ; - u U q.V.V.F.B.E ",
"zXvXvX{.`.'.'.'.'.jXF._ ] ] ] ] _ _ [ J.}.~.~.J.' A Z Q ) ' ) ! ^ ^ / ] ] H.`.L.L.Y.A.8.A.S.5.5.4.1.J 9 + # ; < i i f C.F.H.H.V.",
"xXzXcXkX`.[.{.'.{.V.) ) _ _ _ ] _ _ _ _ ] ] / ( ( ( ( ( ( / ( ( ( ( ( ] ] ] T.W.L.S.A.A.4.5.U F I T 8.F O < 9 i a i E !.H.!.!.H.",
"kXcXzXvX{.[.].'.`.` ) ) ) ` ) _ _ _ _ _ _ _ ^ _ ^ ~ ~ ~ ^ / / / / / / / ^ ^ ' L.L.A.5.5.4.I H F T 8.5.i 9 a i i 1 1 R G.C.F.F.!.",
"zXzXxXvXkX`.].{.'.F.` ` W R W W ) ) ) ) Q ) ! ~ ^ ^ ~ ! L L L L L L ! ~ ~ ~ L ` A.S.8.U T T 4.4.1.I 9 2 y i 1 & * 3 G !.F.C.C.F.",
"zXxXxXxXxX{.[.`.T.G.D.G.G.D.D.V.D.G.H.}.'.}.!.J.J.) A S S S S S Z Z Z Z Z Z Z Z Y 5.D a f V F G F f y 1 y 2 O O * 3 f !.!.F.F.C.",
"zXzXxXxXvXkX).).'.{.{.kX{.}.{.{.kXzXxXxXxXxXxXzXnXY.f F F V M M B B C C G G G G G I x f f f f a a f a & O O & & * 3 i V.!.H.F.F.",
"zXzXzXvXvXxXzXxXxXxXkX{.kXzXzXzXvXvXvXvXvXnXvXvXvXkXD F F a u 9 p J I 4.3.3.3.3.3.4.=.P F x p i < y * o O O O & = > 4 B.F.F.F.H.",
"zXzXzXxXvXvXvXnXnXxXzXkXzXxXvXvXnXnXnXvXzXjX'.).T.T.F i a u y 9 9 J I 7.q.3.3.3.3.1.=.P H c p u u u ; O ; 6 6 ; * : 2 R !.F.F.F.",
"zXzXzXxXxXvXvXnXnXnXnXvXvXvXxXzXjX`.).T.G.D.S.S.N.D.F 9 u 9 < : i I I 4.3.3.3.7.3.=.I I H x p u p q # ; - 6 e 0 & * y B.F.G.G.G.",
"zXzXxXxXvXnXnXnXnXzXkX].`.T.G.D.Z.Z.S.S.Z.S.S.Z.Z.G.F : : * * * x I I I 4.3.3.3.4.1.I H c d d d p 6 - 6 6 w e p T R B.F.V.C.C.C.",
"vXvXvXzXzXjX`.).T.D.Z.S.S.S.S.Z.Z.Z.D.D.Z.S.5.T G V y * * = ; u F F I I 4.3.3.4.1.I P c x d x x 0 - 6 6 6 e d 5.G.G.C.C.C.C.V.V.",
"`.).T.D.Z.S.S.S.S.S.S.S.S.Z.Z.Z.S.8.R U D i 1 : * > * & & ; 8 x I I 4.q.5.3.3.4.=.I H x d d x q $ 6 6 6 e e 4.B.B.B.B.B.V.F.C.C.",
"N.N.N.N.N.N.N.N.N.N.N.N.N.5.I D a y 9 < < : * * * > 2 : & = d T 4.5.q.0.0.7.3.4.=.P c x p d u $ 6 6 6 e 8 D Z.B.M.B.B.B.B.C.G.G."
};
