/* XPM */
static const char *GemOv4[] = {
/* columns rows colors chars-per-pixel */
"64 64 163 2 ",
"   c gray77",
".  c #C5C4C4",
"X  c #C4C5C4",
"o  c #C5C5C4",
"O  c #C4C4C5",
"+  c #C5C4C5",
"@  c #C4C5C5",
"#  c #C5C5C5",
"$  c #C6C5C5",
"%  c #C5C6C5",
"&  c #C5C5C6",
"*  c #C5C6C6",
"=  c #CACACA",
"-  c #CBCACA",
";  c #CACBCA",
":  c #CBCBCA",
">  c #CACACB",
",  c #CBCACB",
"<  c #CACBCB",
"1  c #CBCBCB",
"2  c #CDCDCD",
"3  c #CECECE",
"4  c #CFCFCE",
"5  c gray81",
"6  c #D0CFCF",
"7  c #CFCFD0",
"8  c gray82",
"9  c #D1D2D1",
"0  c #D1D1D2",
"q  c #D2D2D2",
"w  c #D3D2D2",
"e  c #D2D3D2",
"r  c #D3D3D2",
"t  c #D3D2D3",
"y  c #D2D3D3",
"u  c LightGray",
"i  c #D4D3D3",
"p  c #D3D4D3",
"a  c #D4D4D3",
"s  c #D3D3D4",
"d  c #D4D3D4",
"f  c #D3D4D4",
"g  c gray83",
"h  c #D5D4D4",
"j  c #D4D5D4",
"k  c #D4D4D5",
"l  c gray84",
"z  c #D6D6D7",
"x  c #D8D8D8",
"c  c #D9D8D8",
"v  c #D8D9D8",
"b  c #D9D9D8",
"n  c #D8D8D9",
"m  c #D9D8D9",
"M  c #D8D9D9",
"N  c gray85",
"B  c #DADADA",
"V  c #DBDADA",
"C  c #DADBDA",
"Z  c #DBDBDA",
"A  c #DBDADB",
"S  c #DADBDB",
"D  c gray86",
"F  c #DCDBDB",
"G  c #DBDCDB",
"H  c #DBDBDC",
"J  c #DCDBDC",
"K  c #DBDCDC",
"L  c gainsboro",
"P  c #DDDCDC",
"I  c #DCDDDC",
"U  c #DDDDDC",
"Y  c #DCDCDD",
"T  c #DDDCDD",
"R  c #DCDDDD",
"E  c #DDDDDD",
"W  c #DEDDDD",
"Q  c #DDDEDD",
"!  c #DEDEDD",
"~  c #DDDDDE",
"^  c #DEDDDE",
"/  c #DDDEDE",
"(  c gray87",
")  c #DFDFDF",
"_  c #DFE0DF",
"`  c #E1E1E1",
"'  c #E2E1E1",
"]  c #E1E2E1",
"[  c #E2E2E1",
"{  c #E1E1E2",
"}  c #E2E1E2",
"|  c #E1E2E2",
" . c #E2E2E2",
".. c #E4E4E4",
"X. c #E5E4E4",
"o. c #E4E5E4",
"O. c #E4E4E5",
"+. c #E5E4E5",
"@. c #E4E5E5",
"#. c gray90",
"$. c #E6E5E5",
"%. c #E5E6E5",
"&. c #E6E6E5",
"*. c #E5E5E6",
"=. c #E6E5E6",
"-. c #E5E6E6",
";. c #E6E6E6",
":. c gray91",
">. c #E9E8E8",
",. c #E9E9E9",
"<. c #EAE9E9",
"1. c #E9EAE9",
"2. c #EAEAE9",
"3. c #E9EAEA",
"4. c #ECECEC",
"5. c #EDECEC",
"6. c #ECEDEC",
"7. c #EDEDEC",
"8. c #ECECED",
"9. c #EDECED",
"0. c #ECEDED",
"q. c gray93",
"w. c #EEEDED",
"e. c #EEEEEE",
"r. c #EFEEEE",
"t. c #EEEFEE",
"y. c #EFEFEE",
"u. c #EEEEEF",
"i. c #EFEEEF",
"p. c gray94",
"a. c #F1F0F0",
"s. c #F0F0F1",
"d. c #F3F3F3",
"f. c #F4F3F3",
"g. c #F3F4F3",
"h. c #F4F4F3",
"j. c #F3F3F4",
"k. c #F3F4F4",
"l. c #F6F5F6",
"z. c #F5F6F6",
"x. c #F6F6F6",
"c. c #F8F8F8",
"v. c #F9F8F8",
"b. c #F8F9F8",
"n. c #F9F9F8",
"m. c #F8F8F9",
"M. c #F9F8F9",
"N. c #F8F9F9",
"B. c #F9F9F9",
"V. c #FCFBFB",
"C. c #FCFCFB",
"Z. c #FBFBFC",
"A. c #FCFBFC",
"S. c gray99",
"D. c #FDFCFC",
"F. c #FEFEFE",
"G. c #FFFEFE",
"H. c #FEFFFE",
"J. c #FFFFFE",
"K. c #FEFEFF",
"L. c #FEFFFF",
"P. c white",
"I. c None",
/* pixels */
"& & & & & & & & & & & & & & & & & & & & & & & & & & & & & & & & & & & & & & & & & & & & & & & & & & & & & & & & & & & & & & & 5 ",
"& 5 5 5 q L L L L L L L L q 5 6 5 6 q L L L L L L L L q 5 5 5 5 6 5 5 5 q L L L L L L L L q 6 5 5 5 q L L L L L L L L q 5 5 M 5 ",
"& 5 M M g g I.I.I.I.I.I.I.; g M M g ; I.I.I.I.I.I.I.; q M M M g g M M M q ; I.I.I.I.I.I.I.; g M M g ; I.I.I.I.I.I.I.g g M { M 5 ",
"& 5 M { L g 5 I.I.I.I.I.I.; g L L g ; I.I.I.I.I.I.I.g L { L M I.I.s L { L g I.I.I.I.I.I.I.; g L L g ; I.I.I.I.I.I.; g L %.L g q ",
"& q f L %.L g ; I.I.I.I.I.; g L L g ; I.I.I.I.I.I.p L %.{ M I.I.I.I.d L %.L f I.I.I.I.I.I.; g L L g ; I.I.I.I.I.; f L %.L d K L ",
"& L g i L %.L d ; I.I.I.I.; g L L g ; I.I.I.I.I.a L %.{ M I.I.I.I.I.I.q L %.L g I.I.I.I.I.; g L L g ; I.I.I.I.; d L %.{ M M 0.L ",
"& L I.5 f L %.L g ; I.I.I.; g L L g ; I.I.I.I.d L %.{ M I.I.I.I.I.I.I.I.f L %.L f I.I.I.I.; g L L g ; I.I.I.; g L %.{ M q I.0.L ",
"& L I.I.; g L %.L i ; I.I.; g L L g ; I.I.I.d L %.{ M I.I.I.I.I.I.I.I.I.I.d L %.L f I.I.I.; g L L g ; I.I.; d L %.{ M q I.I.0.L ",
"& L I.I.I.; d L %.L f ; I.; g L L g ; I.I.g L %.{ M I.I.I.I.I.I.I.I.I.I.I.I.g L %.L g I.I.; g L L g ; I.; i L %.{ M q I.I.I.0.L ",
"& L I.I.I.I.; f L %.L d ; g L %.%.L g I.f L %.{ M I.I.I.I.I.I.I.I.I.I.I.I.I.I.f L %.L g I.d L %.%.L f ; f L %.{ M q I.I.I.I.0.L ",
"& L I.I.I.I.I.; g L %.L g M %.0.0.%.L g L %.L M I.I.I.I.I.I.I.I.I.I.I.I.I.I.I.I.g L %.L s L %.0.0.%.M d L %.L M q I.I.I.I.I.0.L ",
"& L I.I.I.I.I.I.; g L %.L %.0.d.d.0.%.L %.L g I.I.I.I.I.I.I.I.I.I.I.I.I.I.I.I.I.I.g L %.L %.0.f.d.0.%.L %.L g q I.I.I.I.I.I.0.L ",
"& L I.I.I.I.I.I.I.; g L %.0.f.b.b.d.0.%.L g I.I.I.I.I.I.I.I.I.I.I.I.I.I.I.I.I.I.I.I.p L %.0.j.b.b.g.0.%.L g 5 I.I.I.I.I.I.I.0.L ",
"& q ; ; ; ; ; ; ; g M %.0.d.b.S.S.b.f.0.%.L g ; ; ; ; ; ; ; ; ; ; ; ; ; ; ; ; ; ; p L %.0.d.b.S.S.b.j.0.%.L g ; ; ; ; ; ; ; M q ",
"& 6 g g g g g g g L %.0.g.b.S.S.S.S.b.d.0.%.L g g g g g g g g g g g g g g g g g g L %.0.d.b.S.S.S.S.b.d.0.%.L g g g g g g g M 5 ",
"& 5 M L L L L L L %.0.d.b.V.S.S.S.S.A.b.f.0.%.L L L L L L L L L L L L L L L L L L %.0.d.b.S.S.S.S.S.S.b.d.0.%.L L L L L L { M 5 ",
"& 5 M L L L L L L %.0.d.b.A.S.S.S.S.S.b.g.0.%.L L L L L L L L L L L L L L L L L L %.0.d.b.C.S.S.S.S.S.b.d.0.%.L L L L L L L M 5 ",
"& 5 g g g g g g g L %.0.d.b.A.S.S.S.b.l.d.1.{ M g g g g g g g g g g g g g g g g g L %.0.d.b.S.S.S.S.b.l.d.1.{ M g g g g g g g 5 ",
"& q ; ; ; ; ; ; ; p L %.0.d.b.S.S.b.h.d.1._ M 5 ; ; ; ; ; ; ; ; ; ; ; ; ; ; ; ; ; d M %.0.d.b.S.S.b.k.d.1.{ M 5 ; ; ; ; ; ; M q ",
"& L I.I.I.I.I.I.I.I.g L %.0.d.b.b.l.0.1.{ M 5 I.I.I.I.I.I.I.I.I.I.I.I.I.I.I.I.I.I.; d L %.0.j.b.b.j.0.1.{ M I.I.I.I.I.I.I.I.0.L ",
"& L I.I.I.I.I.I.I.g L %.{ %.0.j.d.0.%.{ %.L g ; I.I.I.I.I.I.I.I.I.I.I.I.I.I.I.I.; f L %.{ %.0.g.d.0.%.{ %.L g I.I.I.I.I.I.I.0.L ",
"& L I.I.I.I.I.I.g L %.{ M L %.0.0.%.G M L %.L g ; I.I.I.I.I.I.I.I.I.I.I.I.I.I.; g L %.{ M L %.0.0.%.L M L %.L g I.I.I.I.I.I.0.L ",
"& L I.I.I.I.I.a L %.{ M I.g L %.%.L g 5 g L %.L s ; I.I.I.I.I.I.I.I.I.I.I.I.; g L %.{ M q g L %.%.L g I.g L %.L s I.I.I.I.I.0.L ",
"& L I.I.I.I.a L %.{ M I.I.; g L L g ; I.; g L %.L g ; I.I.I.I.I.I.I.I.I.I.; i L %.{ M q I.; g L L g ; I.I.a L %.L a I.I.I.I.0.L ",
"& L I.I.I.f L %.{ M I.I.I.; g L L g ; I.I.; a L %.L g ; I.I.I.I.I.I.I.I.; g L %.{ M q I.I.; g L L g ; I.I.I.f L %.L f I.I.I.0.L ",
"& L I.I.f L %.{ M I.I.I.I.; g L L g ; I.I.I.; g L %.L g ; I.I.I.I.I.I.; d L %.{ M q I.I.I.; g L L g ; I.I.I.I.g L %.L a I.I.0.L ",
"& L ; d L %.{ M I.I.I.I.I.; g L L g ; I.I.I.I.; a L %.L a ; I.I.I.I.; g L %.{ M q I.I.I.I.; g L L g ; I.I.I.I.I.i L %.L g ; 0.L ",
"& q q L %.{ M I.I.I.I.I.I.; g L L g ; I.I.I.I.I.; a L %.L g ; I.I.; d L %.{ M q I.I.I.I.I.; g L L g ; I.I.I.I.I.I.a L %.L q J L ",
"& 7 M { { M I.I.I.I.I.I.I.; g L L g ; I.I.I.I.I.I.; g L %.L g ; ; f L %.{ M q I.I.I.I.I.I.; g L L g ; I.I.I.I.I.I.I.g L %.L g q ",
"& 5 M L M I.I.I.I.I.I.I.I.; g L L g ; I.I.I.I.I.I.I.; f L %.L s a L %.L M q I.I.I.I.I.I.I.; g L L g ; I.I.I.I.I.I.I.I.g L { M 5 ",
"& 5 M d I.I.I.I.I.I.I.I.I.; g L L g ; I.I.I.I.I.I.I.I.; g L %.L L %.L d q I.I.I.I.I.I.I.I.; g L L g ; I.I.I.I.I.I.I.I.I.d { M 5 ",
"& 5 g I.I.I.I.I.I.I.I.I.I.; g L L g ; I.I.I.I.I.I.I.I.I.; d L %.%.L f ; I.I.I.I.I.I.I.I.I.; g L L g ; I.I.I.I.I.I.I.I.I.I.s M 5 ",
"& 5 d I.I.I.I.I.I.I.I.I.I.; g L L g ; I.I.I.I.I.I.I.I.I.; g L %.%.L f ; I.I.I.I.I.I.I.I.I.; g L L g ; I.I.I.I.I.I.I.I.I.I.g M 5 ",
"& 5 M f I.I.I.I.I.I.I.I.I.; g L L g ; I.I.I.I.I.I.I.I.; i L %.{ L %.L d ; I.I.I.I.I.I.I.I.; g L L g ; I.I.I.I.I.I.I.I.I.g { M 5 ",
"& 5 M L d I.I.I.I.I.I.I.I.; g L L g ; I.I.I.I.I.I.I.; g L %.{ M g L %.L g ; I.I.I.I.I.I.I.; g L L g ; I.I.I.I.I.I.I.I.a L { M 5 ",
"& 5 M { L s I.I.I.I.I.I.I.; g L L g ; I.I.I.I.I.I.; g L %.{ M q ; g L %.L g ; I.I.I.I.I.I.; g L L g ; I.I.I.I.I.I.I.g L %.L g q ",
"& q q L %.L g I.I.I.I.I.I.; g L L g ; I.I.I.I.I.; d L %.{ M q I.I.; d L %.L g ; I.I.I.I.I.; g L L g ; I.I.I.I.I.I.g L %.L q M L ",
"& L ; g L %.L f I.I.I.I.I.; g L L g ; I.I.I.I.; g L %.{ M q I.I.I.I.; g L %.L g ; I.I.I.I.; g L L g ; I.I.I.I.I.d L %.{ M 5 0.L ",
"& L I.I.f L %.L d I.I.I.I.; g L L g ; I.I.I.; g L %.{ M q I.I.I.I.I.I.; f L %.L g ; I.I.I.; g L L g ; I.I.I.I.f L %.{ M I.I.0.L ",
"& L I.I.I.p L %.L d I.I.I.; g L L g ; I.I.; s L %.{ M q I.I.I.I.I.I.I.I.; g L %.L i ; I.I.; g L L g ; I.I.I.g L %.{ M I.I.I.0.L ",
"& L I.I.I.I.g L %.L g I.I.; g L L g ; I.; d L %.{ M q I.I.I.I.I.I.I.I.I.I.; g L %.L g ; I.; g L L g ; I.I.g L %.{ M I.I.I.I.0.L ",
"& L I.I.I.I.I.g L %.L g I.f L %.%.L g ; i L %.{ M q I.I.I.I.I.I.I.I.I.I.I.I.; g L %.L a ; a L %.%.L g I.a L %.{ M I.I.I.I.I.0.L ",
"& L I.I.I.I.I.I.g L %.L a L %.0.0.%.M f L %.L M q I.I.I.I.I.I.I.I.I.I.I.I.I.I.; d L %.L f M %.0.0.%.L a L %.L M I.I.I.I.I.I.0.L ",
"& L I.I.I.I.I.I.I.g L %.L %.0.d.d.0.%.L %.L g q I.I.I.I.I.I.I.I.I.I.I.I.I.I.I.I.; f L %.L %.0.j.d.0.%.L %.L g I.I.I.I.I.I.I.0.J ",
"& L I.I.I.I.I.I.I.I.s L %.0.d.b.b.d.0.%.L g 5 I.I.I.I.I.I.I.I.I.I.I.I.I.I.I.I.I.I.; d L %.0.d.b.b.d.0.%.L g I.I.I.I.I.I.I.I.0.L ",
"& q ; ; ; ; ; ; ; a L %.0.d.b.S.C.b.d.0.%.L g ; ; ; ; ; ; ; ; ; ; ; ; ; ; ; ; ; ; g M %.0.d.b.S.S.b.d.0.%.L g ; ; ; ; ; ; ; M q ",
"& 5 g g g g g g g L %.0.d.b.Z.S.S.S.b.f.0.%.L g g g g g g g g g g g g g g g g g g L %.0.g.b.S.S.S.S.b.d.0.%.L g g g g g g g M 5 ",
"& 5 M L L L L L L %.0.g.b.S.S.S.S.S.S.b.j.0.%.L L L L L L L L L L L L L L L L L L %.0.d.b.S.S.S.S.S.S.b.d.0.%.L L L L L L { M 5 ",
"& 5 M L L L L L L %.0.d.b.S.S.S.S.S.S.b.d.0.%.L L L L L L L L L L L L L L L L L L %.0.d.b.S.S.S.S.S.S.b.k.0.%.L L L L L L L M 5 ",
"& 5 g g g g g g g L %.0.d.b.A.S.S.S.b.l.d.1.{ M g g g g g g g g g g g g g g g g g L %.0.d.b.S.S.S.S.b.l.d.1.{ M g g g g g g g 5 ",
"& q ; ; ; ; ; ; ; a M %.0.g.b.S.S.b.k.d.1.{ M 5 ; ; ; ; ; ; ; ; ; ; ; ; ; ; ; ; ; g L %.0.d.b.S.S.b.d.d.1.L M 5 ; ; ; ; ; ; M q ",
"& L I.I.I.I.I.I.I.; f L %.0.j.b.b.d.0.1.{ M I.I.I.I.I.I.I.I.I.I.I.I.I.I.I.I.I.I.I.I.g L %.0.d.b.b.f.0.1.{ M 5 I.I.I.I.I.I.I.0.L ",
"& L I.I.I.I.I.I.; f L %.{ %.0.g.d.0.%.{ %.L f I.I.I.I.I.I.I.I.I.I.I.I.I.I.I.I.I.I.g L %.{ %.0.f.d.0.%.{ %.L g ; I.I.I.I.I.I.0.L ",
"& L I.I.I.I.I.; a L %.{ M L %.0.0.%.L M L %.L d I.I.I.I.I.I.I.I.I.I.I.I.I.I.I.I.g L %.{ M L %.0.0.%.F M L %.L g ; I.I.I.I.I.0.L ",
"& L I.I.I.I.; g L %.{ M q g L %.%.L g I.f L %.L f I.I.I.I.I.I.I.I.I.I.I.I.I.I.f L %.{ M I.g L %.%.L g 5 a L %.L a ; I.I.I.I.0.L ",
"& L I.I.I.; s L %.{ M q I.; g L L g ; I.I.g L %.L s I.I.I.I.I.I.I.I.I.I.I.I.d L %.{ M I.I.; g L L g ; I.; g L %.L d ; I.I.I.0.L ",
"& L I.I.; g L %.{ M q I.I.; g L L g ; I.I.I.a L %.L g I.I.I.I.I.I.I.I.I.I.d L %.{ M I.I.I.; g L L g ; I.I.; g L %.L g ; I.I.0.L ",
"& L I.; g L %.{ M q I.I.I.; g L L g ; I.I.I.I.g L %.L a I.I.I.I.I.I.I.I.a L %.{ M I.I.I.I.; g L L g ; I.I.I.; g L %.L g ; I.0.L ",
"& L g a L %.{ M q I.I.I.I.; g L L g ; I.I.I.I.I.f L %.L g I.I.I.I.I.I.i L %.{ M I.I.I.I.I.; g L L g ; I.I.I.I.; g L %.L d M 0.K ",
"& q g L %.{ M q I.I.I.I.I.; g L L g ; I.I.I.I.I.I.p L %.L g I.I.I.I.g L %.{ M I.I.I.I.I.I.; g L L g ; I.I.I.I.I.; g L %.L s K L ",
"& 5 M %.L M 5 I.I.I.I.I.I.; g L L g ; I.I.I.I.I.I.I.a L %.L i I.I.f L %.L M I.I.I.I.I.I.I.; g L L g ; I.I.I.I.I.I.; d L %.L a q ",
"& 5 { L g M I.I.I.I.I.I.I.; g { L g ; I.I.I.I.I.I.I.; q L { { f f { { L q 5 I.I.I.I.I.I.I.; g { L g ; I.I.I.I.I.I.I.M d L { M 5 ",
"& M M f M 0.0.0.0.0.0.0.0.M M M M g M 0.0.0.0.0.0.0.0.H a M M M M M M g M 0.0.0.0.0.0.0.0.M M M M g M 0.0.0.0.0.0.0.0.H g M M 5 ",
"5 5 5 q L L J L L L K L L q 5 5 5 5 q L L L L L L L L L q 5 5 5 5 5 5 q L L J L L L L L L q 5 5 5 5 q L L L L L L L L L q 5 5 5 "
};
