/* XPM */
static const char *madridd[] = {
/* columns rows colors chars-per-pixel */
"64 64 256 2 ",
"   c #030101",
".  c #0C0203",
"X  c #0C0609",
"o  c #130303",
"O  c #1B0404",
"+  c #1C0906",
"@  c #14060A",
"#  c #1B0B0A",
"$  c #170909",
"%  c #170C11",
"&  c #1E1113",
"*  c #08101D",
"=  c #220604",
"-  c #240A06",
";  c #2B0B05",
":  c #240B0A",
">  c #2B0D0A",
",  c #280606",
"<  c #320E09",
"1  c #350E06",
"2  c #2D120D",
"3  c #26130B",
"4  c #34120C",
"5  c #3B140B",
"6  c #3C1B0D",
"7  c #371406",
"8  c #271816",
"9  c #3D1A12",
"0  c #351813",
"q  c #2A0E10",
"w  c #2C211B",
"e  c #372617",
"r  c #372A11",
"t  c #0F142E",
"y  c #14162D",
"u  c #17192D",
"i  c #0E1A39",
"p  c #121631",
"a  c #161A35",
"s  c #1B1C34",
"d  c #131B3B",
"f  c #1A1E3A",
"g  c #251B29",
"h  c #211F37",
"j  c #1D213D",
"k  c #1F2134",
"l  c #1C222F",
"z  c #2B2326",
"x  c #362826",
"c  c #22233C",
"v  c #27283B",
"b  c #352C38",
"n  c #393439",
"m  c #323132",
"M  c #431B0C",
"N  c #4B1D0D",
"B  c #451609",
"V  c #531D09",
"C  c #431C12",
"Z  c #481C14",
"A  c #501E10",
"S  c #49230C",
"D  c #56240C",
"F  c #4B2213",
"G  c #4A2517",
"H  c #532313",
"J  c #5C2A14",
"K  c #582917",
"L  c #5C3419",
"P  c #523614",
"I  c #662B0C",
"U  c #652D17",
"Y  c #673517",
"T  c #753A16",
"R  c #743310",
"E  c #4A1E32",
"W  c #583A28",
"Q  c #552632",
"!  c #463937",
"~  c #4D342C",
"^  c #783923",
"/  c #693529",
"(  c #7B1E22",
")  c #78461B",
"_  c #6B4419",
"`  c #584737",
"'  c #51462B",
"]  c #7A5526",
"[  c #684836",
"{  c #785737",
"}  c #6E4D2D",
"|  c #0E1F41",
" . c #141E41",
".. c #0E2348",
"X. c #132245",
"o. c #1D2343",
"O. c #12254C",
"+. c #12294E",
"@. c #1C274A",
"#. c #142C53",
"$. c #1A2D54",
"%. c #152D57",
"&. c #16325A",
"*. c #1C345C",
"=. c #173057",
"-. c #232542",
";. c #252945",
":. c #2A2B44",
">. c #252A4B",
",. c #2A2D4C",
"<. c #272746",
"1. c #322E4B",
"2. c #342C44",
"3. c #2D324D",
"4. c #2D3146",
"5. c #34334C",
"6. c #393748",
"7. c #282E52",
"8. c #2D3354",
"9. c #27345A",
"0. c #323554",
"q. c #3B3A55",
"w. c #333659",
"e. c #343B5C",
"r. c #3B3B5A",
"t. c #373853",
"y. c #302F51",
"u. c #1C3A63",
"i. c #1E3963",
"p. c #233B64",
"a. c #2A3C65",
"s. c #333C62",
"d. c #393E64",
"f. c #433C49",
"g. c #433E5A",
"h. c #423B54",
"j. c #3B415C",
"k. c #29426D",
"l. c #3C4363",
"z. c #3A446B",
"x. c #384569",
"c. c #294976",
"v. c #374A75",
"b. c #3A527C",
"n. c #2C507D",
"m. c #1F406B",
"M. c #48424A",
"N. c #564948",
"B. c #474559",
"V. c #544D55",
"C. c #5A535B",
"Z. c #775B46",
"A. c #655957",
"S. c #695147",
"D. c #776658",
"F. c #716752",
"G. c #464966",
"H. c #4A5269",
"J. c #555768",
"K. c #454E74",
"L. c #495777",
"P. c #565978",
"I. c #544C6E",
"U. c #58667B",
"Y. c #5E606B",
"T. c #636678",
"R. c #736D6F",
"E. c #625E65",
"W. c #833D15",
"Q. c #8B380C",
"!. c #943029",
"~. c #87471A",
"^. c #974C19",
"/. c #975418",
"(. c #8A5218",
"). c #A55819",
"_. c #B45A0E",
"`. c #B46C1C",
"'. c #895927",
"]. c #905429",
"[. c #A25526",
"{. c #956D33",
"}. c #A97326",
"|. c #AD702B",
" X c #9F6111",
".X c #C56A17",
"XX c #D57212",
"oX c #C97327",
"OX c #E07C0E",
"+X c #8D6E51",
"@X c #AD7A4C",
"#X c #8B7A6C",
"$X c #985E77",
"%X c #BF494A",
"&X c #B58737",
"*X c #98813F",
"=X c #D6871D",
"-X c #E9890F",
";X c #CE8C2F",
":X c #EDA126",
">X c #B38850",
",X c #968775",
"<X c #AD9170",
"1X c #BEB06C",
"2X c #F2A55C",
"3X c #CC9A66",
"4X c #D0AB77",
"5X c #EFB470",
"6X c #D5A051",
"7X c #FBDD5F",
"8X c #385785",
"9X c #2E5482",
"0X c #475984",
"qX c #4F5D87",
"wX c #4A638B",
"eX c #586686",
"rX c #496895",
"tX c #576B95",
"yX c #597299",
"uX c #517398",
"iX c #666B89",
"pX c #677589",
"aX c #677697",
"sX c #71768A",
"dX c #5078A6",
"fX c #6A7CA2",
"gX c #728695",
"hX c #5684AE",
"jX c #7A89A7",
"kX c #7798B6",
"lX c #6F8BAE",
"zX c #7E9AC0",
"xX c #8E908E",
"cX c #ACA992",
"vX c #8997AC",
"bX c #88A4B6",
"nX c #95ABB8",
"mX c #99AFB7",
"MX c #A1ADB4",
"NX c #ADB4B1",
"BX c #9DA187",
"VX c #CDBA97",
"CX c #B8C1B8",
"ZX c #F7CF94",
"AX c #CFCCB6",
"SX c #EED7AC",
"DX c #FBE4BD",
"FX c #E4CB92",
"GX c #97B1C4",
"HX c #A6B9C4",
"JX c #B7C8CB",
"KX c #ABC6CE",
"LX c #D6D8C9",
"PX c #C9D1CB",
"IX c #E6DFC8",
"UX c #E7E3CD",
/* pixels */
"#.#.#.#.#.#.#.+.+.+.O.O.O...............| | | | | | | i i i i d d d d d d d a a a a a a a p p p p p p t t t t y y y u u y y y y ",
"&.&.#.#.#.#.#.#.#.#.+.+.O.O.O.O.O...O.........X.| | X.|  . . . .d d d d d d f f f f d d a a a a p p t p p p p y u y y y y y y u ",
"&.&.&.&.&.%.#.#.%.#.#.#.+.+.O.+.O.O.O.O.O.O.O.X.X.X.X.X.X.X.X.X. . . . .f f f f f f f f f d a p p p t t t y p a a u u u u u u u ",
"*.&.*.*.&.&.&.&.%.%.#.#.#.#.#.#.#.+.+.O.+.+.O.O.O.O.O.X.X.X.X.X.X.X.o.X.X.o.o.f f f f f a a p p p p p p a s s s s s s u u u y y ",
"u.u.*.&.*.*.&.&.&.*.=.%.$.$.$.#.#.#.#.#.#.#.+.+.#.+.O.O.@.@.@.@.@.o.o.o.o.o.o.o. .j d d a a a a a a s s k c s s s a u u u u u u ",
"u.u.u.i.u.u.&.&.*.*.*.*.=.$.$.=.$.%.$.$.$.$.$.$.#.$.@.@.@.@.@.@.@.@.>.;.-.-.-.o. .d  .d d d d f c c c c s f s a a a u u u u u y ",
"u.u.i.i.i.i.i.i.i.i.*.*.*.*.*.*.*.*.*.*.*.$.$.$.$.$.$.$.$.>.>.>.>.>.>.>.>.@.o. .X. . . .j -.-.-.-.-.c f f s s s s s a a u u y y ",
"k.m.m.m.p.p.p.i.p.p.p.p.p.*.i.*.*.*.*.*.*.*.9.9.*.*.9.7.7.7.8.8.y.,.,.,.>.>.X.X.o.;.>.>.:.:.:.;.-.c f f f s s s a a a p p p p y ",
"c.c.c.k.k.k.k.p.p.k.p.p.p.p.a.a.a.p.p.p.p.p.9.9.9.9.9.7.8.8.8.0.8.7.>.>.>.>.>.>.>.1.5.5.:.:.-.-.o.j f f f f a a a a a a u u u u ",
"c.c.c.c.k.k.k.k.k.k.k.k.k.k.k.a.a.s.a.a.a.p.p.p.p.9.9.w.w.w.8.7.7.$.7.7.y.1.1.1.:.,.,.,.;.;.-.o.j j j j j f f f s s s a a u s s ",
"n.c.c.c.c.c.c.c.c.k.k.k.k.k.k.k.k.k.s.a.a.a.a.a.s.s.d.r.w.9.9.7.8.0.w.q.h.q.t.0.,.>.>.>.>.>.-.-.-.-.c c j j j f f f s s s s s s ",
"n.n.n.n.c.c.c.c.c.c.c.c.v.v.v.k.z.z.z.z.z.z.z.z.l.l.d.s.w.9.w.w.t.r.r.r.r.w.0.,.>.>.>.>.>.>.;.:.;.-.-.-.j j j f f f s a a a a a ",
"9X9X9X9X9X8X8Xb.b.b.b.b.v.b.b.v.v.v.v.v.v.z.z.x.d.s.s.s.s.s.s.e.e.e.w.w.w.8.8.8.,.,.,.,.,.:.,.:.:.-.-.-.-.c j j f d a a a a a a ",
"9X9X8X8X8Xx.8.e.K.0X0X0Xb.0X2.1.8Xb.b.K.v.z.v.k.k.k.s.s.s.s.s.d.e.e.e.w.w.8.8.8.8.7.7.,.,.,.>.;.;.;.-.-.-.j j j f f j f s s s s ",
"8X8X8X8Xb.u 8 # v qX0X0X0X0Xv + h.0Xb.v.v.v.v.z.z.z.z.G.G.G.d.d.d.e.w.0.8.8.8.8.8.7.7.7.>.;.>.>.;.;.;.-.-.o.-.-.-.c c c c k s s ",
"wXwXqXwXb.8 w e 6.wX0X0X0X0X,.X g 0X8Xb.K.K.K.G.I.G.G.G.G.z.x.s.s.s.e.9.8.8.8.8.8.y.,.,.,.,.,.>.>.>.;.-.;.;.;.;.-.c c c c k k k ",
"tXtXtXtX0X* . X :.rXwXrXwXrX3.@ g 0XL.P.P.I.I.I.B.& & x.z.s.d.s.s.s.e.w.9.9.9.8.8.8.8.0.5.,.,.,.>.>.>.>.>.;.;.;.-.c c c c c c c ",
"tXyXtXyXwXz % X :.rXrXrXrXrX8.@ g qXqXP.P.L.L.K.H.8 o q.z.$X!.b x.e.e.w.0.0.w.0.0.0.0.0.8.3.,.,.,.>.>.:.:.<.:.-.-.-.v v v v c c ",
"yXyXuXdXrXn ! x 4.dXrXtXtXtX0.@ g qXqX0X0XL.K.v.P.g o g.I.%X!.E z.r.r.q.t.t.r.w.w.0.8.8.8.8.3.3.1.1.1.2.2.2.2.2.2.:.:.v c j j s ",
"dXdXdXdXrXy % @ 5.dXuXuXuXyXe.@ x eXqXL.L.K.K.K.0.X o v I.!.( E l.g.g.r.r.e.s.e.w.w.0.0.t.5.5.5.5.5.5.5.1.1.1.:.;.-.o.j j j j f ",
"hXhXdXhXuXm w x f.fXtXyXtXyXj.% g eXP.P.I.K.K.K.q.8 # v I.#X[ E G.G.G.d.r.r.r.r.q.q.h.h.q.5.5.t.5.5.5.5.,.;.>.;.-.o.o.o.j j j j ",
"hXhXhXlXyXl & % 6.fXaXaXiXtXl.% g eXeXqXP.L.L.L.B.8 + b P.cXZ.Q G.B.B.g.B.B.B.g.h.q.h.h.r.q.q.w.0.8.8.7.>.;.>.;.;.;.-.-.o.j j j ",
"lXlXlXlXaXk & $ f.fXiXiXiXaXG.% z eXeXqXP.P.P.eXG.X . b P.BXZ.Q H.G.B.B.B.B.B.B.h.h.r.e.e.w.w.w.8.8.8.8.,.,.,.;.;.;.;.-.-.c j j ",
"kXkXkXjXaXk & % f.jXaXlXlXlXK.% g iXiXiXiXaXeXeXG.% o b T.BXZ.Q H.G.G.B.B.B.G.G.l.l.l.e.e.e.e.w.0.0.8.8.3.3.3.,.,.:.;.;.-.c -.j ",
"zXkXkXjXaXn 8 # B.zXkXlXjXjXL.8 g sXaXaXiXeXeXiXG.` e m T.cXZ.Q J.I.H.H.K.K.v.z.z.x.l.l.l.e.e.w.w.0.0.8.8.3.3.4.,.,.:.;.;.v c c ",
"bXvXjXjXgXv 3 # M.vXjXjXvXjXU.8 x aXaXiXiXeXU.eXB.n 8 n T.' G Q wXL.L.L.L.K.K.K.z.x.l.l.l.j.e.e.e.0.t.t.0.0.3.3.4.4.:.:.:.:.v v ",
"vXbXvXbXjXv & $ V.bXvXvXkXkXU.8 x pXiXiXU.T.T.iXJ.m 8 6.tXF.W Q rXwXwXL.L.L.L.K.v.z.z.l.l.l.j.j.r.q.t.t.t.0.0.5.4.4.4.:.:.:.v v ",
"mXGXGXGXvXm 3 + V.GXbXbXjXjXU.@ z R.sXsXsXgXjXlXU.x 2 6.aXcX{ Q yXeXeXeXL.L.L.L.H.H.G.G.G.l.B.j.j.r.q.t.t.t.t.5.5.4.4.4.:.:.:.v ",
"mXmXnXmXbXm 3 + V.nXvXxXxXvXpXx z vXbXbXkXkXkXkXU.Z.} 6.gXBX'.Q yXeXeXeXeXU.U.L.L.H.H.H.G.G.B.B.j.j.j.q.q.q.t.t.5.5.4.2.2.2.v v ",
"MXMXMXmXvXn 3 # N.vXxXMXMXHXxXF.x bXGXbXbXbXkXbXpXw 3 M.gXBX{ Q gXpXpXeXeXU.U.U.P.J.H.H.H.G.B.B.B.B.B.B.h.q.q.6.6.6.6.6.2.b b b ",
"NXNXNXNXMXn 3 # A.JXJXKXKXKXgX# x nXGXmXnXbXbXbXgX8 O M.jXxX} / gXsXpXpXiXT.T.U.Y.J.J.J.H.H.V.B.B.B.M.M.M.f.f.6.6.6.6.6.n n b b ",
"PXPXPXPXCXn 3 # E.PXJXJXJXJXxX~ ! MXHXMXmXmXnXmXgXw O M.vXn 5 / gXgXsXsXsXT.T.T.T.Y.J.J.J.C.C.V.V.B.M.M.M.M.f.f.6.6.6.6.n n b b ",
"LXLXLXLXCXn 3 + D.LXPXPXPXPXBX` S.NXJXNXNXNXMXMXxXw o N.xX` K / xXxXxXsXR.R.R.R.R.E.E.J.C.C.C.V.V.V.M.M.f.f.f.f.f.! ! n n n b b ",
"LXLXLXUXAX! 3 + D.UXLXLXLXLXcX~ w NXPXCXCXNXNXNXxXw o N.cX,X/ / xXxXxX,X#XR.R.R.R.R.E.A.A.A.C.V.V.N.N.M.M.N.W f.! +XF.! n n b b ",
"IXIXIXUXAX' 2 + D.UXLXLXAXAX<X# e NXAXAXAXVXVXVX,Xe o [ cXD.K ^ BX,X,X,X#X#X#XR.D.D.D.A.A.A.A.N.N.N.N.N.! Z.} ! ! { ' x n n n m ",
"DXDXDXDXSX` ' 3 +XDXSXSXSXSX<X8 0 VXFXVXVXVXVXVX<Xe o [ 4X,XY T <X<X<X,X#X#X+X+X+XD.F.Z.S.S.S.S.N.N.` ` ! { W ! ! ~ P z m 8 8 x ",
"{ 4XSXSXZXW ` r +XSXZXZXZXZX3Xe 0 4XFX5X5X5X4X4X>X6 o } 3XcX{ ^ <X>X@X@X@X+X+X+XZ.Z.S.S.S.N.` ` ! ! ! ! ! { ] n n ~ W 8 x # # [ ",
"7 >XZX>X@X{ { ` +X5X5X5X>X3X'.F.F.6X2X2X2X2X2X2X@X6 O / @XF.^ I { } G [ W ~ ~ W 0 W [ W W ~ G W ~ ~ W F x S./ ~ 0 e e 0 ~ : # ' ",
"M _ 6X{.[ } P r L Y Y '.~ W ) ` ! [.;X|.].} |.oX].> + H ~.L Q.Q._ H G 0 Y T T ~.D 9 G F G 9 F Z G C C 5 5 9 D 6 9 G 2 G G 9 F M ",
"I Y Y } +X] _ P _ Y S Y L W Z.6 7 ) T ) L W {.'.K [ e _ }.&X>X=X}.'.'._ `.=X~.T ~.O : 2 4 o # + . : 0 o $ : 5 4 $ # $ o 2 ] ] X ",
";X;X&X] }.4X1X'.L '.>X{.] K W - P >X{.}.*X>X{.{.{.{ W ) '.} +X'.'.) Y (.|.&XM : 2 O + o o . $ + . o o o o o O $   # _ &X6X7X{.X ",
"I J G S K 7 e e : : }._ S < - : 4 F S S S G 6 6 P ) M S S S ; S Y ) |.6X&X(./.(.F C 3 : 3 S 2 + 2 3 : 5 > - O + ; <  X7X7X*XW . ",
"; = ; M 7 : o : 9 Y ~.Y 4 2 + O K Y o = = O O - M ) M S /.) > K Y '.{.] 2 > M J F Z + + 9 L 6 - 2 + + 6 K : 4 H Y }.~.{.} . - : ",
"O o o J H O o o + 2 = - O o o o K /.F > O - ; O O 4 L Y T '.> 4 = o o o - + . o + + o o o . 3 4 2 # 2 3 : @ K T K oXT ~.H 5 J H ",
"o o o C - o . o : 4 - > : o : O 4 ~.U H 4 > 4 O O = 7 F L {.M 4 ; : - O ; = + o . o .         . . . . . . . 4 4 5 U H /.) U Y K ",
"o o o O > O o O : Z 4 o . 2 G : Y T ~.Y 7 : ; = > > D ) B 1 0 2 < - ; 7 7 < O O $ $ X X X . o . O o $ $ o o O o . .             ",
"O o O O O O O O O : - o o o o O > N F M 7 ; > O - 4 L Y ^.S o o < O O U ) 5 4 o O o # @ o o o $ + r ' r O o # .   .             ",
"o o O O O O O = O o O O o O = < R ;XK = 5 7 ; = o . . + 5 ; o - 7 7 5 }.:XJ > 2 O O o .   . . . o e ' r o                 .     ",
"  6 S o O O 9 6 = O O O O ; 5 U =X=XJ I D 7 7 = = o = ; ; ; O ; 6 J ~.`.`.T 4 0 o o o .   . . . . . . . o o . o . . .     . .   ",
"o 5 I + = o G C O ; N ; ; 5 N J `.I [..XT S M ; O = 7 5 7 - = ; ; < J Y 5 J 6 : O . $ .   . . . . . . . . o O O .               ",
"o : M 4 + ; ; ; , 4 J > : J U U A B |.[.~.Y D < O ; B B ; . . - 1 ; N 5 O - 0 : : . $ O o o . # . o o o o o o o o               ",
"5 T @XK O ) |.5 < , < > < D B I T U oXK K ) J S 7 B D 7 = = . O 4 N Y 1 - o o o O o 9 2 o o O ; O o + > + O o O .               ",
"N T {.7 B _ '.B U M M 5 H D 9 .X.XK [.Z C 9 U T N B ~.N < - O : > D H 4 - o o o o : K 9 o o o 4 > - M B > - = .       X X       ",
"N Y '.Y (.R T ).T C I M U N < R ^.> U C 5 : 5 B B I ).D 5 7 > > > I D ; = = o o o < < F H - O M S > ~.) 5 7 < o       .         ",
"M ~.~.Y (./._.`.K = J 2 G B = < Z 9 K Z < ; 5 B ~.oX=X/.D S H 6 : K N > = ; = o O 4 > F F 1 < Y ~.M T ;X/.M M ; o             X ",
"C XX).~.).^.T T 0 O > O 0 > o F U H ^ ^ U Z J I ).;XQ./.I Y Y M > 7 7 5 > = M ; ; O . : + : 4 T Y 5 4 ~.^ Y I O o             . ",
"T _.R U W.T K J o o o o = C + F ^ U [.~.^.[.).)./.(.V T T ^.~.^ C 4 L F , O B ~./.@   . .     F 5 = O o q Z J O                 ",
"R R 4 H ~.I H ~.o . # o = 4 O 5 K H ~.J ~.`.oXT W.)._.`.).).T K 9 9 N 4 > < , V ~.4 o O .     # F o o O o $ 2 : . o $ 0 #     . ",
"4 4 o : Y U Z ^.2 o o o = O O 4 4 5 H Z T [.oXW..X-XOX`.`./.T N 5 Y 5 > C N A 5 B V A J o o # $ 2 # . + : O o : o .   # 3 .   . ",
"4 O o O U H Z G o + O O ; - O : : M C 0 J T oX_._._..X/.).).J H F ^ ^ U H I B B N B V R 9 2 + o + : . + 4 2 : G : .             ",
"O O o o > 4 O : : : : O ; 4 < ; 4 C 9 9 A H )._.XXXX-X^..X).U J J T ^ H J V 1 = , < B V J 2 .   o o   C G G 2 U q               ",
"5 - . o . o o + : = O O ; = > : > 0 Z F C Y T ^.XX-X:X^.-X`.^.[.Y J N > 1 ; , = O O > 5 B O   . .     o 2 G G U #               ",
"5 ; o o : o o > > o o , 5 5 5 > , 4 > 4 G U U W.W._.-X.X-X-X.XT Y H 5 > , O O O o o o O O o . . @       . + C H .               ",
"5 4 : + 0 > o + : o O ; B V V 5 > F 9 C H I W.~.^..XXXXXOXXX^.A H H > o . O O O O O o o   . . .         . . o +                 "
};
