
/* XPM */
static char *flexible_stone_64_xpm[] = {
"64 64 4 1",
"0 c #7A6A5A", /* Base - Arena Oscura */
"1 c #9A8A7A", /* Tono Medio */
"2 c #C0B0A0", /* Tono Claro */
"3 c #605040", /* Grano Oscuro */
"0123012301230123012301230123012301230123012301230123012301230123",
"1230123012301230123012301230123012301230123012301230123012301230",
"2301230123012301230123012301230123012301230123012301230123012301",
"3012301230123012301230123012301230123012301230123012301230123012",
"0123012301230123012301230123012301230123012301230123012301230123",
"1230123012301230123012301230123012301230123012301230123012301230",
"2301230123012301230123012301230123012301230123012301230123012301",
"3012301230123012301230123012301230123012301230123012301230123012",
"0123012301230123012301230123012301230123012301230123012301230123",
"1230123012301230123012301230123012301230123012301230123012301230",
"2301230123012301230123012301230123012301230123012301230123012301",
"3012301230123012301230123012301230123012301230123012301230123012",
"0123012301230123012301230123012301230123012301230123012301230123",
"1230123012301230123012301230123012301230123012301230123012301230",
"2301230123012301230123012301230123012301230123012301230123012301",
"3012301230123012301230123012301230123012301230123012301230123012",
"0123012301230123012301230123012301230123012301230123012301230123",
"1230123012301230123012301230123012301230123012301230123012301230",
"2301230123012301230123012301230123012301230123012301230123012301",
"3012301230123012301230123012301230123012301230123012301230123012",
"0123012301230123012301230123012301230123012301230123012301230123",
"1230123012301230123012301230123012301230123012301230123012301230",
"2301230123012301230123012301230123012301230123012301230123012301",
"3012301230123012301230123012301230123012301230123012301230123012",
"0123012301230123012301230123012301230123012301230123012301230123",
"1230123012301230123012301230123012301230123012301230123012301230",
"2301230123012301230123012301230123012301230123012301230123012301",
"3012301230123012301230123012301230123012301230123012301230123012",
"0123012301230123012301230123012301230123012301230123012301230123",
"1230123012301230123012301230123012301230123012301230123012301230",
"2301230123012301230123012301230123012301230123012301230123012301",
"3012301230123012301230123012301230123012301230123012301230123012",
"0123012301230123012301230123012301230123012301230123012301230123",
"1230123012301230123012301230123012301230123012301230123012301230",
"2301230123012301230123012301230123012301230123012301230123012301",
"3012301230123012301230123012301230123012301230123012301230123012",
"0123012301230123012301230123012301230123012301230123012301230123",
"1230123012301230123012301230123012301230123012301230123012301230",
"2301230123012301230123012301230123012301230123012301230123012301",
"3012301230123012301230123012301230123012301230123012301230123012",
"0123012301230123012301230123012301230123012301230123012301230123",
"1230123012301230123012301230123012301230123012301230123012301230",
"2301230123012301230123012301230123012301230123012301230123012301",
"3012301230123012301230123012301230123012301230123012301230123012",
"0123012301230123012301230123012301230123012301230123012301230123",
"1230123012301230123012301230123012301230123012301230123012301230",
"2301230123012301230123012301230123012301230123012301230123012301",
"3012301230123012301230123012301230123012301230123012301230123012",
"0123012301230123012301230123012301230123012301230123012301230123",
"1230123012301230123012301230123012301230123012301230123012301230",
"2301230123012301230123012301230123012301230123012301230123012301",
"3012301230123012301230123012301230123012301230123012301230123012",
"0123012301230123012301230123012301230123012301230123012301230123",
"1230123012301230123012301230123012301230123012301230123012301230",
"2301230123012301230123012301230123012301230123012301230123012301",
"0123012301230123012301230123012301230123012301230123012301230123",
"1230123012301230123012301230123012301230123012301230123012301230",
"2301230123012301230123012301230123012301230123012301230123012301",
"3012301230123012301230123012301230123012301230123012301230123012",
"0123012301230123012301230123012301230123012301230123012301230123",
"1230123012301230123012301230123012301230123012301230123012301230",
"2301230123012301230123012301230123012301230123012301230123012301",
"3012301230123012301230123012301230123012301230123012301230123012",
"3012301230123012301230123012301230123012301230123012301230123012"
};
