/* XPM */
static char *south_sample[] = {
"64 64 4 1",
"A c #00AA00",
"B c #006600",
"C c #FFFFFF",
"D c #000000",
"DDDDDDDDDDDDDDDDDDDDDDDDDDDDDDDDDDDDDDDDDDDDDDDDDDDDDDDDDDDDDDDD",
"DBBBBBBBBBBBBBBBBBBBBBBBBBBBBBBBBBBBBBBBBBBBBBBBBBBBBBBBBBBBBBBD",
"DBABBBABBBABBBABBBABBBABBBABBBABBBABBBABBBABBBABBBABBBABBBABBBAD",
"DBBBBBBBBBBBBBBBBBBBBBBBBBBBBBBBBBBBBBBBBBBBBBBBBBBBBBBBBBBBBBBD",
"DBABBBABBBABBBABBBABBBABBBABBBABBBABBBABBBABBBABBBABBBABBBABBBAD",
"DBBBBBBBBBBBBBBBBBBBBBBBBBBBBBBBBBBBBBBBBBBBBBBBBBBBBBBBBBBBBBBD",
"DBABBBABBBABBBABBBABBBABBBABBBABBBABBBABBBABBBABBBABBBABBBABBBAD",
"DBBBBBBBBBBBBBBBBBBBBBBBBBBBBBBBBBBBBBBBBBBBBBBBBBBBBBBBBBBBBBBD",
"DBABBBABBBABBBABBBABBBABBBABBBABBBABBBABBBABBBABBBABBBABBBABBBAD",
"DBBBBBBBBBBBBBBBBBBBBBBBBBBBBBBBBBBBBBBBBBBBBBBBBBBBBBBBBBBBBBBD",
"DBABBBABBBABBBABBBABBBABBBABBBABBBABBBABBBABBBABBBABBBABBBABBBAD",
"DBBBBBBBBBBBBBBBBBBBBBBBBBBBBBBBBBBBBBBBBBBBBBBBBBBBBBBBBBBBBBBD",
"DBABBBABBBABBBABBBABBBABBBABBBABBBABBBABBBABBBABBBABBBABBBABBBAD",
"DBBBBBBBBBBBBBBBBBBBBBBBBBBBBBBBBBBBBBBBBBBBBBBBBBBBBBBBBBBBBBBD",
"DBABBBABBBABBBABBBABBBABBBABBBABBBABBBABBBABBBABBBABBBABBBABBBAD",
"DBBBBBBBBBBBBBBBBBBBBBBBBBBBBBBBBBBBBBBBBBBBBBBBBBBBBBBBBBBBBBBD",
"DBABBBABBBABBBABBBABBBABBBABBBABBBABBBABBBABBBABBBABBBABBBABBBAD",
"DBBBBBBBBBBBBBBBBBBBBBBBBBBBBBBBBBBBBBBBBBBBBBBBBBBBBBBBBBBBBBBD",
"DBABBBABBBABBBABBBABBBABBBABBBABBBABBBABBBABBBABBBABBBABBBABBBAD",
"DBBBBBBBBBBBBBBBBBBBBBBBBBBBBBBBBBBBBBBBBBBBBBBBBBBBBBBBBBBBBBBD",
"DBABBBABBBABBBABBBABBBABBBABBBABBBABBBABBBABBBABBBABBBABBBABBBAD",
"DBBBBBBBBBBBBBBBBBBBBBBBBBBBBBBBBBBBBBBBBBBBBBBBBBBBBBBBBBBBBBBD",
"DBABBBABBBABBBABBBABBBABBBABBBABBBABBBABBBABBBABBBABBBABBBABBBAD",
"DBBBBBBBBBBBBBBBBBBBBBBBBBBBBBBBBBBBBBBBBBBBBBBBBBBBBBBBBBBBBBBD",
"DBABBBABBBABBBABBBABBBABBBABBBABBBABBBABBBABBBABBBABBBABBBABBBAD",
"DBBBBBBBBBBBBBBBBBBBBBBBBBBBBBBBBBBBBBBBBBBBBBBBBBBBBBBBBBBBBBBD",
"DBABBBABBBABBBABBBABBBABBBABBBABBBABBBABBBABBBABBBABBBABBBABBBAD",
"DBBBBBBBBBBBBBBBBBBBBBBBBBBBBBBBBBBBBBBBBBBBBBBBBBBBBBBBBBBBBBBD",
"DBABBBABBBABBBABBBABBBABBBABBBABBBABBBABBBABBBABBBABBBABBBABBBAD",
"DBBBBBBBBBBBBBBBBBBBBBBBBBBBBBBBBBBBBBBBBBBBBBBBBBBBBBBBBBBBBBBD",
"DBABBBABBBABBBABBBABBBABBBABBBABBBABBBABBBABBBABBBABBBABBBABBBAD",
"DCCCCCCCCCCCCCCCCCCCCCCCCCCCCCCCCCCCCCCCCCCCCCCCCCCCCCCCCCCCCCCD",
"DBBBBBBBBBBBBBBBBBBBBBBBBBBBBBBBBBBBBBBBBBBBBBBBBBBBBBBBBBBBBBBD",
"DBABBBABBBABBBABBBABBBABBBABBBABBBABBBABBBABBBABBBABBBABBBABBBAD",
"DBBBBBBBBBBBBBBBBBBBBBBBBBBBBBBBBBBBBBBBBBBBBBBBBBBBBBBBBBBBBBBD",
"DBABBBABBBABBBABBBABBBABBBABBBABBBABBBABBBABBBABBBABBBABBBABBBAD",
"DBBBBBBBBBBBBBBBBBBBBBBBBBBBBBBBBBBBBBBBBBBBBBBBBBBBBBBBBBBBBBBD",
"DBABBBABBBABBBABBBABBBABBBABBBABBBABBBABBBABBBABBBABBBABBBABBBAD",
"DBBBBBBBBBBBBBBBBBBBBBBBBBBBBBBBBBBBBBBBBBBBBBBBBBBBBBBBBBBBBBBD",
"DBABBBABBBABBBABBBABBBABBBABBBABBBABBBABBBABBBABBBABBBABBBABBBAD",
"DBBBBBBBBBBBBBBBBBBBBBBBBBBBBBBBBBBBBBBBBBBBBBBBBBBBBBBBBBBBBBBD",
"DBABBBABBBABBBABBBABBBABBBABBBABBBABBBABBBABBBABBBABBBABBBABBBAD",
"DBBBBBBBBBBBBBBBBBBBBBBBBBBBBBBBBBBBBBBBBBBBBBBBBBBBBBBBBBBBBBBD",
"DBABBBABBBABBBABBBABBBABBBABBBABBBABBBABBBABBBABBBABBBABBBABBBAD",
"DBBBBBBBBBBBBBBBBBBBBBBBBBBBBBBBBBBBBBBBBBBBBBBBBBBBBBBBBBBBBBBD",
"DBABBBABBBABBBABBBABBBABBBABBBABBBABBBABBBABBBABBBABBBABBBABBBAD",
"DBBBBBBBBBBBBBBBBBBBBBBBBBBBBBBBBBBBBBBBBBBBBBBBBBBBBBBBBBBBBBBD",
"DBABBBABBBABBBABBBABBBABBBABBBABBBABBBABBBABBBABBBABBBABBBABBBAD",
"DBBBBBBBBBBBBBBBBBBBBBBBBBBBBBBBBBBBBBBBBBBBBBBBBBBBBBBBBBBBBBBD",
"DBABBBABBBABBBABBBABBBABBBABBBABBBABBBABBBABBBABBBABBBABBBABBBAD",
"DBBBBBBBBBBBBBBBBBBBBBBBBBBBBBBBBBBBBBBBBBBBBBBBBBBBBBBBBBBBBBBD",
"DBABBBABBBABBBABBBABBBABBBABBBABBBABBBABBBABBBABBBABBBABBBABBBAD",
"DBBBBBBBBBBBBBBBBBBBBBBBBBBBBBBBBBBBBBBBBBBBBBBBBBBBBBBBBBBBBBBD",
"DBABBBABBBABBBABBBABBBABBBABBBABBBABBBABBBABBBABBBABBBABBBABBBAD",
"DBBBBBBBBBBBBBBBBBBBBBBBBBBBBBBBBBBBBBBBBBBBBBBBBBBBBBBBBBBBBBBD",
"DBABBBABBBABBBABBBABBBABBBABBBABBBABBBABBBABBBABBBABBBABBBABBBAD",
"DBBBBBBBBBBBBBBBBBBBBBBBBBBBBBBBBBBBBBBBBBBBBBBBBBBBBBBBBBBBBBBD",
"DBABBBABBBABBBABBBABBBABBBABBBABBBABBBABBBABBBABBBABBBABBBABBBAD",
"DBBBBBBBBBBBBBBBBBBBBBBBBBBBBBBBBBBBBBBBBBBBBBBBBBBBBBBBBBBBBBBD",
"DBABBBABBBABBBABBBABBBABBBABBBABBBABBBABBBABBBABBBABBBABBBABBBAD",
"DBBBBBBBBBBBBBBBBBBBBBBBBBBBBBBBBBBBBBBBBBBBBBBBBBBBBBBBBBBBBBBD",
"DBABBBABBBABBBABBBABBBABBBABBBABBBABBBABBBABBBABBBABBBABBBABBBAD",
"DBBBBBBBBBBBBBBBBBBBBBBBBBBBBBBBBBBBBBBBBBBBBBBBBBBBBBBBBBBBBBBD",
"DDDDDDDDDDDDDDDDDDDDDDDDDDDDDDDDDDDDDDDDDDDDDDDDDDDDDDDDDDDDDDDD"
};
