/* XPM */
static char *door[] = {
"64 64 7 1 ",
"  c #1a1a1a",
". c #2d2d2d",
"X c #3e2723",
"o c none",
"O c #795548",
"+ c #8d6e63",
"@ c #ffc107",
"                                                                ",
" ............................................................   ",
" ..XXXXXXXXXXXXXXXXXXXXXXXXXXXXXXXXXXXXXXXXXXXXXXXXXXXXXXXX..   ",
" ..XXooooooooooooooooXXXXooooooooooooooooXXXXooooooooooooXX..   ",
" ..XXooooooooooooooooXXXXooooooooooooooooXXXXooooooooooooXX..   ",
" ..XXooooOOOOOOOOooooXXXXooooOOOOOOOOooooXXXXooooOOOOOOOOXX..   ",
" ..XXoooOOOOOOOOoooooXXXXoooOOOOOOOOoooooXXXXoooOOOOOOOOOXX..   ",
" ..XXoooOOOOOOOOoooooXXXXoooOOOOOOOOoooooXXXXoooOOOOOOOOOXX..   ",
" ..XXoooOOOOOOOOoooooXXXXoooOOOOOOOOoooooXXXXoooOOOOOOOOOXX..   ",
" ..XXoooOOOOOOOOoooooXXXXoooOOOOOOOOoooooXXXXoooOOOOOOOOOXX..   ",
" ..XXoooOOOOOOOOoooooXXXXoooOOOOOOOOoooooXXXXoooOOOOOOOOOXX..   ",
" ..XXoooOOOOOOOOoooooXXXXoooOOOOOOOOoooooXXXXoooOOOOOOOOOXX..   ",
" ..XXoooOOOOOOOOoooooXXXXoooOOOOOOOOoooooXXXXoooOOOOOOOOOXX..   ",
" ..XXoooOOOOOOOOoooooXXXXoooOOOOOOOOoooooXXXXoooOOOOOOOOOXX..   ",
" ..XXooooOOOOOOOOooooXXXXooooOOOOOOOOooooXXXXooooOOOOOOOOXX..   ",
" ..XXooooooooooooooooXXXXooooooooooooooooXXXXooooooooooooXX..   ",
" ..XXooooooooooooooooXXXXooooooooooooooooXXXXooooooooooooXX..   ",
" ..XXXXXXXXXXXXXXXXXXXXXXXXXXXXXXXXXXXXXXXXXXXXXXXXXXXXXXXX..   ",
" ..XXooooooooooooooooXXXXooooooooooooooooXXXXooooooooooooXX..   ",
" ..XXooooooooooooooooXXXXooooooooooooooooXXXXooooooooooooXX..   ",
" ..XXooooOOOOOOOOooooXXXXooooOOOOOOOOooooXXXXooooOOOOOOOOXX..   ",
" ..XXoooOOOOOOOOoooooXXXXoooOOOOOOOOoooooXXXXoooOOOOOOOOOXX..   ",
" ..XXoooOOOOOOOOoooooXXXXoooOOOOOOOOoooooXXXXoooOOOOOOOOOXX..   ",
" ..XXoooOOOOOOOOoooooXXXXoooOOOOOOOOoooooXXXXoooOOOOOOOOOXX..   ",
" ..XXoooOOOOOOOOoooooXXXXoooOOOOOOOOoooooXXXXoooOOOOOOOOOXX..   ",
" ..XXoooOOOOOOOOoooooXXXXoooOOOOOOOOoooooXXXXoooOOOOOOOOOXX..   ",
" ..XXoooOOOOOOOOoooooXXXXoooOOOOOOOOoooooXXXXoooOOOOOOOOOXX..   ",
" ..XXoooOOOOOOOOoooooXXXXoooOOOOOOOOoooooXXXXoooOOOOOOOOOXX..   ",
" ..XXoooOOOOOOOOoooooXXXXoooOOOOOOOOoooooXXXXoooOOOOOOOOOXX..   ",
" ..XXooooOOOOOOOOooooXXXXooooOOOOOOOOooooXXXXooooOOOOOOOOXX..   ",
" ..XXooooooooooooooooXXXXooooooooooooooooXXXXooooooooooooXX..   ",
" ..XXooooooooooooooooXXXXooooooooooooooooXXXXooooooooooooXX..   ",
" ..XXXXXXXXXXXXXXXXXXXXXXXXXXXXXXXXXXXXXXXXXXXXXXXXXXXXXXXX..   ",
" ..XXooooooooooooooooXXXXooooooooooooooooXXXXooooooooooooXX..   ",
" ..XXooooooooooooooooXXXXooooooooooooooooXXXXoo@@@@@@ooooXX..   ",
" ..XXooooOOOOOOOOooooXXXXooooOOOOOOOOooooXXXXoo@@@@@@OOOOXX..   ",
" ..XXoooOOOOOOOOoooooXXXXoooOOOOOOOOoooooXXXXoo@@@@@@OOOOXX..   ",
" ..XXoooOOOOOOOOoooooXXXXoooOOOOOOOOoooooXXXXoo@@@@@@OOOOXX..   ",
" ..XXoooOOOOOOOOoooooXXXXoooOOOOOOOOoooooXXXXoo@@@@@@OOOOXX..   ",
" ..XXoooOOOOOOOOoooooXXXXoooOOOOOOOOoooooXXXXoo@@@@@@OOOOXX..   ",
" ..XXoooOOOOOOOOoooooXXXXoooOOOOOOOOoooooXXXXoooOOOOOOOOOXX..   ",
" ..XXoooOOOOOOOOoooooXXXXoooOOOOOOOOoooooXXXXoooOOOOOOOOOXX..   ",
" ..XXoooOOOOOOOOoooooXXXXoooOOOOOOOOoooooXXXXoooOOOOOOOOOXX..   ",
" ..XXoooOOOOOOOOoooooXXXXoooOOOOOOOOoooooXXXXoooOOOOOOOOOXX..   ",
" ..XXooooOOOOOOOOooooXXXXooooOOOOOOOOooooXXXXooooOOOOOOOOXX..   ",
" ..XXooooooooooooooooXXXXooooooooooooooooXXXXooooooooooooXX..   ",
" ..XXooooooooooooooooXXXXooooooooooooooooXXXXooooooooooooXX..   ",
" ..XXXXXXXXXXXXXXXXXXXXXXXXXXXXXXXXXXXXXXXXXXXXXXXXXXXXXXXX..   ",
" ..XXooooooooooooooooXXXXooooooooooooooooXXXXooooooooooooXX..   ",
" ..XXooooooooooooooooXXXXooooooooooooooooXXXXooooooooooooXX..   ",
" ..XXooooOOOOOOOOooooXXXXooooOOOOOOOOooooXXXXooooOOOOOOOOXX..   ",
" ..XXoooOOOOOOOOoooooXXXXoooOOOOOOOOoooooXXXXoooOOOOOOOOOXX..   ",
" ..XXoooOOOOOOOOoooooXXXXoooOOOOOOOOoooooXXXXoooOOOOOOOOOXX..   ",
" ..XXoooOOOOOOOOoooooXXXXoooOOOOOOOOoooooXXXXoooOOOOOOOOOXX..   ",
" ..XXoooOOOOOOOOoooooXXXXoooOOOOOOOOoooooXXXXoooOOOOOOOOOXX..   ",
" ..XXoooOOOOOOOOoooooXXXXoooOOOOOOOOoooooXXXXoooOOOOOOOOOXX..   ",
" ..XXoooOOOOOOOOoooooXXXXoooOOOOOOOOoooooXXXXoooOOOOOOOOOXX..   ",
" ..XXoooOOOOOOOOoooooXXXXoooOOOOOOOOoooooXXXXoooOOOOOOOOOXX..   ",
" ..XXoooOOOOOOOOoooooXXXXoooOOOOOOOOoooooXXXXoooOOOOOOOOOXX..   ",
" ..XXooooOOOOOOOOooooXXXXooooOOOOOOOOooooXXXXooooOOOOOOOOXX..   ",
" ..XXooooooooooooooooXXXXooooooooooooooooXXXXooooooooooooXX..   ",
" ..XXooooooooooooooooXXXXooooooooooooooooXXXXooooooooooooXX..   ",
" ..XXXXXXXXXXXXXXXXXXXXXXXXXXXXXXXXXXXXXXXXXXXXXXXXXXXXXXXX..   ",
" ............................................................   "
};
