/* XPM */
static char *east[] = {
"64 64 4 1",
"A c #AAAAAA",
"B c #888888",
"C c #FFFF00",
"D c #666666",
"AAAAAAAAAAAAAAAAAAAAAAAAAAAAAAAAAAAAAAAAAAAAAAAAAAAAAAAAAAAAAAAA",
"ABBBBBBBBBBBBBBBBBBBBBBBBBBBBBBBBBBBBBBBBBBBBBBBBBBBBBBBBBBBBBBA",
"ABABABABABABABABABABABABABABABABABABABABABABABABABABABABABABABAB",
"ABBBBBBBBBBBBBBBBBBBBBBBBBBBBBBBBBBBBBBBBBBBBBBBBBBBBBBBBBBBBBBA",
"ABABABABABABABABABABABABABABABABABABABABABABABABABABABABABABABAB",
"ABBBBBBBBBBBBBBBBBBBBBBBBBBBBBBBBBBBBBBBBBBBBBBBBBBBBBBBBBBBBBBA",
"ABABABABABABABABABABABABABABABABABABABABABABABABABABABABABABABAB",
"ABBBBBBBBBBBBBBBBBBBBBBBBBBBBBBBBBBBBBBBBBBBBBBBBBBBBBBBBBBBBBBA",
"ABABABABABABABABABABABABABABABABABABABABABABABABABABABABABABABAB",
"ABBBBBBBBBBBBBBBBBBBBBBBBBBBBBBBBBBBBBBBBBBBBBBBBBBBBBBBBBBBBBBA",
"ABABABABABABABABABABABABABABABABABABABABABABABABABABABABABABABAB",
"ABBBBBBBBBBBBBBBBBBBBBBBBBBBBBBBBBBBBBBBBBBBBBBBBBBBBBBBBBBBBBBA",
"ABABABABABABABABABABABABABABABABABABABABABABABABABABABABABABABAB",
"ABBBBBBBBBBBBBBBBBBBBBBBBBBBBBBBBBBBBBBBBBBBBBBBBBBBBBBBBBBBBBBA",
"ABABABABABABABABABABABABABABABABABABABABABABABABABABABABABABABAB",
"ABBBBBBBBBBBBBBBBBBBBBBBBBBBBBBBBBBBBBBBBBBBBBBBBBBBBBBBBBBBBBBA",
"ABABABABABABABABABABABABABABABABABABABABABABABABABABABABABABABAB",
"ABBBBBBBBBBBBBBBBBBBBBBBBBBBBBBBBBBBBBBBBBBBBBBBBBBBBBBBBBBBBBBA",
"ABABABABABABABABABABABABABABABABABABABABABABABABABABABABABABABAB",
"ABBBBBBBBBBBBBBBBBBBBBBBBBBBBBBBBBBBBBBBBBBBBBBBBBBBBBBBBBBBBBBA",
"ABABABABABABABABABABABABABABABABABABABABABABABABABABABABABABABAB",
"ABBBBBBBBBBBBBBBBBBBBBBBBBBBBBBBBBBBBBBBBBBBBBBBBBBBBBBBBBBBBBBA",
"ABABABABABABABABABABABABABABABABABABABABABABABABABABABABABABABAB",
"ABBBBBBBBBBBBBBBBBBBBBBBBBBBBBBBBBBBBBBBBBBBBBBBBBBBBBBBBBBBBBBA",
"ABABABABABABABABABABABABABABABABABABABABABABABABABABABABABABABAB",
"ABBBBBBBBBBBBBBBBBBBBBBBBBBBBBBBBBBBBBBBBBBBBBBBBBBBBBBBBBBBBBBA",
"ABABABABABABABABABABABABABABABABABABABABABABABABABABABABABABABAB",
"ABBBBBBBBBBBBBBBBBBBBBBBBBBBBBBBBBBBBBBBBBBBBBBBBBBBBBBBBBBBBBBA",
"ABABABABABABABABABABABABABABABABABABABABABABABABABABABABABABABAB",
"ABBBBBBBBBBBBBBBBBBBBBBBBBBBBBBBBBBBBBBBBBBBBBBBBBBBBBBBBBBBBBBA",
"ABABABABABABABABABABABABABABABCABABABABABABABABABABABABABABABABA",
"ABBBBBBBBBBBBBBBBBBBBBBBBBBBBBCBBBBBBBBBBBBBBBBBBBBBBBBBBBBBBBBB",
"ABABABABABABABABABABABABABABABCABABABABABABABABABABABABABABABABA",
"ABBBBBBBBBBBBBBBBBBBBBBBBBBBBBCBBBBBBBBBBBBBBBBBBBBBBBBBBBBBBBBB",
"ABABABABABABABABABABABABABABABCABABABABABABABABABABABABABABABABA",
"ABBBBBBBBBBBBBBBBBBBBBBBBBBBBBCBBBBBBBBBBBBBBBBBBBBBBBBBBBBBBBBB",
"ABABABABABABABABABABABABABABABCABABABABABABABABABABABABABABABABA",
"ABBBBBBBBBBBBBBBBBBBBBBBBBBBBBCBBBBBBBBBBBBBBBBBBBBBBBBBBBBBBBBB",
"ABABABABABABABABABABABABABABABCABABABABABABABABABABABABABABABABA",
"ABBBBBBBBBBBBBBBBBBBBBBBBBBBBBCBBBBBBBBBBBBBBBBBBBBBBBBBBBBBBBBB",
"ABABABABABABABABABABABABABABABCABABABABABABABABABABABABABABABABA",
"ABBBBBBBBBBBBBBBBBBBBBBBBBBBBBCBBBBBBBBBBBBBBBBBBBBBBBBBBBBBBBBB",
"ABABABABABABABABABABABABABABABCABABABABABABABABABABABABABABABABA",
"ABBBBBBBBBBBBBBBBBBBBBBBBBBBBBCBBBBBBBBBBBBBBBBBBBBBBBBBBBBBBBBB",
"ABABABABABABABABABABABABABABABCABABABABABABABABABABABABABABABABA",
"ABBBBBBBBBBBBBBBBBBBBBBBBBBBBBCBBBBBBBBBBBBBBBBBBBBBBBBBBBBBBBBB",
"ABABABABABABABABABABABABABABABCABABABABABABABABABABABABABABABABA",
"ABBBBBBBBBBBBBBBBBBBBBBBBBBBBBCBBBBBBBBBBBBBBBBBBBBBBBBBBBBBBBBB",
"ABABABABABABABABABABABABABABABCABABABABABABABABABABABABABABABABA",
"ABBBBBBBBBBBBBBBBBBBBBBBBBBBBBCBBBBBBBBBBBBBBBBBBBBBBBBBBBBBBBBB",
"ABABABABABABABABABABABABABABABCABABABABABABABABABABABABABABABABA",
"ABBBBBBBBBBBBBBBBBBBBBBBBBBBBBCBBBBBBBBBBBBBBBBBBBBBBBBBBBBBBBBB",
"ABABABABABABABABABABABABABABABCABABABABABABABABABABABABABABABABA",
"ABBBBBBBBBBBBBBBBBBBBBBBBBBBBBCBBBBBBBBBBBBBBBBBBBBBBBBBBBBBBBBB",
"ABABABABABABABABABABABABABABABCABABABABABABABABABABABABABABABABA",
"ABBBBBBBBBBBBBBBBBBBBBBBBBBBBBCBBBBBBBBBBBBBBBBBBBBBBBBBBBBBBBBB",
"ABABABABABABABABABABABABABABABCABABABABABABABABABABABABABABABABA",
"ABBBBBBBBBBBBBBBBBBBBBBBBBBBBBCBBBBBBBBBBBBBBBBBBBBBBBBBBBBBBBBB",
"ABABABABABABABABABABABABABABABCABABABABABABABABABABABABABABABABA",
"ABBBBBBBBBBBBBBBBBBBBBBBBBBBBBCBBBBBBBBBBBBBBBBBBBBBBBBBBBBBBBBB",
"ABABABABABABABABABABABABABABABABABABABABABABABABABABABABABABABAB",
"ABBBBBBBBBBBBBBBBBBBBBBBBBBBBBBBBBBBBBBBBBBBBBBBBBBBBBBBBBBBBBBA",
"ABABABABABABABABABABABABABABABABABABABABABABABABABABABABABABABAB",
"DDDDDDDDDDDDDDDDDDDDDDDDDDDDDDDDDDDDDDDDDDDDDDDDDDDDDDDDDDDDDDDD"
};
