/* XPM */
static char *north[] = {
"64 64 4 1",
"A c #0000FF",
"B c #0000AA",
"C c #00FFFF",
"D c #00AAAA",
"CCCCCCCCCCCCCCCCCCCCCCCCCCCCCCCCCCCCCCCCCCCCCCCCCCCCCCCCCCCCCCCC",
"CDDDDDDDDDDDDDDDDDDDDDDDDDDDDDDDDDDDDDDDDDDDDDDDDDDDDDDDDDDDDDDC",
"CDDDDDDDDDDDDDDDDDDDDDDDDDDDDDDDDDDDDDDDDDDDDDDDDDDDDDDDDDDDDDDC",
"CAAAAAAAAAAAAAAAAAAAAAAAAAAAAAAAAAAAAAAAAAAAAAAAAAAAAAAAAAAAAAAC",
"CAAAAAAAAAAAAAAAAAAAAAAAAAAAAAAAAAAAAAAAAAAAAAAAAAAAAAAAAAAAAAAC",
"CAAAAAAAAAAAAAAAAAAAAAAAAAAAAAAAAAAAAAAAAAAAAAAAAAAAAAAAAAAAAAAC",
"CAAAAAABBBBBBBAAAAAABBBBBBBAAAAAABBBBBBBAAAAAABBBBBBBAAAAAABBBBC",
"CAAAAAABBBBBBBAAAAAABBBBBBBAAAAAABBBBBBBAAAAAABBBBBBBAAAAAABBBBC",
"CAAAAAABBBBBBBAAAAAABBBBBBBAAAAAABBBBBBBAAAAAABBBBBBBAAAAAABBBBC",
"CAAAAAABBBBBBBAAAAAABBBBBBBAAAAAABBBBBBBAAAAAABBBBBBBAAAAAABBBBC",
"CAAAAAABBBBBBBAAAAAABBBBBBBAAAAAABBBBBBBAAAAAABBBBBBBAAAAAABBBBC",
"CAAAAAABBBBBBBAAAAAABBBBBBBAAAAAABBBBBBBAAAAAABBBBBBBAAAAAABBBBC",
"CAAAAAABBBBBBBAAAAAABBBBBBBAAAAAABBBBBBBAAAAAABBBBBBBAAAAAABBBBC",
"CAAAAAAAAAAAAAAAAAAAAAAAAAAAAAAAAAAAAAAAAAAAAAAAAAAAAAAAAAAAAAAC",
"CAAAAAAAAAAAAAAAAAAAAAAAAAAAAAAAAAAAAAAAAAAAAAAAAAAAAAAAAAAAAAAC",
"CBBBBBBAAAAAABBBBBBBAAAAAABBBBBBBAAAAAABBBBBBBAAAAAABBBBBBBAAAAC",
"CBBBBBBAAAAAABBBBBBBAAAAAABBBBBBBAAAAAABBBBBBBAAAAAABBBBBBBAAAAC",
"CBBBBBBAAAAAABBBBBBBAAAAAABBBBBBBAAAAAABBBBBBBAAAAAABBBBBBBAAAAC",
"CBBBBBBAAAAAABBBBBBBAAAAAABBBBBBBAAAAAABBBBBBBAAAAAABBBBBBBAAAAC",
"CBBBBBBAAAAAABBBBBBBAAAAAABBBBBBBAAAAAABBBBBBBAAAAAABBBBBBBAAAAC",
"CBBBBBBAAAAAABBBBBBBAAAAAABBBBBBBAAAAAABBBBBBBAAAAAABBBBBBBAAAAC",
"CBBBBBBAAAAAABBBBBBBAAAAAABBBBBBBAAAAAABBBBBBBAAAAAABBBBBBBAAAAC",
"CAAAAAAAAAAAAAAAAAAAAAAAAAAAAAAAAAAAAAAAAAAAAAAAAAAAAAAAAAAAAAAC",
"CAAAAAAAAAAAAAAAAAAAAAAAAAAAAAAAAAAAAAAAAAAAAAAAAAAAAAAAAAAAAAAC",
"CAAAAAABBBBBBBAAAAAABBBBBBBAAAAAABBBBBBBAAAAAABBBBBBBAAAAAABBBBC",
"CAAAAAABBBBBBBAAAAAABBBBBBBAAAAAABBBBBBBAAAAAABBBBBBBAAAAAABBBBC",
"CAAAAAABBBBBBBAAAAAABBBBBBBAAAAAABBBBBBBAAAAAABBBBBBBAAAAAABBBBC",
"CAAAAAABBBBBBBAAAAAABBBBBBBAAAAAABBBBBBBAAAAAABBBBBBBAAAAAABBBBC",
"CAAAAAABBBBBBBAAAAAABBBBBBBAAAAAABBBBBBBAAAAAABBBBBBBAAAAAABBBBC",
"CAAAAAABBBBBBBAAAAAABBBBBBBAAAAAABBBBBBBAAAAAABBBBBBBAAAAAABBBBC",
"CAAAAAABBBBBBBAAAAAABBBBBBBAAAAAABBBBBBBAAAAAABBBBBBBAAAAAABBBBC",
"CAAAAAAAAAAAAAAAAAAAAAAAAAAAAAAAAAAAAAAAAAAAAAAAAAAAAAAAAAAAAAAC",
"CAAAAAAAAAAAAAAAAAAAAAAAAAAAAAAAAAAAAAAAAAAAAAAAAAAAAAAAAAAAAAAC",
"CBBBBBBAAAAAABBBBBBBAAAAAABBBBBBBAAAAAABBBBBBBAAAAAABBBBBBBAAAAC",
"CBBBBBBAAAAAABBBBBBBAAAAAABBBBBBBAAAAAABBBBBBBAAAAAABBBBBBBAAAAC",
"CBBBBBBAAAAAABBBBBBBAAAAAABBBBBBBAAAAAABBBBBBBAAAAAABBBBBBBAAAAC",
"CBBBBBBAAAAAABBBBBBBAAAAAABBBBBBBAAAAAABBBBBBBAAAAAABBBBBBBAAAAC",
"CBBBBBBAAAAAABBBBBBBAAAAAABBBBBBBAAAAAABBBBBBBAAAAAABBBBBBBAAAAC",
"CBBBBBBAAAAAABBBBBBBAAAAAABBBBBBBAAAAAABBBBBBBAAAAAABBBBBBBAAAAC",
"CBBBBBBAAAAAABBBBBBBAAAAAABBBBBBBAAAAAABBBBBBBAAAAAABBBBBBBAAAAC",
"CAAAAAAAAAAAAAAAAAAAAAAAAAAAAAAAAAAAAAAAAAAAAAAAAAAAAAAAAAAAAAAC",
"CAAAAAAAAAAAAAAAAAAAAAAAAAAAAAAAAAAAAAAAAAAAAAAAAAAAAAAAAAAAAAAC",
"CAAAAAABBBBBBBAAAAAABBBBBBBAAAAAABBBBBBBAAAAAABBBBBBBAAAAAABBBBC",
"CAAAAAABBBBBBBAAAAAABBBBBBBAAAAAABBBBBBBAAAAAABBBBBBBAAAAAABBBBC",
"CAAAAAABBBBBBBAAAAAABBBBBBBAAAAAABBBBBBBAAAAAABBBBBBBAAAAAABBBBC",
"CAAAAAABBBBBBBAAAAAABBBBBBBAAAAAABBBBBBBAAAAAABBBBBBBAAAAAABBBBC",
"CAAAAAABBBBBBBAAAAAABBBBBBBAAAAAABBBBBBBAAAAAABBBBBBBAAAAAABBBBC",
"CAAAAAABBBBBBBAAAAAABBBBBBBAAAAAABBBBBBBAAAAAABBBBBBBAAAAAABBBBC",
"CAAAAAABBBBBBBAAAAAABBBBBBBAAAAAABBBBBBBAAAAAABBBBBBBAAAAAABBBBC",
"CAAAAAAAAAAAAAAAAAAAAAAAAAAAAAAAAAAAAAAAAAAAAAAAAAAAAAAAAAAAAAAC",
"CAAAAAAAAAAAAAAAAAAAAAAAAAAAAAAAAAAAAAAAAAAAAAAAAAAAAAAAAAAAAAAC",
"CBBBBBBAAAAAABBBBBBBAAAAAABBBBBBBAAAAAABBBBBBBAAAAAABBBBBBBAAAAC",
"CBBBBBBAAAAAABBBBBBBAAAAAABBBBBBBAAAAAABBBBBBBAAAAAABBBBBBBAAAAC",
"CBBBBBBAAAAAABBBBBBBAAAAAABBBBBBBAAAAAABBBBBBBAAAAAABBBBBBBAAAAC",
"CBBBBBBAAAAAABBBBBBBAAAAAABBBBBBBAAAAAABBBBBBBAAAAAABBBBBBBAAAAC",
"CBBBBBBAAAAAABBBBBBBAAAAAABBBBBBBAAAAAABBBBBBBAAAAAABBBBBBBAAAAC",
"CBBBBBBAAAAAABBBBBBBAAAAAABBBBBBBAAAAAABBBBBBBAAAAAABBBBBBBAAAAC",
"CBBBBBBAAAAAABBBBBBBAAAAAABBBBBBBAAAAAABBBBBBBAAAAAABBBBBBBAAAAC",
"CAAAAAAAAAAAAAAAAAAAAAAAAAAAAAAAAAAAAAAAAAAAAAAAAAAAAAAAAAAAAAAC",
"CAAAAAAAAAAAAAAAAAAAAAAAAAAAAAAAAAAAAAAAAAAAAAAAAAAAAAAAAAAAAAAC",
"CAAAAAAAAAAAAAAAAAAAAAAAAAAAAAAAAAAAAAAAAAAAAAAAAAAAAAAAAAAAAAAC",
"CDDDDDDDDDDDDDDDDDDDDDDDDDDDDDDDDDDDDDDDDDDDDDDDDDDDDDDDDDDDDDDC",
"CDDDDDDDDDDDDDDDDDDDDDDDDDDDDDDDDDDDDDDDDDDDDDDDDDDDDDDDDDDDDDDC",
"CCCCCCCCCCCCCCCCCCCCCCCCCCCCCCCCCCCCCCCCCCCCCCCCCCCCCCCCCCCCCCCC"
};
